<?xml version="1.0" encoding="UTF-8"?>
<svg width="54px" height="54px" viewBox="0 0 54 54" version="1.1" xmlns="http://www.w3.org/2000/svg" xmlns:xlink="http://www.w3.org/1999/xlink">
    <!-- Generator: Sketch 50 (54983) - http://www.bohemiancoding.com/sketch -->
    <title>1</title>
    <desc>Created with Sketch.</desc>
    <defs></defs>
    <g id="desktop" stroke="none" stroke-width="1" fill="none" fill-rule="evenodd">
        <g id="1" transform="translate(2.000000, 2.000000)">
            <path d="M49.0049751,19.175995 C48.3419154,18.5130597 47.5365672,18.1817164 46.5899254,18.1817164 L31.8172886,18.1817164 L31.8172886,3.40870647 C31.8172886,2.46206468 31.4856965,1.65696517 30.82301,0.994029851 C30.160199,0.33159204 29.3557214,0 28.4077114,0 L21.5902985,0 C20.6435323,0 19.8385572,0.331218905 19.1756219,0.994154229 C18.5126866,1.65708955 18.1813433,2.46218905 18.1813433,3.40883085 L18.1813433,18.1818408 L3.40883085,18.1818408 C2.46218905,18.1818408 1.65708955,18.5131841 0.994154229,19.1761194 C0.331218905,19.8390547 0,20.643408 0,21.5906716 L0,28.4089552 C0,29.3564677 0.331094527,30.1609453 0.994029851,30.8232587 C1.65696517,31.4864428 2.46206468,31.8175373 3.40870647,31.8175373 L18.1812189,31.8175373 L18.1812189,46.590796 C18.1812189,47.5374378 18.5125622,48.3431592 19.1754975,49.0058458 C19.8384328,49.6681592 20.643408,49.9992537 21.5901741,49.9992537 L28.4080846,49.9992537 C29.3554726,49.9992537 30.1600746,49.6681592 30.8231343,49.0058458 C31.4863184,48.3427861 31.8174129,47.5374378 31.8174129,46.590796 L31.8174129,31.8175373 L46.589801,31.8175373 C47.5373134,31.8175373 48.3421642,31.4864428 49.0048507,30.8232587 C49.6676617,30.1609453 49.9991294,29.3564677 49.9991294,28.4089552 L49.9991294,21.5906716 C49.9988806,20.643408 49.6681592,19.8385572 49.0049751,19.175995 Z" id="Shape" stroke="#159EE3" stroke-width="2.2" fill-rule="nonzero"></path>
            <path d="M22.88,5.94339623 L22.88,13.1764151 C22.88,13.6971698 22.45982,14.1198113 21.94,14.1198113 C21.42018,14.1198113 21,13.6971698 21,13.1764151 L21,5.94339623 C21,5.42264151 21.42018,5 21.94,5 C22.45982,5 22.88,5.42264151 22.88,5.94339623 Z" id="Path" fill="#159EE3"></path>
            <path d="M28.88,36.9433962 L28.88,44.1764151 C28.88,44.6971698 28.45982,45.1198113 27.94,45.1198113 C27.42018,45.1198113 27,44.6971698 27,44.1764151 L27,36.9433962 C27,36.4226415 27.42018,36 27.94,36 C28.45982,36 28.88,36.4226415 28.88,36.9433962 Z" id="Path-Copy" fill="#159EE3"></path>
        </g>
    </g>
</svg>