<svg width="24" height="24" xmlns="http://www.w3.org/2000/svg">

 <g>
  <title>background</title>
  <rect fill="none" id="canvas_background" height="402" width="582" y="-1" x="-1"/>
 </g>
 <g>
  <title>Layer 1</title>
  <path fill="#ffffff" id="svg_1" d="m20,9.352c0,-4.852 -4.75,-8.352 -10,-8.352c-5.281,0 -10,3.527 -10,8.352c0,1.71 0.615,3.39 1.705,4.695c0.047,1.527 -0.85,3.719 -1.66,5.312c2.168,-0.391 5.252,-1.258 6.648,-2.115c7.698,1.877 13.307,-2.842 13.307,-7.892zm-14.5,1.381c-0.689,0 -1.25,-0.56 -1.25,-1.25s0.561,-1.25 1.25,-1.25s1.25,0.56 1.25,1.25s-0.561,1.25 -1.25,1.25zm4.5,0c-0.689,0 -1.25,-0.56 -1.25,-1.25s0.561,-1.25 1.25,-1.25s1.25,0.56 1.25,1.25s-0.561,1.25 -1.25,1.25zm4.5,0c-0.689,0 -1.25,-0.56 -1.25,-1.25s0.561,-1.25 1.25,-1.25s1.25,0.56 1.25,1.25s-0.561,1.25 -1.25,1.25zm7.036,1.441c-0.161,0.488 -0.361,0.961 -0.601,1.416c1.677,1.262 2.257,3.226 0.464,5.365c-0.021,0.745 -0.049,1.049 0.138,1.865c-0.892,-0.307 -0.979,-0.392 -1.665,-0.813c-2.127,0.519 -4.265,0.696 -6.089,-0.855c-0.562,0.159 -1.145,0.278 -1.74,0.364c1.513,1.877 4.298,2.897 7.577,2.1c0.914,0.561 2.933,1.127 4.352,1.385c-0.53,-1.045 -1.117,-2.479 -1.088,-3.479c1.755,-2.098 1.543,-5.436 -1.348,-7.348z"/>
 </g>
</svg>