<?xml version="1.0" encoding="UTF-8"?>
<svg width="23px" height="50px" viewBox="0 0 23 50" version="1.1" xmlns="http://www.w3.org/2000/svg" xmlns:xlink="http://www.w3.org/1999/xlink">
    <!-- Generator: Sketch 51.1 (57501) - http://www.bohemiancoding.com/sketch -->
    <title>dna (1)</title>
    <desc>Created with Sketch.</desc>
    <defs></defs>
    <g id="desktop" stroke="none" stroke-width="1" fill="none" fill-rule="evenodd">
        <g id="Poliklinika/1.1" transform="translate(-489.000000, -1052.000000)" fill="#FFFFFF" fill-rule="nonzero">
            <g id="Group-18-Copy" transform="translate(400.000000, 1027.000000)">
                <g id="dna-(1)" transform="translate(89.000000, 25.000000)">
                    <path d="M11.9600435,35.3736634 C8.28009092,33.6728586 5.52002767,31.7454097 3.91002372,29.591122 L16.0999407,29.591122 C16.7899565,29.591122 17.2499012,29.1375415 17.2499012,28.4573171 C17.2499012,27.7770926 16.7898577,27.3235122 16.0999407,27.3235122 L2.76006325,27.3235122 C2.53009092,26.5298682 2.30001977,25.8495463 2.30001977,25.0558049 C2.30001977,21.5408733 5.29005534,18.8196831 7.70501186,17.1188783 C8.27999209,16.7787173 8.39502767,16.0983954 8.05001977,15.5314929 C7.70501186,14.9645905 7.01499605,14.851171 6.44001581,15.191332 C2.18498419,18.1393611 0,21.5408733 0,25.0557075 C0,29.8178635 3.91002372,34.2398585 11.0399565,37.4145317 C15.2949881,39.342078 18.2849249,41.7231073 19.7798933,44.3309755 L6.9000593,44.3309755 C6.21004348,44.3309755 5.75009883,44.7845559 5.75009883,45.4647804 C5.75009883,46.1451023 6.21014231,46.5985853 6.9000593,46.5985853 L20.5850435,46.5985853 C20.7000791,46.9387462 20.7000791,47.3922292 20.7000791,47.7323902 L20.7000791,48.8661951 C20.7000791,49.546517 21.1601225,50 21.8500395,50 C22.5399565,50 23,49.5464196 23,48.8661951 L23,47.7323902 C23,42.9704291 19.0899763,38.5484341 11.9600435,35.3736634 Z" id="Shape"></path>
                    <path d="M7.81169206,38.5175486 C7.4768984,37.9655195 6.8073111,37.8550757 6.24935364,38.1863121 C2.12029586,41.0569962 0,44.3692655 0,47.7918837 L0,48.8959419 C0,49.5584147 0.446423504,50 1.11591491,50 C1.78550221,50 2.23182981,49.5583198 2.23182981,48.8959419 L2.23182981,47.7918837 C2.23182981,44.3691706 5.13334284,41.7193741 7.4768025,40.063192 C8.03485586,39.7320505 8.14648571,39.0695776 7.81169206,38.5175486 Z" id="Shape"></path>
                    <path d="M11.959996,12.5729081 C7.70494614,10.6473153 4.71499654,8.26869914 3.22002174,5.66347389 L16.1000099,5.66347389 C16.7900287,5.66347389 17.2499753,5.21035315 17.2499753,4.53081805 C17.2499753,3.85128295 16.7899298,3.39816221 16.1000099,3.39816221 L2.41496689,3.39816221 C2.29993082,3.05834599 2.29993082,2.60522525 2.29993082,2.26550637 L2.29993082,1.13265584 C2.29993082,0.453120741 1.83998419,0 1.14996541,0 C0.459946633,0 0,0.453120741 0,1.13265584 L0,2.26531168 C0,7.02264144 3.91004052,11.440155 11.040004,14.6116108 C14.7199723,16.3106919 17.4800474,18.2361874 19.0900583,20.3882919 L6.89999012,20.3882919 C6.20997134,20.3882919 5.75002471,20.8414126 5.75002471,21.5209477 C5.75002471,22.2005802 6.21007017,22.6536036 6.89999012,22.6536036 L20.2400237,22.6536036 C20.469997,23.4464432 20.7000692,24.1260756 20.7000692,24.9190126 C20.7000692,28.430382 17.7100208,31.2621189 15.1800178,32.9611027 C14.6050351,33.3009189 14.489999,33.9805513 14.8350084,34.5468793 C15.0649817,34.8866955 15.4099911,35 15.7550005,35 C15.9849738,35 16.215046,34.8866955 16.4450193,34.7734883 C20.7000692,31.9417514 23,28.5436865 23,24.9191099 C23,20.1618775 19.0899595,15.744364 11.959996,12.5729081 Z" id="Shape"></path>
                    <path d="M21.8994296,0 C21.2390496,0 20.7988593,0.44041124 20.7988593,1.10088618 L20.7988593,2.20177237 C20.7988593,5.61465199 17.937244,8.36696206 15.5159136,10.0182913 C14.9656284,10.3485761 14.8555336,11.0091457 15.1857236,11.5595888 C15.4058187,11.8898735 15.7360087,12 16.0661988,12 C16.2862939,12 16.5064836,11.8898735 16.7265788,11.7798417 C20.7988593,9.02753162 23,5.72477845 23,2.20186698 L23,1.10088618 C23.0000946,0.44041124 22.5598097,0 21.8994296,0 Z" id="Shape"></path>
                </g>
            </g>
        </g>
    </g>
</svg>