<?xml version="1.0" encoding="UTF-8"?>
<svg width="60px" height="56px" viewBox="0 0 60 56" version="1.1" xmlns="http://www.w3.org/2000/svg" xmlns:xlink="http://www.w3.org/1999/xlink">
    <!-- Generator: sketchtool 51.3 (57544) - http://www.bohemiancoding.com/sketch -->
    <title>B8C4194C-3397-48C2-B987-89265CCCF212</title>
    <desc>Created with sketchtool.</desc>
    <defs></defs>
    <g id="desktop" stroke="none" stroke-width="1" fill="none" fill-rule="evenodd">
        <g id="Main-Page" transform="translate(-425.000000, -491.000000)" fill="#FFFFFF" fill-rule="nonzero">
            <g id="Group-10" transform="translate(170.000000, 234.000000)">
                <g id="4-copy" transform="translate(225.000000, 232.000000)">
                    <g id="Group-9" transform="translate(30.000000, 25.000000)">
                        <g id="Group">
                            <path d="M25.8115385,14.7817888 C22.6701923,14.7817888 20.1,17.356681 20.1,20.5037716 C20.1,23.6508621 22.6701923,26.2257543 25.8115385,26.2257543 C28.9528846,26.2257543 31.5230769,23.6508621 31.5230769,20.5037716 C31.5230769,17.356681 28.9528846,14.7817888 25.8115385,14.7817888 Z M25.8115385,23.7462284 C24.0028846,23.7462284 22.4798077,22.3157328 22.4798077,20.4084052 C22.4798077,18.5010776 23.9076923,17.0705819 25.8115385,17.0705819 C27.7153846,17.0705819 29.1432692,18.5010776 29.1432692,20.4084052 C29.1432692,22.3157328 27.6201923,23.7462284 25.8115385,23.7462284 Z" id="Shape"></path>
                            <path d="M25.8115385,14.7817888 C22.6701923,14.7817888 20.1,17.356681 20.1,20.5037716 C20.1,23.6508621 22.6701923,26.2257543 25.8115385,26.2257543 C28.9528846,26.2257543 31.5230769,23.6508621 31.5230769,20.5037716 C31.5230769,17.356681 28.9528846,14.7817888 25.8115385,14.7817888 Z M25.8115385,23.7462284 C24.0028846,23.7462284 22.4798077,22.3157328 22.4798077,20.4084052 C22.4798077,18.5010776 23.9076923,17.0705819 25.8115385,17.0705819 C27.7153846,17.0705819 29.1432692,18.5010776 29.1432692,20.4084052 C29.1432692,22.3157328 27.6201923,23.7462284 25.8115385,23.7462284 Z" id="Shape"></path>
                            <path d="M35.6163462,38.4326509 C32.475,38.4326509 29.9048077,41.0075431 29.9048077,44.1546336 C29.9048077,47.3017241 32.475,49.8766164 35.6163462,49.8766164 C38.7576923,49.8766164 41.3278846,47.3017241 41.3278846,44.1546336 C41.3278846,41.0075431 38.7576923,38.4326509 35.6163462,38.4326509 Z M35.6163462,47.3970905 C33.8076923,47.3970905 32.2846154,45.9665948 32.2846154,44.0592672 C32.2846154,42.1519397 33.7125,40.721444 35.6163462,40.721444 C37.5201923,40.721444 38.9480769,42.1519397 38.9480769,44.0592672 C38.9480769,45.9665948 37.5201923,47.3970905 35.6163462,47.3970905 Z" id="Shape"></path>
                            <path d="M46.9442308,2.67025862 C45.8971154,2.19342672 44.85,1.71659483 43.8028846,1.33512931 C43.0413462,1.04903017 42.375,0.762931034 41.6134615,0.381465517 C40.9471154,0.0953663793 40.0903846,2.77555756e-16 39.4240385,0.286099138 C38.6625,0.667564655 38.0913462,1.14439655 37.8057692,1.90732759 C36.6634615,4.48221983 33.7125,6.10344828 30.2855769,6.10344828 C26.8586538,6.10344828 23.9076923,4.48221983 22.8605769,1.90732759 C22.575,1.14439655 22.0038462,0.667564655 21.2423077,0.381465517 C20.4807692,0.0953663793 19.7192308,0.0953663793 19.0528846,0.476831897 C18.2913462,0.762931034 17.625,1.04903017 16.8634615,1.43049569 C15.8163462,1.81196121 14.7692308,2.2887931 13.7221154,2.765625 C10.8663462,4.19612069 7.34423077,7.24784483 6.20192308,10.6810345 C5.53557692,12.3976293 4.48846154,17.7381466 3.91730769,20.8852371 C3.82211538,21.5528017 1.20865385,40.5905172 1.875,40.78125 C2.54134615,40.8766164 6.10673077,22.0296336 6.29711538,21.362069 C7.24903846,16.3076509 8.10576923,12.5883621 8.48653846,11.4439655 C9.34326923,8.7737069 12.3894231,6.10344828 14.8644231,4.86368534 C15.8163462,4.38685345 16.7682692,4.00538793 17.8153846,3.52855603 C18.5769231,3.2424569 19.3384615,2.95635776 20.1,2.57489224 C20.2903846,2.47952586 20.3855769,2.57489224 20.4807692,2.57489224 C20.5759615,2.57489224 20.6711538,2.67025862 20.7663462,2.86099138 C22.2894231,6.29418103 26.0019231,8.48760776 30.4759615,8.48760776 C34.95,8.48760776 38.4721154,6.29418103 39.9951923,2.86099138 C40.0903846,2.67025862 40.1855769,2.57489224 40.2807692,2.57489224 C40.3759615,2.57489224 40.4711538,2.47952586 40.6615385,2.57489224 C41.4230769,2.86099138 42.1846154,3.2424569 42.9461538,3.52855603 C43.9932692,3.91002155 44.9451923,4.38685345 45.8971154,4.86368534 C48.3721154,6.10344828 51.3230769,8.7737069 52.275,11.4439655 C53.2269231,14.1142241 55.9875,28.9913793 57.6057692,39.7677802 C57.7009615,40.3399784 58.1769231,40.8168103 58.7480769,40.8168103 C58.8432692,40.8168103 58.8432692,40.8168103 58.9384615,40.8168103 C59.6048077,40.721444 60.0807692,40.1492457 59.9855769,39.481681 C58.3673077,28.3238147 55.6067308,13.5420259 54.5596154,10.6810345 C53.3221154,7.15247845 49.8,4.10075431 46.9442308,2.67025862 Z" id="Shape"></path>
                            <path d="M1.91826923,40.721444 C2.48942308,40.721444 2.96538462,40.3399784 3.06057692,39.6724138 C3.25096154,38.4326509 4.96586538,28.4272629 5.15625,27.1875 C5.25144231,26.5199353 6.29134615,18.3766164 5.625,18.28125 C4.95865385,18.1858836 3.15576923,26.0511853 3.06057692,26.71875 C2.87019231,28.0538793 0.966346154,38.1465517 0.775961538,39.3863147 C0.680769231,40.0538793 1.15673077,40.6260776 1.82307692,40.721444 C1.82307692,40.721444 1.82307692,40.721444 1.91826923,40.721444 Z" id="Shape"></path>
                            <path d="M46.8490385,17.4520474 C46.1826923,17.356681 45.6115385,17.8335129 45.5163462,18.5010776 C44.4692308,26.2257543 45.3259615,34.0457974 46.0875,41.5797414 C46.1826923,42.9148707 46.3730769,44.1546336 46.4682692,45.4897629 C46.7538462,48.2553879 47.0394231,51.1163793 47.0394231,53.9773707 C47.0394231,54.6449353 47.6105769,55.1217672 48.2769231,55.1217672 C48.2769231,55.1217672 48.2769231,55.1217672 48.2769231,55.1217672 C48.9432692,55.1217672 49.4192308,54.549569 49.4192308,53.8820043 C49.4192308,50.9256466 49.1336538,48.0646552 48.8480769,45.2036638 C48.7528846,43.8685345 48.5625,42.6287716 48.4673077,41.2936422 C47.6105769,33.8550647 46.8490385,26.2257543 47.8961538,18.7871767 C47.9913462,18.2149784 47.5153846,17.5474138 46.8490385,17.4520474 Z" id="Shape"></path>
                            <path d="M11.7230769,45.2990302 C11.4375,48.1600216 11.1519231,51.0210129 11.1519231,53.9773707 C11.1519231,54.6449353 11.7230769,55.2171336 12.2942308,55.2171336 C12.2942308,55.2171336 12.2942308,55.2171336 12.2942308,55.2171336 C12.9605769,55.2171336 13.4365385,54.6449353 13.5317308,54.0727371 C13.5317308,51.2117457 13.8173077,48.3507543 14.1028846,45.5851293 C14.1980769,44.25 14.3884615,43.0102371 14.4836538,41.6751078 C15.3403846,34.1411638 16.1971154,26.3211207 15.0548077,18.596444 C14.9596154,17.9288793 14.3884615,17.4520474 13.7221154,17.5474138 C13.0557692,17.6427802 12.5798077,18.2149784 12.675,18.8825431 C13.7221154,26.3211207 12.8653846,33.950431 12.1038462,41.3890086 C12.0086538,42.6287716 11.9134615,43.9639009 11.7230769,45.2990302 Z" id="Shape"></path>
                        </g>
                    </g>
                </g>
            </g>
        </g>
    </g>
</svg>