<?xml version="1.0" encoding="UTF-8"?>
<svg width="60px" height="54px" viewBox="0 0 60 54" version="1.1" xmlns="http://www.w3.org/2000/svg" xmlns:xlink="http://www.w3.org/1999/xlink">
    <!-- Generator: sketchtool 51.3 (57544) - http://www.bohemiancoding.com/sketch -->
    <title>65A79898-A87A-4F11-AC1E-1E0BF931533C</title>
    <desc>Created with sketchtool.</desc>
    <defs></defs>
    <g id="desktop" stroke="none" stroke-width="1" fill="none" fill-rule="evenodd">
        <g id="Main-Page" transform="translate(-200.000000, -489.000000)" fill="#FFFFFF" fill-rule="nonzero" stroke="#FFFFFF" stroke-width="0.2">
            <g id="Group-10" transform="translate(170.000000, 234.000000)">
                <g id="3" transform="translate(0.000000, 230.000000)">
                    <g id="Group-6" transform="translate(30.000000, 25.000000)">
                        <g id="noun_1145400_cc">
                            <g id="Group">
                                <path d="M25.5027273,10.3677973 C25.5027273,7.37905405 23.0618182,4.94894595 20.0618182,4.94894595 C17.0618182,4.94894595 14.6209091,7.37995946 14.6209091,10.3677973 C14.6209091,13.3556351 17.0627273,15.7866486 20.0618182,15.7866486 C23.0618182,15.7866486 25.5027273,13.3556351 25.5027273,10.3677973 Z M16.4381818,10.3677973 C16.4381818,8.37862162 18.0636364,6.75975676 20.0609091,6.75975676 C22.0590909,6.75975676 23.6836364,8.37862162 23.6836364,10.3677973 C23.6836364,12.356973 22.0590909,13.9758378 20.0609091,13.9758378 C18.0636364,13.9758378 16.4381818,12.356973 16.4381818,10.3677973 Z" id="Shape"></path>
                                <path d="M59.7045455,21.9769054 L59.6127273,21.5432162 L59.6127273,8.91009459 L39.5272727,6.05987838 C39.5263636,6.05987838 39.5254545,6.05897297 39.5254545,6.05806757 L39.5181818,6.05897297 L39.5118182,6.05806757 C39.5109091,6.05897297 39.5109091,6.05987838 39.51,6.05987838 L29.4272727,7.49041892 C28.2018182,3.49486486 24.4681818,0.578554054 20.06,0.578554054 C15.6809091,0.578554054 11.9636364,3.45774324 10.7154545,7.41527027 L0.294545455,5.93583784 L0.294545455,50.7715135 L20.4063636,53.6253514 C20.41,53.6181081 20.4154545,53.6108649 20.42,53.604527 L39.5209091,50.8937432 L59.6127273,53.7457703 L59.6127273,21.9959189 L59.7045455,21.9769054 Z M57.7945455,10.480973 L57.7945455,20.5282568 L40.4763636,24.1670811 L40.4763636,8.0237027 L57.7945455,10.480973 Z M29.7936364,9.26772973 L38.5663636,8.0227973 L38.5663636,24.5672703 L21.2481818,28.2051892 L21.2481818,24.3572162 C23.2181818,22.2593919 29.8545455,14.8540811 29.8545455,10.3333919 C29.8554545,9.97304054 29.8318182,9.61812162 29.7936364,9.26772973 Z M2.11363636,34.0785541 L19.4309091,30.4388243 L19.4309091,41.4983514 L2.11363636,45.1362703 L2.11363636,34.0785541 Z M21.2490909,30.0567432 L38.5672727,26.4179189 L38.5672727,37.4765405 L21.2490909,41.1144595 L21.2490909,30.0567432 Z M20.0609091,2.38936486 C24.4590909,2.38936486 28.0363636,5.95304054 28.0363636,10.3324865 C28.0363636,13.7368108 22.7745455,20.0701216 20.0609091,22.9737568 C17.3472727,20.0719324 12.0854545,13.7404324 12.0854545,10.3324865 C12.0854545,5.95304054 15.6627273,2.38936486 20.0609091,2.38936486 Z M10.3409091,9.19077027 C10.2963636,9.56560811 10.2672727,9.94587838 10.2672727,10.3333919 C10.2672727,15.5286081 19.0372727,24.5392027 19.4109091,24.9203784 L19.4309091,24.9412027 L19.4309091,28.5872703 L2.11363636,32.227 L2.11363636,8.0227973 L10.3409091,9.19077027 Z M2.11363636,49.2015405 L2.11363636,46.9878243 L19.4309091,43.3480946 L19.4309091,51.6597162 L2.11363636,49.2015405 Z M21.2490909,51.6597162 L21.2490909,42.9660135 L38.5672727,39.3262838 L38.5672727,49.2006351 L21.2490909,51.6597162 Z M40.4763636,49.2015405 L40.4763636,38.9251892 L57.7945455,35.2872703 L57.7945455,51.6588108 L40.4763636,49.2015405 Z M57.7945455,33.4366216 L40.4763636,37.0763514 L40.4763636,26.0168243 L57.7945455,22.378 L57.7945455,33.4366216 Z" id="Shape"></path>
                            </g>
                        </g>
                    </g>
                </g>
            </g>
        </g>
    </g>
</svg>