<?xml version="1.0" encoding="UTF-8"?>
<svg width="47px" height="60px" viewBox="0 0 47 60" version="1.1" xmlns="http://www.w3.org/2000/svg" xmlns:xlink="http://www.w3.org/1999/xlink">
    <!-- Generator: sketchtool 51.3 (57544) - http://www.bohemiancoding.com/sketch -->
    <title>9E60D16E-E279-42FD-AC3F-687BE2874A3C</title>
    <desc>Created with sketchtool.</desc>
    <defs></defs>
    <g id="desktop" stroke="none" stroke-width="1" fill="none" fill-rule="evenodd">
        <g id="Main-Page" transform="translate(-425.000000, -259.000000)" fill="#FFFFFF" fill-rule="nonzero">
            <g id="Group-10" transform="translate(170.000000, 234.000000)">
                <g id="2" transform="translate(225.000000, 0.000000)">
                    <g id="Group-8" transform="translate(30.000000, 25.000000)">
                        <g id="noun_1028186_cc">
                            <g id="Group">
                                <g id="Shape">
                                    <g>
                                        <path d="M23.0269321,24.9349921 C21.9226405,24.9349921 21.0245902,25.8293735 21.0245902,26.9291534 C21.0245902,28.0289333 21.9226405,28.9233146 23.0269321,28.9233146 C24.1312237,28.9233146 25.029274,28.0289333 25.029274,26.9291534 C25.029274,25.8293735 24.1312237,24.9349921 23.0269321,24.9349921 M23.0269321,30.9174759 C20.8183489,30.9174759 19.0222482,29.1287132 19.0222482,26.9291534 C19.0222482,24.7295935 20.8183489,22.9408309 23.0269321,22.9408309 C25.2355152,22.9408309 27.0316159,24.7295935 27.0316159,26.9291534 C27.0316159,29.1287132 25.2355152,30.9174759 23.0269321,30.9174759"></path>
                                        <path d="M17.0492406,16.95396 C15.7927711,16.95396 14.7705755,17.3079236 14.0687547,18.0078742 C12.9314245,19.1395607 12.7021563,21.1097921 13.4240006,23.5536366 C14.2079174,26.2068682 15.99701,29.0196326 18.4618929,31.4754422 C20.9277769,33.9302547 23.7520802,35.7120377 26.4161961,36.4927519 C28.8720685,37.211647 30.8473788,36.9833155 31.984709,35.8506319 C33.1230404,34.7179483 33.3513074,32.7487141 32.6304643,30.3048695 C31.8465474,27.651638 30.0574549,24.8388736 27.5915708,22.383064 C25.1256868,19.9272544 22.3013835,18.1454714 19.6372676,17.3657543 C18.6981692,17.0905601 17.8281516,16.95396 17.0492406,16.95396 M29.0072266,38.8967132 C28.0320861,38.8967132 26.9738484,38.7341891 25.8515357,38.4061496 C22.8720509,37.533704 19.7443929,35.5724464 17.0462371,32.8853142 C14.3480814,30.1981819 12.3787781,27.083302 11.5027535,24.1159901 C10.5646563,20.9402883 10.9731341,18.2701064 12.6530989,16.5980022 C14.3320626,14.924901 17.0141996,14.5190892 20.201928,15.4523566 C23.1814128,16.3248022 26.3090708,18.2850627 29.0072266,20.973192 C31.7063835,23.6603243 33.6746856,26.7752041 34.5507102,29.7425161 C35.4888074,32.9182178 35.0803296,35.5883997 33.4013659,37.2605039 C32.3130931,38.3453276 30.8033273,38.8967132 29.0072266,38.8967132"></path>
                                        <path d="M29.0046235,16.95396 C28.2257125,16.95396 27.355695,17.0905601 26.4165966,17.3657543 C23.7524807,18.1454714 20.9281774,19.9272544 18.4622933,22.383064 C15.9964093,24.8388736 14.2073167,27.651638 13.4233999,30.3048695 C12.7025568,32.7487141 12.9308238,34.7179483 14.0691552,35.8506319 C15.2054842,36.9833155 17.183798,37.211647 19.637668,36.4927519 C22.301784,35.7120377 25.1260872,33.9302547 27.5919713,31.4754422 C30.0568542,29.0196326 31.8459467,26.2068682 32.6298636,23.5536366 C33.3517078,21.1097921 33.1224397,19.1395607 31.9851095,18.0078742 C31.2832886,17.3079236 30.2610931,16.95396 29.0046235,16.95396 M17.0466376,38.8967132 C15.2505369,38.8977103 13.7407711,38.3453276 12.6524982,37.2605039 C10.9735345,35.5883997 10.5650568,32.9182178 11.503154,29.7425161 C12.3791786,26.7752041 14.3474807,23.6603243 17.0466376,20.973192 C19.7447933,18.2850627 22.8724514,16.3248022 25.8519362,15.4523566 C29.0396645,14.5180921 31.7218015,14.924901 33.4007652,16.5980022 C35.0807301,18.2701064 35.4892078,20.9402883 34.5511107,24.1159901 C33.6750861,27.083302 31.7057828,30.1981819 29.007627,32.8853142 C26.3094713,35.5724464 23.1818132,37.533704 20.2023285,38.4061496 C19.081017,38.7341891 18.0207769,38.8967132 17.0466376,38.8967132"></path>
                                        <path d="M3.00351288,3.99629912 C2.45186768,3.99629912 2.00234192,4.44398832 2.00234192,4.99337974 L2.00234192,56.841572 C2.00234192,57.3909634 2.45186768,57.8386526 3.00351288,57.8386526 L43.0503513,57.8386526 C43.6019965,57.8386526 44.0515222,57.3909634 44.0515222,56.841572 L44.0515222,4.99337974 C44.0515222,4.44398832 43.6019965,3.99629912 43.0503513,3.99629912 L31.0362998,3.99629912 C30.4836534,3.99629912 30.0351288,3.54960701 30.0351288,2.9992185 L30.0351288,2.00213788 L16.0187354,2.00213788 L16.0187354,2.9992185 C16.0187354,3.54960701 15.5702108,3.99629912 15.0175644,3.99629912 L3.00351288,3.99629912 Z M43.0503513,59.8328138 L3.00351288,59.8328138 C1.34757611,59.8328138 0,58.4907433 0,56.841572 L0,4.99337974 C0,3.3442084 1.34757611,2.00213788 3.00351288,2.00213788 L14.0163934,2.00213788 C14.0163934,0.902357961 14.9144438,0.00797664496 16.0187354,0.00797664496 L30.0351288,0.00797664496 C31.1394204,0.00797664496 32.0374707,0.902357961 32.0374707,2.00213788 L43.0503513,2.00213788 C44.7062881,2.00213788 46.0538642,3.3442084 46.0538642,4.99337974 L46.0538642,56.841572 C46.0538642,58.4907433 44.7062881,59.8328138 43.0503513,59.8328138 Z"></path>
                                        <path d="M40.0468384,55.8444914 L6.00702576,55.8444914 C4.90273419,55.8444914 4.00468384,54.95011 4.00468384,53.8503301 L4.00468384,7.9846216 C4.00468384,6.88484168 4.90273419,5.99046036 6.00702576,5.99046036 L15.0175644,5.99046036 C15.5702108,5.99046036 16.0187354,6.43715248 16.0187354,6.98754098 C16.0187354,7.53792949 15.5702108,7.9846216 15.0175644,7.9846216 L6.00702576,7.9846216 L6.00702576,53.8503301 L40.0468384,53.8503301 L40.0468384,7.9846216 L31.0362998,7.9846216 C30.4836534,7.9846216 30.0351288,7.53792949 30.0351288,6.98754098 C30.0351288,6.43715248 30.4836534,5.99046036 31.0362998,5.99046036 L40.0468384,5.99046036 C41.15113,5.99046036 42.0491803,6.88484168 42.0491803,7.9846216 L42.0491803,53.8503301 C42.0491803,54.95011 41.15113,55.8444914 40.0468384,55.8444914"></path>
                                        <path d="M28.0327869,43.8795239 L18.0210773,43.8795239 C17.4684309,43.8795239 17.0199063,43.4328318 17.0199063,42.8824433 C17.0199063,42.3320548 17.4684309,41.8853627 18.0210773,41.8853627 L28.0327869,41.8853627 C28.5854333,41.8853627 29.0339578,42.3320548 29.0339578,42.8824433 C29.0339578,43.4328318 28.5854333,43.8795239 28.0327869,43.8795239"></path>
                                        <path d="M30.0351288,47.8678464 L16.0187354,47.8678464 C15.466089,47.8678464 15.0175644,47.4211543 15.0175644,46.8707658 C15.0175644,46.3203773 15.466089,45.8736852 16.0187354,45.8736852 L30.0351288,45.8736852 C30.5877752,45.8736852 31.0362998,46.3203773 31.0362998,46.8707658 C31.0362998,47.4211543 30.5877752,47.8678464 30.0351288,47.8678464"></path>
                                        <path d="M16.0187354,2.00213788 L16.0187354,7.9846216 L30.03613,7.9846216 L30.0351288,2.00213788 L16.0187354,2.00213788 Z M30.0351288,9.97878284 L16.0187354,9.97878284 C14.9144438,9.97878284 14.0163934,9.08440153 14.0163934,7.9846216 L14.0163934,2.00213788 C14.0163934,0.902357961 14.9144438,0.00797664496 16.0187354,0.00797664496 L30.0351288,0.00797664496 C31.1394204,0.00797664496 32.0374707,0.902357961 32.0374707,2.00213788 L32.0374707,7.9846216 C32.0374707,9.08440153 31.1394204,9.97878284 30.0351288,9.97878284 Z"></path>
                                    </g>
                                </g>
                            </g>
                        </g>
                    </g>
                </g>
            </g>
        </g>
    </g>
</svg>