<?xml version="1.0" encoding="UTF-8"?>
<svg width="60px" height="60px" viewBox="0 0 60 60" version="1.1" xmlns="http://www.w3.org/2000/svg" xmlns:xlink="http://www.w3.org/1999/xlink">
    <!-- Generator: sketchtool 51.3 (57544) - http://www.bohemiancoding.com/sketch -->
    <title>74A7F8D6-E1C1-4308-874D-9EBDA6627EBF</title>
    <desc>Created with sketchtool.</desc>
    <defs></defs>
    <g id="desktop" stroke="none" stroke-width="1" fill="none" fill-rule="evenodd">
        <g id="Main-Page" transform="translate(-200.000000, -259.000000)" fill="#FFFFFF" fill-rule="nonzero">
            <g id="Group-10" transform="translate(170.000000, 234.000000)">
                <g id="1">
                    <g id="Group-7" transform="translate(30.000000, 25.000000)">
                        <g id="noun_593967_cc-copy-3">
                            <path d="M56.3589873,17.027027 L45.0038375,17.027027 C43.43283,17.027027 42.1621622,18.2808803 42.1621622,19.831099 C42.1621622,21.0507563 42.9476659,22.088035 44.0566124,22.4755896 L44.0566124,53.4571654 C44.0566124,57.059144 47.0253545,60 50.6756366,60 C54.3259187,60 57.2946608,57.0705427 57.2946608,53.4571654 L57.2946608,22.4755896 C58.3920558,22.088035 59.189111,21.0507563 59.189111,19.831099 C59.2006626,18.2808803 57.9299947,17.027027 56.3589873,17.027027 Z M55.4117621,53.4457667 C55.4117621,56.0218654 53.2862814,58.11922 50.6756366,58.11922 C48.0649918,58.11922 45.9395111,56.0218654 45.9395111,53.4457667 L45.9395111,45.0449495 L55.4002106,45.0449495 L55.4002106,53.4457667 L55.4117621,53.4457667 Z M56.3589873,20.7657897 L55.4117621,20.7657897 L55.4117621,24.5045523 L53.5173119,24.5045523 L53.5173119,26.3625349 L55.4117621,26.3625349 L55.4117621,29.1666069 L53.5173119,29.1666069 L53.5173119,31.0359882 L55.4117621,31.0359882 L55.4117621,33.8400602 L53.5173119,33.8400602 L53.5173119,35.7094415 L55.4117621,35.7094415 L55.4117621,38.5135135 L53.5173119,38.5135135 L53.5173119,40.3828948 L55.4117621,40.3828948 L55.4117621,43.1869668 L45.9510626,43.1869668 L45.9510626,20.7657897 L45.0038375,20.7657897 C44.4840188,20.7657897 44.0566124,20.344039 44.0566124,19.831099 C44.0566124,19.318159 44.4840188,18.8964083 45.0038375,18.8964083 L56.3589873,18.8964083 C56.8788059,18.8964083 57.3062124,19.318159 57.3062124,19.831099 C57.3062124,20.344039 56.8788059,20.7657897 56.3589873,20.7657897 Z" id="Shape"></path>
                            <path d="M26.8267013,35.7869203 L26.8267013,22.5967345 C27.9372045,22.2005628 28.7437805,21.140221 28.7437805,19.8934455 C28.7437805,18.3087589 27.4579347,17.027027 25.8681618,17.027027 L16.2944557,17.027027 C14.7046828,17.027027 13.4188371,18.3087589 13.4188371,19.8934455 C13.4188371,21.140221 14.2137235,22.2005628 15.3359162,22.5967345 L15.3359162,35.7752682 L1.82284633,49.3732778 C0.0109727745,51.1910066 -0.491676017,53.8127308 0.50193206,56.1897608 C1.48385063,58.5434865 3.6697884,60 6.21810088,60 L35.9445166,60 C38.4811396,60 40.6787669,58.5434865 41.6606855,56.1897608 C42.6542935,53.8127308 42.1516447,51.2026587 40.3280817,49.3732778 L26.8267013,35.7869203 Z M17.2413058,36.5676115 L17.2413058,33.2700651 L19.1583849,33.2700651 L19.1583849,31.3591194 L17.2413058,31.3591194 L17.2413058,29.4481738 L19.1583849,29.4481738 L19.1583849,27.5372281 L17.2413058,27.5372281 L17.2413058,25.6262825 L19.1583849,25.6262825 L19.1583849,23.7153368 L17.2413058,23.7153368 L17.2413058,20.8489183 L16.2827662,20.8489183 C15.7567384,20.8489183 15.3242267,20.4177904 15.3242267,19.8934455 C15.3242267,19.3691007 15.7567384,18.9379727 16.2827662,18.9379727 L25.8564723,18.9379727 C26.3825001,18.9379727 26.8150118,19.3691007 26.8150118,19.8934455 C26.8150118,20.4177904 26.3825001,20.8489183 25.8564723,20.8489183 L24.8979327,20.8489183 L24.8979327,36.5676115 L34.9041505,46.6350325 L7.24677748,46.6350325 L17.2413058,36.5676115 Z M39.8838804,55.455678 C39.3461631,56.7257578 38.0369384,58.1007065 35.9328271,58.1007065 L6.21810088,58.1007065 C4.12567916,58.1007065 2.8047649,56.7374099 2.26704758,55.455678 C1.72933027,54.1622941 1.68257225,52.2396963 3.19051862,50.7132702 L5.35307738,48.5459782 L36.8095401,48.5459782 L38.9720989,50.7132702 C40.4683558,52.2280442 40.4215977,54.150642 39.8838804,55.455678 Z" id="Shape"></path>
                            <path d="M23.9189189,12.1621622 C25.93235,12.1621622 27.5675676,10.5244481 27.5675676,8.50794306 C27.5675676,6.491438 25.9212261,4.86486486 23.9189189,4.86486486 C21.9166117,4.86486486 20.2702703,6.50257891 20.2702703,8.51908397 C20.2702703,10.535589 21.9054878,12.1621622 23.9189189,12.1621622 Z M23.9189189,6.69197442 C24.9200725,6.69197442 25.7432432,7.50526099 25.7432432,8.51908397 C25.7432432,9.53290695 24.9200725,10.3461935 23.9189189,10.3461935 C22.9177653,10.3461935 22.0945946,9.53290695 22.0945946,8.51908397 C22.0945946,7.50526099 22.9066414,6.69197442 23.9189189,6.69197442 Z" id="Shape"></path>
                            <path d="M16.6216216,5.67567568 C18.1905076,5.67567568 19.4594595,4.4067238 19.4594595,2.83783784 C19.4594595,1.26895188 18.1905076,0 16.6216216,0 C15.0527357,0 13.7837838,1.26895188 13.7837838,2.83783784 C13.7837838,4.4067238 15.0642716,5.67567568 16.6216216,5.67567568 Z M16.6216216,1.89189189 C17.1407383,1.89189189 17.5675676,2.31872116 17.5675676,2.83783784 C17.5675676,3.35695452 17.1407383,3.78378378 16.6216216,3.78378378 C16.1025049,3.78378378 15.6756757,3.35695452 15.6756757,2.83783784 C15.6756757,2.31872116 16.1025049,1.89189189 16.6216216,1.89189189 Z" id="Shape"></path>
                        </g>
                    </g>
                </g>
            </g>
        </g>
    </g>
</svg>