<?xml version="1.0" encoding="utf-8"?>
<!-- Generator: Adobe Illustrator 16.0.0, SVG Export Plug-In . SVG Version: 6.00 Build 0)  -->
<!DOCTYPE svg PUBLIC "-//W3C//DTD SVG 1.1//EN" "http://www.w3.org/Graphics/SVG/1.1/DTD/svg11.dtd">
<svg version="1.1" id="Layer_1" xmlns="http://www.w3.org/2000/svg" xmlns:xlink="http://www.w3.org/1999/xlink" x="0px" y="0px"
	 width="70.865px" height="70.867px" viewBox="0 0 70.865 70.867" enable-background="new 0 0 70.865 70.867" xml:space="preserve">
<g>
	<rect fill="#FFCA05" width="70.865" height="70.867"/>
	<g>
		<path d="M51.264,15.969l1.311-0.463l-1.516-3.773l-7.926,2.801l1,2.49l-0.002,0.002c0,0,0.016,0.033,0.039,0.09l0.318,0.795
			c1.756,4.525,8.797,25.207-8.635,26.613v0.006h-0.904v-0.006c-18.604-1.504-9.258-25.084-8.332-27.313l1.295-3.047l-7.869-2.949
			l-1.594,3.746l1.408,0.527c-9.555,16.477-8.404,24.43-8.404,24.43c1.779,18.363,21.34,19.646,23.33,19.729v0.004h0.119
			c0.029,0.002,0.047,0.002,0.047,0.002V59.65h0.904v0.002c0,0,21.68-0.383,23.559-19.734
			C59.412,39.918,60.545,32.117,51.264,15.969z"/>
		<g>
			<g>
				<ellipse fill="#FFCA05" cx="19.936" cy="27.15" rx="1.693" ry="1.588"/>
				<ellipse fill="#FFCA05" cx="16.865" cy="38.416" rx="1.693" ry="1.588"/>
				<ellipse fill="#FFCA05" cx="20.869" cy="49.455" rx="1.693" ry="1.588"/>
			</g>
			<g>
				<ellipse fill="#FFCA05" cx="51.389" cy="27.15" rx="1.766" ry="1.588"/>
				<ellipse fill="#FFCA05" cx="53.929" cy="38.416" rx="1.767" ry="1.588"/>
				<ellipse fill="#FFCA05" cx="50.414" cy="49.455" rx="1.766" ry="1.588"/>
			</g>
		</g>
	</g>
</g>
</svg>
