<?xml version="1.0" encoding="UTF-8"?>
<svg width="101px" height="116px" viewBox="0 0 101 116" version="1.1" xmlns="http://www.w3.org/2000/svg" xmlns:xlink="http://www.w3.org/1999/xlink">
    <!-- Generator: Sketch 49.3 (51167) - http://www.bohemiancoding.com/sketch -->
    <title>SA Group logo</title>
    <desc>Created with Sketch.</desc>
    <defs></defs>
    <g id="desktop" stroke="none" stroke-width="1" fill="none" fill-rule="evenodd">
        <g id="Home-Page---menu" transform="translate(-40.000000, -30.000000)">
            <g id="SA-Group-logo" transform="translate(40.000000, 30.000000)">
                <g id="Group-39">
                    <path d="M0.473410477,0 L0.473410477,101.628277 C0.473410477,109.029966 6.226768,114.740103 13.2531263,114.740103 L87.0563994,114.740103 C94.0792071,114.740103 99.8323279,109.029966 99.8323279,101.628277 L99.8323279,0 L0.473410477,0 Z" id="Fill-1" fill="#149DE2"></path>
                    <path d="M1.18352619,1.22105263 L1.18352619,83.3826975 C1.18352619,90.0003441 5.41037163,95.1051463 12.3070155,95.1051463 L87.5870925,95.1051463 C94.479949,95.1051463 98.7067945,90.0003441 98.7067945,83.3826975 L98.7067945,1.22105263 L1.18352619,1.22105263 Z" id="Fill-3" fill="#FFFFFF"></path>
                    <path d="M0,0 L0,100.231545 C0.000710115715,104.538398 1.47917103,108.460707 3.88764683,111.323927 C6.29280876,114.185496 9.65378644,115.99552 13.3691119,115.995049 L86.7590976,115.995049 C90.4756065,115.99552 93.8368209,114.185496 96.2407993,111.323927 C98.648565,108.460472 100.125606,104.537927 100.126316,100.231545 L100.126316,0 L98.8012399,0 L98.8005297,100.231545 C98.8012399,104.235902 97.4212483,107.864675 95.2239136,110.475146 C93.023265,113.08774 90.0320209,114.673545 86.7590976,114.674252 L13.3691119,114.674252 C10.0973721,114.673545 7.10541784,113.08774 4.90429583,110.475146 C2.70625099,107.864439 1.32507592,104.235431 1.32578604,100.231545 L1.32578604,0 L0,0 Z" id="Fill-5" fill="#149DE2"></path>
                    <path d="M9.74977041,83.7712626 L11.6952508,83.580287 C11.809106,84.2241813 12.0462846,84.6924252 12.4063133,84.9942138 C12.766342,85.2948236 13.2456701,85.4459537 13.856843,85.4459537 C14.4980775,85.4459537 14.9837966,85.3141569 15.3113967,85.040661 C15.6378132,84.7749455 15.8009031,84.4616041 15.8009031,84.1067667 C15.8009031,83.8757098 15.7298916,83.6821407 15.593786,83.5185146 C15.4576805,83.3558317 15.2169513,83.2153114 14.8749122,83.0978967 C14.6391538,83.0203276 14.1056202,82.8772138 13.2754949,82.6735065 C12.2003797,82.4113276 11.4516811,82.0927992 11.0189839,81.7110837 C10.4104147,81.1768236 10.1086156,80.5253846 10.1086156,79.7579455 C10.1086156,79.2609374 10.2485083,78.7978805 10.5361052,78.3708967 C10.8196781,77.9361325 11.2315452,77.6069943 11.7728901,77.382539 C12.3104477,77.1580837 12.9580732,77.0460919 13.7183704,77.0460919 C14.9643868,77.0460919 15.8955852,77.314165 16.5275882,77.8484252 C17.1532001,78.3836285 17.4848242,79.0933033 17.5158326,79.9913602 L15.5173302,80.0724659 C15.4306961,79.5759293 15.2491432,79.2133114 14.9693576,79.0006447 C14.6857847,78.7799618 14.2635026,78.6715065 13.6989606,78.6715065 C13.1173758,78.6715065 12.6600613,78.7851488 12.335065,79.019978 C12.123924,79.1732301 12.0190635,79.3771732 12.0190635,79.6261488 C12.0190635,79.8569699 12.1187164,80.0493602 12.3156552,80.2144008 C12.5656159,80.4209374 13.1793926,80.6376122 14.1522511,80.8634821 C15.1236894,81.0879374 15.8463505,81.3225309 16.3112396,81.5625472 C16.7763654,81.8037423 17.1416016,82.1314659 17.4057646,82.5494902 C17.6687442,82.9701081 17.8008257,83.4836203 17.8008257,84.0963927 C17.8008257,84.6537585 17.6441268,85.1788236 17.3255216,85.6638073 C17.0121238,86.1490268 16.5664079,86.5099943 15.9888471,86.7424659 C15.4136534,86.983661 14.6973833,87.0982463 13.8322257,87.0982463 C12.5838422,87.0982463 11.6213987,86.8172057 10.9505761,86.248287 C10.2780965,85.6831407 9.87924818,84.8522789 9.74977041,83.7712626 Z M20.889829,82.0385715 L19.163301,81.7327748 C19.3602398,81.0504496 19.6930474,80.5473114 20.1645642,80.2221813 C20.6384481,79.8946935 21.3381488,79.7305959 22.2705307,79.7305959 C23.1200658,79.7305959 23.747098,79.8312707 24.1627524,80.0248398 C24.5760397,80.2221813 24.8726314,80.4711569 25.0371415,80.7757748 C25.2080427,81.0775634 25.2934933,81.6323358 25.2934933,82.4424496 L25.2714797,84.6162707 C25.2714797,85.2316366 25.3027248,85.6909211 25.3647416,85.9837504 C25.4229711,86.2739862 25.537063,86.594165 25.7027567,86.9320268 L23.8235538,86.9320268 C23.7795266,86.8056528 23.7120656,86.6198642 23.6396338,86.3786691 L23.5747766,86.159165 C23.2521473,86.4727423 22.9065577,86.6997911 22.536114,86.8544577 C22.168274,87.0093602 21.7720295,87.0869293 21.3547181,87.0869293 C20.615251,87.0869293 20.0324827,86.8905309 19.6075968,86.4984415 C19.1801071,86.1037585 18.9703863,85.6109943 18.9703863,85.0083602 C18.9703863,84.6084902 19.0674354,84.2538886 19.2605869,83.9452626 C19.4520814,83.6281488 19.7266595,83.3944984 20.0739061,83.2256854 C20.4197324,83.0604089 20.9248614,82.9198886 21.582902,82.7944577 C22.4712567,82.6308317 23.0852701,82.4733358 23.4296762,82.3365878 L23.4296762,82.1507992 C23.4296762,81.7898317 23.3364144,81.5406203 23.1577019,81.3833602 C22.9778059,81.2336447 22.6357669,81.1560756 22.1372656,81.1560756 C21.7978303,81.1560756 21.5336673,81.220913 21.3471436,81.3510593 C21.1580161,81.4786122 21.0065247,81.7084902 20.889829,82.0385715 Z M23.4296762,83.5505797 C23.1863433,83.6281488 22.7988568,83.722222 22.2705307,83.8318561 C21.7445717,83.9452626 21.4015858,84.0523033 21.2396794,84.1558073 C20.9923224,84.3324008 20.8678155,84.5504902 20.8678155,84.8136122 C20.8678155,85.0741407 20.9662848,85.3011894 21.1632236,85.4883927 C21.3613459,85.6779537 21.6139104,85.7774496 21.9206804,85.7774496 C22.2627194,85.7774496 22.5905562,85.6638073 22.8999299,85.4459537 C23.1281138,85.2769049 23.2807887,85.0717829 23.3520369,84.8239862 C23.4024551,84.6693195 23.4296762,84.3672951 23.4296762,83.9183846 L23.4296762,83.5505797 Z M26.9890129,87.3939049 L29.1558127,87.6532545 C29.1946323,87.8996366 29.2777159,88.0672707 29.4057734,88.160165 C29.5844859,88.296913 29.8735029,88.3601 30.258149,88.3601 C30.7528629,88.3601 31.1221231,88.2905472 31.3718471,88.1408317 C31.538961,88.044165 31.6646515,87.8880837 31.7515223,87.6725878 C31.807148,87.5165065 31.8381564,87.2300431 31.8381564,86.8157911 L31.8381564,85.7890024 C31.270774,86.5488967 30.5533204,86.9320268 29.6881627,86.9320268 C28.7233522,86.9320268 27.9604512,86.5293276 27.396856,85.7310024 C26.9577678,85.093474 26.737632,84.310474 26.737632,83.3687992 C26.737632,82.1897016 27.0304363,81.289287 27.6079971,80.664726 C28.1843744,80.0415797 28.9058519,79.7305959 29.7631983,79.7305959 C30.6503695,79.7305959 31.3810786,80.1125472 31.9612432,80.8776285 L31.9612432,79.8892707 L33.7358223,79.8892707 L33.7358223,86.2056122 C33.7358223,87.0338805 33.6683613,87.655848 33.5258648,88.0672707 C33.3871555,88.4801081 33.1930572,88.8026447 32.9390725,89.037474 C32.686508,89.269474 32.3510967,89.451726 31.9328385,89.5844659 C31.5079526,89.7186203 30.9756025,89.7858154 30.3331845,89.7858154 C29.1143892,89.7858154 28.2544391,89.5792789 27.7441026,89.174222 C27.2363699,88.763978 26.9823852,88.2464577 26.9823852,87.619539 L26.9890129,87.3939049 Z M28.6842958,83.2629374 C28.6842958,84.0112789 28.8293961,84.5608642 29.123384,84.9041488 C29.4225795,85.2486122 29.7826081,85.4226122 30.2164888,85.4226122 C30.6790109,85.4226122 31.0752554,85.2420106 31.3926772,84.888352 C31.7098622,84.5363439 31.8717686,84.0086854 31.8717686,83.3093846 C31.8717686,82.5843846 31.7176735,82.041165 31.4132705,81.6851488 C31.1065005,81.3303114 30.7178305,81.1560756 30.2515212,81.1560756 C29.7956269,81.1560756 29.4225795,81.3291325 29.123384,81.6787829 C28.8293961,82.0232463 28.6842958,82.5494902 28.6842958,83.2629374 Z M31.4030922,77.0460919 L32.3212718,77.0460919 C32.2746409,77.6470756 32.0571088,78.1205065 31.6800373,78.4623764 C31.3032026,78.8044821 30.8174834,78.9721163 30.2164888,78.9721163 C29.6169145,78.9721163 29.1311953,78.8044821 28.7543606,78.4623764 C28.3801296,78.1205065 28.1663848,77.6470756 28.1105223,77.0460919 L29.0341462,77.0460919 C29.0677583,77.3632057 29.1792465,77.5956772 29.3733448,77.7607179 C29.5664963,77.9217504 29.8488856,78.0030919 30.2164888,78.0030919 C30.5883528,78.0030919 30.8641144,77.9217504 31.0598696,77.7607179 C31.2513641,77.5956772 31.3692433,77.3632057 31.4030922,77.0460919 Z M35.6138417,86.9282545 L37.5112709,86.9282545 L37.5112709,77.2125472 L35.6138417,77.2125472 L35.6138417,86.9282545 Z M40.8774561,82.0385715 L39.1587393,81.7327748 C39.3490503,81.0504496 39.6780706,80.5473114 40.1533747,80.2221813 C40.6234713,79.8946935 41.3281428,79.7305959 42.2645488,79.7305959 C43.1076928,79.7305959 43.7385123,79.8312707 44.1544034,80.0248398 C44.5660338,80.2221813 44.8576546,80.4711569 45.0285558,80.7757748 C45.1942495,81.0775634 45.2811203,81.6323358 45.2811203,82.4424496 L45.2576865,84.6162707 C45.2576865,85.2316366 45.2889316,85.6909211 45.3509484,85.9837504 C45.4132018,86.2739862 45.5284773,86.594165 45.6918039,86.9320268 L43.8149681,86.9320268 C43.7669169,86.8056528 43.7049001,86.6198642 43.6310481,86.3786691 L43.5624036,86.159165 C43.2411946,86.4727423 42.893948,86.6997911 42.5261081,86.8544577 C42.1544808,87.0093602 41.7620235,87.0869293 41.3437654,87.0869293 C40.6040615,87.0869293 40.0186895,86.8905309 39.5952238,86.4984415 C39.1703379,86.1037585 38.9591968,85.6109943 38.9591968,85.0083602 C38.9591968,84.6084902 39.0538789,84.2538886 39.2479772,83.9452626 C39.4423122,83.6281488 39.713103,83.3944984 40.0639002,83.2256854 C40.412567,83.0604089 40.913672,82.9198886 41.5728961,82.7944577 C42.4588838,82.6308317 43.0755009,82.4733358 43.4173033,82.3365878 L43.4173033,82.1507992 C43.4173033,81.7898317 43.3214377,81.5406203 43.1465125,81.3833602 C42.9625925,81.2336447 42.6271812,81.1560756 42.1260762,81.1560756 C41.7866409,81.1560756 41.5250816,81.220913 41.3359541,81.3510593 C41.1468266,81.4786122 40.9953353,81.7084902 40.8774561,82.0385715 Z M43.4173033,83.5505797 C43.1725501,83.6281488 42.787904,83.722222 42.2645488,83.8318561 C41.7336189,83.9452626 41.3930001,84.0523033 41.2296735,84.1558073 C40.9823165,84.3324008 40.8568627,84.5504902 40.8568627,84.8136122 C40.8568627,85.0741407 40.9539119,85.3011894 41.1506139,85.4883927 C41.35134,85.6779537 41.6027209,85.7774496 41.9083074,85.7774496 C42.2569742,85.7774496 42.5779465,85.6638073 42.8887405,85.4459537 C43.1218951,85.2769049 43.272203,85.0717829 43.3408475,84.8239862 C43.3915024,84.6693195 43.4173033,84.3672951 43.4173033,83.9183846 L43.4173033,83.5505797 Z M47.0088319,79.8892707 L48.7599772,79.8892707 L48.7599772,80.8505146 C49.3855892,80.1047667 50.1302638,79.7305959 50.9982619,79.7305959 C51.4553398,79.7305959 51.8556083,79.8183033 52.1898361,80.0081 C52.5302182,80.1938886 52.8062165,80.4737504 53.0213816,80.8505146 C53.3347793,80.4737504 53.6751615,80.1938886 54.0418179,80.0081 C54.4058705,79.8183033 54.7957241,79.7305959 55.212562,79.7305959 C55.7411248,79.7305959 56.1854205,79.8376366 56.548053,80.0493602 C56.9132891,80.255661 57.1840799,80.5652301 57.3639759,80.9691081 C57.4948739,81.2699537 57.5635184,81.7575309 57.5635184,82.4283033 L57.5635184,86.9320268 L55.6634855,86.9320268 L55.6634855,82.9043276 C55.6634855,82.2062057 55.597208,81.7575309 55.4667834,81.5559455 C55.290438,81.289287 55.0210675,81.1560756 54.6596186,81.1560756 C54.3890645,81.1560756 54.1417075,81.2336447 53.9059491,81.3923195 C53.6751615,81.5559455 53.504497,81.7844089 53.4008201,82.0927992 C53.2985634,82.4009537 53.2453048,82.8861732 53.2453048,83.5505797 L53.2453048,86.9320268 L51.3452718,86.9320268 L51.3452718,83.0693683 C51.3452718,82.3844496 51.3128432,81.9430837 51.2456189,81.7431488 C51.1769744,81.5484008 51.0706937,81.3975065 50.9296174,81.3046122 C50.7842804,81.2051163 50.5991769,81.1560756 50.3558439,81.1560756 C50.0590156,81.1560756 49.7986398,81.2336447 49.5643016,81.3859537 C49.3287799,81.5460431 49.1614293,81.7664902 49.0605929,82.0604984 C48.9595197,82.3521488 48.906261,82.8307667 48.906261,83.5055472 L48.906261,86.9320268 L47.0088319,86.9320268 L47.0088319,79.8892707 Z M71.7279599,86.9320268 L69.5507451,86.9320268 L68.686771,84.7183602 L64.7274025,84.7183602 L63.9088757,86.9320268 L61.791074,86.9320268 L65.6481858,77.2125472 L67.7619636,77.2125472 L71.7279599,86.9320268 Z M68.0469567,83.0887016 L66.6804574,79.4752545 L65.3423627,83.0887016 L68.0469567,83.0887016 Z M72.7744337,78.9386366 L74.6706794,78.9386366 L74.6706794,77.2125472 L72.7744337,77.2125472 L72.7744337,78.9386366 Z M72.7744337,86.9320268 L74.6706794,86.9320268 L74.6706794,79.8892707 L72.7744337,79.8892707 L72.7744337,86.9320268 Z M76.6185268,86.9282545 L78.5161927,86.9282545 L78.5161927,77.2125472 L76.6185268,77.2125472 L76.6185268,86.9282545 Z M86.7173191,83.3558317 C86.7173191,84.4137423 86.4439245,85.2844496 85.8999759,85.9681894 C85.2977978,86.7165309 84.4778508,87.0869293 83.4261695,87.0869293 C82.2085577,87.0869293 81.3123917,86.6689049 80.7308069,85.8276691 C80.2323057,85.1024333 79.9913398,84.1197341 80.0119331,82.8732057 L84.7718387,82.8732057 C84.7590567,82.372661 84.6227144,81.9652463 84.3703867,81.647661 C84.0932048,81.2982463 83.7057184,81.1237748 83.2150284,81.1237748 C82.6088263,81.1237748 82.2073742,81.4569211 82.0066482,82.1314659 L80.1118227,81.8181244 C80.6115075,80.4324902 81.6541941,79.7305959 83.237042,79.7305959 C84.4868456,79.7305959 85.4128365,80.129287 86.0060199,80.9318561 C86.4775367,81.5677341 86.7173191,82.3752545 86.7173191,83.3558317 Z M84.7342026,84.0136366 L81.9003675,84.0136366 C81.9119661,84.4717423 82.0298453,84.8522789 82.2499811,85.1505309 C82.5077531,85.4909862 82.862811,85.6638073 83.3120775,85.6638073 C83.7705756,85.6638073 84.1282372,85.4959374 84.3857725,85.161848 C84.6227144,84.8574659 84.7408304,84.4743358 84.7342026,84.0136366 Z" id="Fill-7" fill="#007DC4"></path>
                    <path d="M88.0693794,72.9821309 C88.6405492,72.9847244 89.1613007,73.2143667 89.5369519,73.5807569 C89.9088158,73.9471472 90.1377098,74.4540577 90.1377098,75.0076512 L90.1377098,75.0166106 C90.1377098,75.5739764 89.9059754,76.0820659 89.5317444,76.4486919 C89.1598805,76.8150821 88.6405492,77.0421309 88.0734034,77.0421309 L88.0734034,77.0435455 L88.0693794,77.0435455 L88.0667757,77.0435455 L88.0667757,77.0421309 C87.4982097,77.0421309 86.9814821,76.8150821 86.6084347,76.4458626 C86.2368075,76.0820659 86.0060199,75.5739764 86.0060199,75.0166106 L86.0060199,75.0126024 C86.0060199,74.4540577 86.2368075,73.9471472 86.6084347,73.5807569 C86.9826657,73.2143667 87.4982097,72.9847244 88.0667757,72.9821309 L88.0693794,72.9821309 Z M88.0693794,73.3162203 L88.0667757,73.3162203 C87.5952588,73.3162203 87.1654021,73.5074317 86.8479804,73.8129927 C86.5383699,74.1225618 86.3416679,74.5471878 86.3416679,75.0126024 L86.3416679,75.0166106 C86.3416679,75.4862691 86.5383699,75.9066512 86.8479804,76.2112691 C87.1613781,76.5196593 87.5952588,76.7094561 88.0667757,76.7094561 L88.0693794,76.7094561 L88.0734034,76.7094561 C88.5524948,76.7094561 88.9799845,76.5196593 89.2921987,76.2112691 C89.6067799,75.9066512 89.8011149,75.4862691 89.8011149,75.0166106 L89.8011149,75.0076512 C89.8011149,74.5471878 89.6067799,74.1225618 89.2921987,73.8129927 C88.9799845,73.5074317 88.5449202,73.3162203 88.0693794,73.3162203 Z" id="Fill-9" fill="#007DC4"></path>
                    <path d="M87.0578196,76.1208504 L87.0578196,73.9071837 L88.0150556,73.9071837 C88.2583886,73.9071837 88.4335504,73.9239236 88.5421981,73.9640049 L88.8051777,74.1780862 C88.8712184,74.2799398 88.9008066,74.3961756 88.9008066,74.5277366 C88.9008066,74.6953707 88.8518086,74.8321187 88.751919,74.9391593 C88.6534496,75.0450211 88.5057455,75.1133951 88.3076232,75.1442813 L88.5523765,75.3300699 C88.6172337,75.3960862 88.7015008,75.5160943 88.8101485,75.6886797 L89.0873303,76.1208504 L88.5421981,76.1208504 L88.2119943,75.6384602 C88.0941151,75.4679967 88.0136353,75.3585984 87.9736322,75.3133301 L87.8363431,75.2230293 L87.6046087,75.1999236 L87.5125303,75.1999236 L87.5125303,76.1208504 L87.0578196,76.1208504 Z M87.5125303,74.8436715 L87.8479417,74.8436715 C88.066894,74.8436715 88.2041831,74.8335333 88.2598088,74.8153789 L88.3892865,74.7236634 L88.4335504,74.5560293 L88.371297,74.3742488 L88.2027628,74.2877203 C88.1613394,74.2877203 88.0538752,74.2799398 87.8687717,74.2799398 L87.5125303,74.2799398 L87.5125303,74.8436715 Z" id="Fill-11" fill="#007DC4"></path>
                    <path d="M46.9026459,59.9727545 C56.8601251,59.9727545 64.9343775,51.9819577 64.9343775,42.1243154 C64.9343775,32.2744537 56.8601251,24.2796488 46.9026459,24.2796488 C36.9425629,24.2796488 28.8642865,32.2744537 28.8642865,42.1243154 C28.8642865,51.9819577 36.9425629,59.9727545 46.9026459,59.9727545" id="Fill-13" fill="#007DC4"></path>
                    <path d="M46.9026459,60.2605618 L46.9026459,60.265513 L46.9026459,60.2605618 C41.8409411,60.2605618 37.2585644,58.2298545 33.9416139,54.9479033 C30.6232431,51.665952 28.5755061,47.1351146 28.5755061,42.1242447 C28.5755061,37.1162041 30.6232431,32.5827732 33.9416139,29.3034154 C37.2585644,26.023822 41.8409411,23.9933504 46.9026459,23.9933504 L46.9026459,23.9907569 L46.9052496,23.9907569 L46.9052496,23.9933504 C51.9605634,23.9933504 56.5415199,26.023822 59.8587071,29.3034154 C63.1808651,32.5827732 65.2259984,37.1162041 65.2259984,42.1242447 L65.2297857,42.1242447 L65.2259984,42.1242447 C65.2259984,47.1351146 63.1808651,51.665952 59.8587071,54.9479033 C56.5415199,58.2298545 51.9605634,60.2605618 46.9026459,60.2605618 Z M46.9026459,59.6852772 L46.9026459,59.6862203 C51.8048114,59.6862203 56.2385372,57.7215293 59.4480235,54.5402528 C62.6589301,51.3601553 64.6482009,46.9712528 64.6482009,42.1242447 C64.6482009,37.2800659 62.6589301,32.8937569 59.4480235,29.7122447 C56.2385372,26.5321472 51.8048114,24.5672203 46.9052496,24.5672203 L46.9026459,24.5672203 C42.0056879,24.5672203 37.5669913,26.5321472 34.359872,29.7122447 C31.1451782,32.8937569 29.1608782,37.2800659 29.1608782,42.1242447 C29.1608782,46.9712528 31.1451782,51.3601553 34.359872,54.5402528 C37.5669913,57.7215293 42.0004804,59.6862203 46.9026459,59.6862203 L46.9026459,59.6852772 Z" id="Fill-15" fill="#FFFFFF"></path>
                    <path d="M46.9026459,30.2618772 C50.7195178,30.2618772 53.8163325,26.2084789 53.8163325,21.2065683 C53.8163325,16.2063081 50.7195178,12.1552675 46.9026459,12.1552675 C43.0831702,12.1552675 39.9901428,16.2063081 39.9901428,21.2065683 C39.9901428,26.2084789 43.0831702,30.2618772 46.9026459,30.2618772" id="Fill-17" fill="#007DC4"></path>
                    <path d="M46.9026459,30.5508163 L46.9026459,30.5571821 L46.9026459,30.5508163 C44.8951488,30.5508163 43.0883777,29.4929057 41.7763205,27.7835561 C40.496692,26.0961333 39.7013624,23.7700033 39.6975751,21.2118732 L39.6975751,21.2066862 C39.7013624,18.6431333 40.496692,16.3158244 41.7763205,14.6284016 C43.0883777,12.9268325 44.8951488,11.8703366 46.9026459,11.8703366 L46.9026459,11.8663285 L46.9052496,11.8663285 L46.9052496,11.8703366 C48.9089595,11.8703366 50.7195178,12.9268325 52.0202131,14.6284016 C53.31002,16.3158244 54.1053496,18.6431333 54.1053496,21.2066862 L54.1053496,21.2118732 C54.1053496,23.7700033 53.31002,26.0961333 52.0202131,27.7835561 C50.7195178,29.4929057 48.9089595,30.5508163 46.9026459,30.5508163 Z M46.9026459,29.9715236 L46.9026459,29.9729382 C48.709417,29.9715236 50.3583057,28.9961333 51.5565076,27.4364992 C52.7700953,25.8497512 53.5211611,23.6448081 53.5211611,21.2118732 L53.5211611,21.2066862 C53.5211611,18.7746943 52.7700953,16.5739951 51.5565076,14.978052 C50.3583057,13.4106374 48.709417,12.4442065 46.9052496,12.4442065 L46.9026459,12.4442065 C45.0920875,12.4442065 43.4446191,13.4106374 42.2438134,14.978052 C41.0314092,16.5739951 40.2791599,18.7746943 40.2791599,21.2066862 L40.2791599,21.2118732 C40.2791599,23.6448081 41.0314092,25.8497512 42.2438134,27.4364992 C43.4446191,28.9961333 45.0920875,29.9715236 46.9026459,29.9729382 L46.9026459,29.9715236 Z" id="Fill-19" fill="#FFFFFF"></path>
                    <path d="M56.1116158,59.2104081 C63.7676101,59.2104081 69.9780454,53.0591073 69.9780454,45.486335 C69.9780454,37.906961 63.7676101,31.7660341 56.1116158,31.7660341 C48.4542014,31.7660341 42.2425825,37.906961 42.2425825,45.486335 C42.2425825,53.0591073 48.4542014,59.2104081 56.1116158,59.2104081" id="Fill-21" fill="#007DC4"></path>
                    <path d="M56.1116158,59.4993707 C52.197458,59.4941837 48.6615552,57.9305415 46.0982741,55.3955171 C43.5364133,52.8630862 41.9523819,49.3564439 41.9523819,45.4862407 C41.9523819,41.6200455 43.5364133,38.1134033 46.0982741,35.5783789 C48.6615552,33.045948 52.197458,31.4745252 56.1116158,31.4745252 L56.1165866,31.4745252 C60.0179624,31.4771187 63.5602563,33.045948 66.1221171,35.5783789 C68.6839779,38.1134033 70.2706131,41.6212244 70.2746371,45.4862407 C70.2706131,49.3564439 68.6839779,52.8604927 66.1221171,55.3955171 C63.5602563,57.9305415 60.0179624,59.4993707 56.1116158,59.4993707 M56.1116158,58.920078 C59.8586598,58.920078 63.2506458,57.4170293 65.7130904,54.9840943 C68.1660668,52.5535171 69.6890283,49.1939967 69.6890283,45.4862407 C69.6890283,41.7773057 68.1660668,38.4192 65.7130904,35.9848504 C63.2506458,33.555452 59.8586598,32.0524033 56.1165866,32.0524033 L56.1116158,32.0524033 C52.3631517,32.0524033 48.9647746,33.555452 46.5101413,35.9848504 C44.0545611,38.4192 42.5325464,41.7773057 42.5325464,45.4862407 C42.5325464,49.1939967 44.0545611,52.5535171 46.5101413,54.9840943 C48.9699821,57.4170293 52.3631517,58.920078 56.1116158,58.920078" id="Fill-23" fill="#FFFFFF"></path>
                    <path d="M56.4017218,36.7846374 C60.2185937,36.7846374 63.3168286,32.7324179 63.3168286,27.7333366 C63.3168286,22.7340195 60.2185937,18.6820358 56.4017218,18.6820358 C52.5834296,18.6820358 49.4840112,22.7340195 49.4840112,27.7333366 C49.4840112,32.7324179 52.5834296,36.7846374 56.4017218,36.7846374" id="Fill-25" fill="#007DC4"></path>
                    <path d="M56.4017218,37.068413 L56.4017218,37.0747789 L56.399118,37.0747789 L56.399118,37.068413 C54.3965917,37.068413 52.5834296,36.0171041 51.2843912,34.3063398 C49.9891402,32.6238683 49.1990181,30.297974 49.1990181,27.7358358 L49.1990181,27.7332423 C49.1990181,25.1621447 49.9891402,22.8426163 51.2843912,21.1601447 C52.5834296,19.4522098 54.3965917,18.3942992 56.399118,18.3942992 L56.4017218,18.3942992 C58.4132429,18.3942992 60.2185937,19.4522098 61.5202358,21.1601447 C62.8076756,22.8426163 63.6044255,25.1621447 63.6044255,27.7332423 L63.6093963,27.7332423 L63.6093963,27.7358358 L63.6044255,27.7358358 C63.6044255,30.297974 62.8076756,32.6238683 61.5202358,34.3063398 C60.2185937,36.0171041 58.4132429,37.068413 56.4017218,37.068413 Z M56.399118,36.4931285 L56.4017218,36.4931285 L56.4017218,36.4983154 C58.2137004,36.4983154 59.8585651,35.5266976 61.0593708,33.9581041 C62.2729585,32.3685268 63.0216572,30.1624049 63.026628,27.7358358 L63.0216572,27.7358358 L63.0216572,27.7332423 L63.026628,27.7332423 C63.026628,25.297478 62.2729585,23.0913561 61.0593708,21.5083805 C59.8585651,19.9371935 58.2137004,18.9669902 56.4017218,18.9669902 L56.399118,18.9669902 C54.5921102,18.9669902 52.9448785,19.9371935 51.749517,21.5083805 C50.5319053,23.0913561 49.7832066,25.297478 49.7832066,27.7332423 L49.7832066,27.7358358 C49.7832066,30.1624049 50.5319053,32.3685268 51.749517,33.9581041 C52.9448785,35.5266976 54.5921102,36.4931285 56.399118,36.4983154 L56.399118,36.4931285 Z" id="Fill-27" fill="#FFFFFF"></path>
                    <path d="M40.0303354,44.9044959 L40.3853932,45.0360569 L40.7660152,45.1327236 L40.0303354,44.9044959 Z M40.7660152,45.1327236 C43.1193387,45.6823089 45.475266,44.2464553 46.0400447,41.9191463 C46.332849,40.7091626 46.0762606,39.4937561 45.4364463,38.5261463 C44.8406592,37.645065 43.9198758,36.9702846 42.7981297,36.7007967 C40.4448062,36.1486179 38.0836715,37.5766911 37.5229168,39.9117805 C37.0473759,41.8623252 37.9994044,43.8206504 39.6998948,44.7290813 L40.7660152,45.1327236 Z" id="Fill-29" fill="#007DC4"></path>
                    <path d="M40.7012764,45.412774 L40.6986726,45.412774 C40.4032645,45.3352049 40.1248991,45.2451398 39.8697309,45.1329122 L39.713032,45.0605301 L39.5601204,44.9857902 L39.5601204,44.9780098 C38.2558745,44.2890829 37.364916,43.0055382 37.156142,41.5708634 C37.1149553,41.2921805 37.096729,41.0097252 37.1149553,40.7143024 C37.1303411,40.4252455 37.16419,40.1312374 37.2366218,39.8433593 L37.2366218,39.8407659 C37.5358172,38.5984813 38.3167078,37.5947984 39.3359605,36.9794325 C40.351426,36.3600585 41.6052537,36.1266439 42.8628686,36.4157008 C43.7254225,36.620587 44.4819324,37.0541724 45.0673045,37.628278 L45.3925375,37.9817008 C45.4895866,38.1005301 45.584032,38.2309122 45.6749268,38.3662455 L45.6761103,38.3662455 C46.1748483,39.1079854 46.4520301,39.9841154 46.4520301,40.9064569 C46.4520301,41.0818715 46.4442188,41.2638878 46.4222053,41.4418959 C46.3987714,41.6236764 46.3665795,41.8019203 46.3249194,41.9837008 C45.8924589,43.7717984 44.4663099,45.0671317 42.7672397,45.4347008 C42.4356156,45.5030748 42.0935766,45.539148 41.7451465,45.5327821 C41.3981366,45.5301886 41.0459192,45.4889285 40.7012764,45.412774 M40.8345414,44.8478634 C41.1467556,44.9211886 41.4511586,44.9560829 41.750354,44.9612699 C42.0547569,44.9612699 42.3499283,44.9289691 42.6415492,44.8671967 C44.1323188,44.5484325 45.3783352,43.416961 45.7577737,41.8521398 C45.7913858,41.6894569 45.8174234,41.5321967 45.841804,41.3761154 C45.8640543,41.2148472 45.8716289,41.0535789 45.8716289,40.9064569 C45.8664214,40.0987008 45.6204846,39.3364488 45.1918114,38.6876033 L45.1866039,38.6876033 L44.9404305,38.3495057 L44.6542538,38.0411154 C44.1398934,37.5339691 43.4806693,37.1626276 42.7269998,36.982026 L42.7269998,36.9794325 C41.629871,36.7238553 40.5289549,36.929213 39.6417837,37.4736114 C38.7482214,38.0140016 38.0681673,38.8861236 37.8077915,39.9723268 L37.802584,39.9723268 L37.802584,39.9737415 L37.8077915,39.9737415 C37.7443545,40.2342699 37.7079019,40.491026 37.6951198,40.7388228 C37.6832846,40.9875626 37.7003273,41.241961 37.7325193,41.4869285 C37.9140722,42.744774 38.6937792,43.8606846 39.8387225,44.4760504 L39.8425098,44.4760504 L39.9719875,44.5392374 L40.1028855,44.6012455 C40.3346199,44.7082862 40.5770061,44.7884488 40.8345414,44.8478634" id="Fill-31" fill="#FFFFFF"></path>
                    <path d="M40.7660152,45.1327943 C43.1193387,45.6823797 45.4755027,44.246526 46.0400447,41.9192171 C46.332849,40.7038106 46.0802845,39.4938268 45.4364463,38.5236236 C44.8368719,37.6373553 43.9160886,36.9639894 42.795526,36.7006317 C40.44741,36.1458593 38.078464,37.5843065 37.5229168,39.9116154 C37.0476127,41.8623959 37.9968007,43.8207211 39.7013151,44.729152 L40.7660152,45.1327943 Z M39.7013151,44.729152 C39.2610433,47.2085341 41.1312514,48.7271439 43.9691105,49.6339244 C46.8831887,50.5704122 48.8584939,50.6246398 51.6277085,52.1496154 C54.6284208,53.5442089 57.4172819,54.1803228 59.3338842,50.7293228 L60.0527581,47.7569407 L59.0427368,47.3712171 L58.4183084,45.2735504 L56.8849319,46.0473553 L55.6647163,43.8994691 L52.5070685,43.3576642 C51.5266354,43.3123959 46.4611433,36.1743878 45.6385926,38.5905829 L45.4364463,38.5236236 L39.7013151,44.729152 Z" id="Fill-33" fill="#007DC4"></path>
                    <path d="M40.8502586,44.8502919 C41.1532413,44.9238528 41.4550405,44.9561537 41.7504487,44.9613407 C42.0522478,44.9665276 42.3526268,44.9264463 42.6388034,44.8670317 C44.1321768,44.5419016 45.3781931,43.4182106 45.7576316,41.8470236 C45.7914805,41.6869341 45.8172814,41.529674 45.8392949,41.372178 C45.8639123,41.2071374 45.8717236,41.0600154 45.8717236,40.9062919 C45.866516,40.1027797 45.6203426,39.3351049 45.1916694,38.6836659 L45.1864619,38.6836659 L44.9353176,38.3469829 L44.6541118,38.042365 C44.139988,37.538048 43.4845512,37.1575114 42.724254,36.9795033 L42.724254,36.976674 L42.724254,36.9795033 C41.6273619,36.7201537 40.5290496,36.929048 39.6418784,37.4656659 C38.7506832,38.0114789 38.068262,38.8939748 37.8076495,39.9723976 L37.8026787,39.9723976 L37.8026787,39.9735764 L37.8076495,39.9735764 C37.7442125,40.2369341 37.7053928,40.4910967 37.6949778,40.7438447 C37.6833793,40.9928203 37.7001853,41.2443894 37.7326139,41.488178 C37.9139302,42.7382431 38.6898499,43.8503813 39.8255617,44.4657472 L40.8502586,44.8502919 Z M40.7659916,45.1134138 L40.7659916,45.1327472 L40.7659916,45.1134138 Z M39.3606726,45.7379748 C39.3412627,45.4656577 39.3438665,45.1780154 39.3826862,44.881178 C38.1717022,44.1691455 37.3557792,42.9384138 37.1562367,41.5761211 C37.1136297,41.2922512 37.1032147,41.0072024 37.1136297,40.7193244 C37.1266485,40.4253163 37.1666517,40.1310724 37.2364798,39.8408366 L37.2364798,39.8368285 C37.5359119,38.5983163 38.3168025,37.596048 39.3360552,36.976674 C40.3489169,36.3601293 41.6053483,36.1241211 42.8629633,36.4207228 C43.7255172,36.6206577 44.4820271,37.0542431 45.0673992,37.6297634 L45.3923955,37.9817715 L45.5311047,38.1560073 C45.782249,37.7806577 46.1747063,37.7238366 46.6604254,37.8862837 C47.7083195,38.2307472 49.2263102,39.8266902 50.5151702,41.1826171 C51.4527597,42.1721537 52.2634751,43.0313081 52.5134358,43.0633732 L52.5264546,43.0633732 L52.5432607,43.0633732 L52.555096,43.0673813 L55.7139274,43.6157878 L55.8486126,43.6374789 L55.9172572,43.7589016 L57.0001836,45.6655927 L58.2783919,45.0193407 L58.5969972,44.8580724 L58.6940463,45.1973488 L59.2810753,47.1594463 L60.1578315,47.4885846 L60.3985607,47.575113 L60.3353604,47.8238528 L59.6179069,50.7950561 L59.6110424,50.8389098 L59.5892655,50.8749829 C58.5749836,52.6979748 57.3187889,53.4385358 55.9120497,53.5455764 C54.5339518,53.6486089 53.0431822,53.1287309 51.5045981,52.4166984 L51.4851883,52.4089179 C49.6822045,51.4156089 48.212265,51.0518122 46.5905974,50.6505276 C45.7524241,50.4454057 44.8704604,50.2313244 43.8784287,49.9139748 C41.7568397,49.2340073 40.1481909,48.2072187 39.5692099,46.6975683 C39.4603255,46.3957797 39.3878937,46.0746577 39.3606726,45.7379748 Z M39.9434409,45.1327472 C39.928055,45.3251374 39.9228475,45.5135195 39.9410738,45.6941211 C39.9656912,45.9739829 40.0265244,46.2448854 40.118366,46.4912675 C40.6223115,47.817487 42.0936713,48.7334626 44.0571412,49.3707553 C45.0259757,49.6751374 45.8975244,49.8880398 46.7264662,50.0919829 C48.3921609,50.5022268 49.8945291,50.8686171 51.7635536,51.898235 C53.2207111,52.5727797 54.6156151,53.064365 55.8668389,52.9700561 C57.0752192,52.8785764 58.1631165,52.2271374 59.0595192,50.6260073 L59.7083283,47.9349016 L58.9442438,47.6472593 L58.804351,47.5916171 L58.7626908,47.4525114 L58.238152,45.6941211 L57.0155695,46.3068935 L56.763005,46.4292593 L56.6271362,46.1880642 L55.4767487,44.1549992 L52.4566266,43.641487 C51.9967083,43.5860805 51.1081168,42.6597309 50.0888641,41.5810724 C48.8428477,40.2718285 47.381903,38.7312919 46.4753219,38.4295033 C46.2149462,38.3366089 46.0130366,38.3997959 45.9145672,38.6836659 L45.8975244,38.7364789 C46.2537658,39.391926 46.4521248,40.1310724 46.4521248,40.9062919 C46.4521248,41.0871293 46.4440768,41.2639585 46.4222999,41.4417309 C46.3962624,41.6263407 46.3664375,41.8069423 46.3250141,41.9837715 C45.8923169,43.7718691 44.4664046,45.0643732 42.7670977,45.432178 C42.4354736,45.5031455 42.0936713,45.5392187 41.7452411,45.5340317 C41.3979946,45.5340317 41.0457772,45.4979585 40.701371,45.4036496 L40.6677589,45.4036496 L40.6625514,45.3958691 L39.9434409,45.1327472 Z" id="Fill-35" fill="#FFFFFF"></path>
                    <path d="M57.0595966,69.4227463 C57.8561098,69.4227463 58.4831419,69.2447382 58.9338287,68.8861285 C59.3871193,68.5286976 59.6138829,68.0359333 59.6138829,67.4191528 C59.6138829,67.0103236 59.4791976,66.667039 59.205803,66.3871772 C58.9364325,66.104722 58.5636217,65.9330797 58.0984959,65.8762585 L58.0984959,65.8517382 C58.9740686,65.6350634 59.4155239,65.0956163 59.4155239,64.2312748 C59.4155239,63.7491203 59.2263964,63.3542016 58.8495617,63.0498195 C58.4701232,62.7440228 57.9417971,62.5917138 57.2655302,62.5917138 C56.6451258,62.5917138 56.1025974,62.7103073 55.6374716,62.9439577 L55.6374716,64.1308358 C56.0585702,63.8469659 56.4898471,63.7036163 56.9327226,63.7036163 C57.5945505,63.7036163 57.9235708,63.9747545 57.9235708,64.5113724 C57.9235708,65.0802911 57.4948976,65.369348 56.632107,65.369348 L56.0649612,65.369348 L56.0649612,66.4812504 L56.6763709,66.4812504 C57.1282412,66.4812504 57.4818788,66.5625919 57.7382306,66.7186732 C57.9960026,66.8761691 58.1269006,67.1069902 58.1269006,67.4050065 C58.1269006,67.6822748 58.0218034,67.9067301 57.8123193,68.0682341 C57.603782,68.2318602 57.3161851,68.3080146 56.9431377,68.3080146 C56.3499543,68.3080146 55.8344103,68.1455675 55.3863273,67.8256244 L55.3863273,69.0936081 C55.8176043,69.3116976 56.3733882,69.4227463 57.0595966,69.4227463 M53.0393949,66.0080553 C53.0393949,67.5457626 52.7375957,68.3080146 52.1339973,68.3080146 C51.5135929,68.3080146 51.2042192,67.5676894 51.2042192,66.0764293 C51.2042192,64.4946325 51.5188004,63.7036163 52.1510401,63.7036163 C52.7428032,63.7036163 53.0393949,64.4686976 53.0393949,66.0080553 M53.896978,68.5286976 C54.3164196,67.932665 54.5289809,67.0810553 54.5289809,65.9613724 C54.5289809,63.7128114 53.7606357,62.5917138 52.2168442,62.5917138 C51.403525,62.5917138 50.7843041,62.8960959 50.3608384,63.4923642 C49.9335854,64.093348 49.7172369,64.9668846 49.7172369,66.1110878 C49.7172369,68.3195675 50.5111462,69.4227463 52.0859462,69.4227463 C52.8684937,69.4227463 53.4770629,69.1259089 53.896978,68.5286976 M47.5916238,66.0080553 C47.5916238,67.5457626 47.2900613,68.3080146 46.686463,68.3080146 C46.0686623,68.3080146 45.7576316,67.5676894 45.7576316,66.0764293 C45.7576316,64.4946325 46.0764736,63.7036163 46.7058728,63.7036163 C47.2976359,63.7036163 47.5916238,64.4686976 47.5916238,66.0080553 M48.4492069,68.5286976 C48.8700688,67.932665 49.0823934,67.0810553 49.0823934,65.9613724 C49.0823934,63.7128114 48.3119179,62.5917138 46.7693098,62.5917138 C45.9571741,62.5917138 45.3393735,62.8960959 44.913304,63.4923642 C44.4858144,64.093348 44.2760935,64.9668846 44.2760935,66.1110878 C44.2760935,68.3195675 45.0633752,69.4227463 46.6424358,69.4227463 C47.4259302,69.4227463 48.0295285,69.1259089 48.4492069,68.5286976 M40.5846754,67.8319902 L40.8346361,67.5379821 C40.9394965,67.4399008 41.0599795,67.3352179 41.1946648,67.2321854 C41.333374,67.1289171 41.4732668,67.028478 41.6235746,66.924974 C41.8411068,66.7703073 42.0546149,66.6179984 42.2593649,66.4595593 C42.4615112,66.2942829 42.6388034,66.1188683 42.7955023,65.9212911 C42.9536214,65.7279577 43.0752879,65.5176488 43.1725737,65.2790472 C43.2618116,65.0402098 43.3124665,64.7730797 43.3124665,64.4663398 C43.3124665,64.1812911 43.2618116,63.924535 43.1647625,63.693478 C43.0700804,63.4586488 42.929004,63.2624862 42.7424803,63.1012179 C42.5559566,62.9387707 42.3320334,62.8123967 42.0638464,62.7272829 C41.7996833,62.6355675 41.4952804,62.5917138 41.1598691,62.5917138 C40.439575,62.5917138 39.786742,62.7772667 39.2091812,63.1514374 L39.2091812,64.4286163 C39.7299327,63.9837138 40.2764851,63.7554862 40.8450511,63.7554862 C41.1778587,63.7554862 41.4214284,63.825039 41.580731,63.9695675 C41.7400336,64.1129171 41.8228805,64.3293561 41.8228805,64.6106325 C41.8228805,64.7565756 41.7996833,64.8945024 41.7478449,65.0182829 C41.6997937,65.1460715 41.6247582,65.2700878 41.5251053,65.3964618 C41.4214284,65.5202423 41.3023656,65.6442585 41.1546616,65.7718114 C41.0095613,65.894413 40.8358196,66.0285675 40.6431416,66.1676732 C40.4589849,66.3008846 40.2646499,66.4465919 40.0601365,66.6116325 C39.8530195,66.7752585 39.6664957,66.9664699 39.4927541,67.1767789 C39.3218529,67.3908602 39.1755691,67.6334699 39.0614771,67.9003642 C38.9476219,68.1712667 38.890576,68.4721122 38.890576,68.809974 L38.890576,69.3105187 L43.3020515,69.3105187 L43.3020515,68.1017138 L40.4928337,68.1017138 L40.5846754,67.8319902" id="Fill-37" fill="#007DC4"></path>
                </g>
                <path d="M33.3323434,106.874001 L33.3323434,105.123288 L37.9002954,105.123288 L37.9002954,109.262625 C37.4563856,109.687901 36.8132034,110.062375 35.9707295,110.386057 C35.1282555,110.70974 34.2750547,110.871579 33.4111012,110.871579 C32.3132598,110.871579 31.3562429,110.643587 30.5400217,110.187596 C29.7238005,109.731605 29.1104505,109.079525 28.6999533,108.231335 C28.2894561,107.383144 28.0842105,106.460545 28.0842105,105.463508 C28.0842105,104.381416 28.3133218,103.419833 28.7715513,102.578731 C29.2297807,101.737629 29.9004085,101.092636 30.7834549,100.643733 C31.4564794,100.298786 32.2941675,100.126316 33.2965444,100.126316 C34.5996344,100.126316 35.617509,100.396835 36.3501988,100.937881 C37.0828886,101.478927 37.5542374,102.226693 37.7642592,103.181203 L35.6592782,103.571037 C35.5113083,103.060706 35.2332722,102.65788 34.8251616,102.36255 C34.417051,102.067219 33.907517,101.919556 33.2965444,101.919556 C32.3705391,101.919556 31.6342804,102.210157 31.0877463,102.791368 C30.5412123,103.372579 30.2679493,104.234932 30.2679493,105.378453 C30.2679493,106.611755 30.5447921,107.536717 31.098486,108.153368 C31.65218,108.770018 32.377699,109.078339 33.275065,109.078339 C33.7189748,109.078339 34.1640712,108.992104 34.6103676,108.819631 C35.056664,108.647157 35.4397094,108.438066 35.7595154,108.192351 L35.7595154,106.874001 L33.3323434,106.874001 Z M41.766587,110.694381 L39.7546834,110.694381 L39.7546834,103.167027 L41.623391,103.167027 L41.623391,104.2373 C41.943197,103.731694 42.2307794,103.398566 42.4861468,103.237906 C42.7415143,103.077246 43.0314833,102.996917 43.3560625,102.996917 C43.8142919,102.996917 44.2558085,103.122135 44.6806253,103.372576 L44.0577228,105.109113 C43.7188239,104.891749 43.4037959,104.783069 43.1126293,104.783069 C42.8310091,104.783069 42.5923515,104.859854 42.3966494,105.013426 C42.2009472,105.166998 42.047013,105.444605 41.9348423,105.846255 C41.8226715,106.247905 41.766587,107.088994 41.766587,108.369549 L41.766587,110.694381 Z M45.0815741,106.824386 C45.0815741,106.162844 45.2462478,105.522577 45.5756003,104.903563 C45.9049527,104.28455 46.3715283,103.812028 46.975341,103.485983 C47.5791538,103.159937 48.2533615,102.996917 48.9979843,102.996917 C50.1483312,102.996917 51.0910286,103.366666 51.8261051,104.106174 C52.5611815,104.845683 52.9287141,105.780095 52.9287141,106.90944 C52.9287141,108.048236 52.5576016,108.992099 51.8153654,109.741058 C51.0731291,110.490017 50.1387846,110.864491 49.0123039,110.864491 C48.3154133,110.864491 47.6507519,110.708559 47.0182998,110.396689 C46.3858477,110.08482 45.9049527,109.627655 45.5756003,109.02518 C45.2462478,108.422705 45.0815741,107.689114 45.0815741,106.824386 Z M47.1435963,106.930704 C47.1435963,107.6773 47.3225895,108.249052 47.6805812,108.645977 C48.038573,109.042902 48.4800895,109.241361 49.0051441,109.241361 C49.5301987,109.241361 49.970522,109.042902 50.3261271,108.645977 C50.6817322,108.249052 50.8595321,107.672575 50.8595321,106.916528 C50.8595321,106.179383 50.6817322,105.612356 50.3261271,105.215431 C49.970522,104.818507 49.5301987,104.620047 49.0051441,104.620047 C48.4800895,104.620047 48.038573,104.818507 47.6805812,105.215431 C47.3225895,105.612356 47.1435963,106.184108 47.1435963,106.930704 Z M59.5085697,110.694381 L59.5085697,109.567405 C59.2317228,109.969054 58.8677699,110.285644 58.4167003,110.517184 C57.9656307,110.748723 57.4895088,110.864491 56.9883204,110.864491 C56.4775855,110.864491 56.0193629,110.753448 55.6136389,110.53136 C55.2079149,110.309271 54.9143661,109.997406 54.7329836,109.595756 C54.5516011,109.194106 54.4609112,108.638893 54.4609112,107.930099 L54.4609112,103.167027 L56.4728148,103.167027 L56.4728148,106.625924 C56.4728148,107.68439 56.5098067,108.332927 56.5837917,108.571554 C56.6577767,108.810181 56.7926182,108.99919 56.9883204,109.138586 C57.1840225,109.277982 57.4322264,109.347679 57.7329395,109.347679 C58.0766116,109.347679 58.3844799,109.254356 58.6565536,109.067707 C58.9286273,108.881058 59.1147803,108.649522 59.2150179,108.373093 C59.3152556,108.096663 59.3653737,107.419775 59.3653737,106.342408 L59.3653737,103.167027 L61.3772773,103.167027 L61.3772773,110.694381 L59.5085697,110.694381 Z M63.4035005,103.167027 L65.279368,103.167027 L65.279368,104.27274 C65.5228024,103.894716 65.8521498,103.587577 66.2674203,103.351312 C66.6826907,103.115048 67.1432999,102.996917 67.6492615,102.996917 C68.5323079,102.996917 69.2816927,103.339496 69.8974385,104.024663 C70.5131843,104.709831 70.8210526,105.664326 70.8210526,106.888177 C70.8210526,108.145105 70.5107978,109.122044 69.8902787,109.819025 C69.2697597,110.516006 68.5179883,110.864491 67.6349419,110.864491 C67.2148983,110.864491 66.8342394,110.7818 66.4929539,110.616414 C66.1516685,110.451029 65.7924888,110.167516 65.4154041,109.765866 L65.4154041,113.557895 L63.4035005,113.557895 L63.4035005,103.167027 Z M65.3939248,106.803122 C65.3939248,107.648949 65.5633716,108.27386 65.9022705,108.677873 C66.2411694,109.081885 66.654047,109.283888 67.1409158,109.283888 C67.6086917,109.283888 67.9977036,109.098423 68.3079631,108.727488 C68.6182226,108.356552 68.77335,107.74818 68.77335,106.902352 C68.77335,106.113228 68.6134494,105.527301 68.2936435,105.144552 C67.9738375,104.761803 67.5776659,104.570432 67.1051168,104.570432 C66.6134748,104.570432 66.2053703,104.758259 65.8807911,105.13392 C65.5562119,105.509581 65.3939248,106.065976 65.3939248,106.803122 Z" id="Group" fill="#FFFFFF"></path>
            </g>
        </g>
    </g>
</svg>