<?xml version="1.0" encoding="UTF-8"?>
<svg width="15px" height="39px" viewBox="0 0 15 39" version="1.1" xmlns="http://www.w3.org/2000/svg" xmlns:xlink="http://www.w3.org/1999/xlink">
    <!-- Generator: Sketch 50 (54983) - http://www.bohemiancoding.com/sketch -->
    <title>Shape</title>
    <desc>Created with Sketch.</desc>
    <defs></defs>
    <g id="desktop" stroke="none" stroke-width="1" fill="none" fill-rule="evenodd">
        <g id="Simptom/1.1" transform="translate(-1219.000000, -216.000000)" fill="#FFFFFF" fill-rule="nonzero">
            <g id="1-copy" transform="translate(1198.000000, 207.000000)">
                <path d="M35.385103,28.7892473 C35.2602745,28.6215054 35.2186649,28.2860215 35.0106173,28.1602151 C34.7609602,28.0344086 34.5529126,27.9086022 34.344865,27.7408602 C34.0952079,27.4892473 34.0535984,26.9860215 33.9703794,26.6505376 C33.7207223,25.644086 33.7623318,24.6376344 33.6791128,23.6311828 C33.6375032,23.0860215 33.3878461,22.5827957 33.2214081,22.0795699 C33.05497,21.6602151 33.05497,18.3053763 33.05497,17.8021505 C33.0133605,17.3408602 33.05497,16.7537634 32.7637034,16.4182796 C32.5140462,16.1247312 32.1811701,16.0408602 31.8482939,15.9569892 C31.4321988,15.8311828 29.60138,15.244086 29.684599,14.6989247 C29.7262085,14.5731183 29.9758656,13.6924731 30.1006942,13.6505376 C30.3087418,13.6086022 30.3503513,12.8956989 30.3919608,12.727957 C30.3919608,12.727957 30.3919608,12.727957 30.3919608,12.727957 C30.4751798,12.4763441 30.5167894,12.1827957 30.5167894,11.8892473 C30.5167894,10.6731183 29.6429895,9.66666667 28.6027515,9.66666667 C28.561142,9.66666667 28.561142,9.66666667 28.477923,9.66666667 C28.4363134,9.66666667 28.3947039,9.66666667 28.3947039,9.66666667 C27.354466,9.66666667 26.4806661,10.6731183 26.4806661,11.8892473 C26.4806661,12.1827957 26.5222756,12.4763441 26.6054946,12.727957 C26.6054946,12.727957 26.6054946,12.727957 26.6054946,12.727957 C26.6471042,12.8956989 26.6887137,13.6086022 26.8967613,13.6505376 C27.0215898,13.6924731 27.3128564,14.5311828 27.3128564,14.6989247 C27.3960755,15.244086 25.6068662,15.7892473 25.1491615,15.9569892 C24.8162853,16.0408602 24.4834092,16.1666667 24.2337521,16.4182796 C23.9424855,16.7537634 23.9424855,17.3827957 23.9424855,17.8021505 C23.9008759,18.2634409 23.9008759,21.6182796 23.7760474,22.0795699 C23.6096093,22.5827957 23.3599522,23.0860215 23.3183427,23.6311828 C23.1935141,24.6376344 23.2767332,25.644086 23.0270761,26.6505376 C22.943857,26.9860215 22.943857,27.4892473 22.6525904,27.7408602 C22.4445428,27.9086022 22.1948857,28.0344086 21.9868381,28.1602151 C21.7787905,28.2860215 21.737181,28.5795699 21.6123524,28.7892473 C21.5291334,28.9150538 21.0298192,29.4602151 21.4043048,29.4602151 C21.8620095,29.4602151 21.8620095,28.7892473 22.1948857,28.7473118 C22.1532762,29.3344086 21.9452286,29.8376344 21.9036191,30.3827957 C21.9036191,30.4666667 21.9452286,30.8860215 22.1532762,30.6763441 C22.2364952,30.5924731 22.4029333,29.6698925 22.4445428,29.6698925 C22.4029333,29.9215054 22.3197142,30.5505376 22.2781047,30.8021505 C22.2781047,30.927957 22.4861523,31.0537634 22.5693714,30.927957 C22.6525904,30.7602151 22.860638,29.7956989 22.943857,29.711828 C22.9022475,30.0053763 22.9022475,30.2989247 22.860638,30.5924731 C22.8190285,30.7182796 22.8190285,30.8021505 22.860638,30.927957 C22.943857,31.011828 23.1102951,31.011828 23.1519046,30.8860215 C23.1935141,30.6344086 23.2767332,30.3408602 23.3183427,30.0892473 C23.3183427,30.0053763 23.3599522,29.3763441 23.4847808,29.7956989 C23.5263903,29.9634409 23.4847808,30.3408602 23.6096093,30.4666667 C23.8592664,30.7182796 23.8592664,30.0473118 23.8592664,29.9634409 C23.7760474,29.3344086 24.0257045,28.8311828 24.067314,28.2021505 C24.1089235,27.5731183 24.3169711,26.9860215 24.4834092,26.3989247 C24.6498473,25.6860215 24.8995044,25.0150538 25.107552,24.344086 C25.3155996,23.7150538 25.3988186,23.127957 25.3572091,22.4989247 C25.3572091,22.2053763 25.4404281,21.8698925 25.4820376,21.5763441 C25.5236472,21.2408602 25.4820376,20.7376344 25.6484757,20.4021505 C25.8981328,21.6182796 25.7733043,24.3860215 25.7733043,24.6376344 C25.7733043,24.9731183 25.7316947,25.2666667 25.6484757,25.5602151 C25.5652567,26.1892473 25.3988186,26.8182796 25.3155996,27.4473118 C25.27399,27.9924731 25.107552,28.5376344 25.107552,29.0827957 C25.0659425,29.7537634 25.190771,30.4666667 25.1491615,31.1376344 C25.1491615,31.5150538 25.3988186,34.7860215 25.4820376,34.9537634 C25.5652567,35.1215054 25.2323805,37.427957 25.2323805,37.5537634 C25.107552,38.0150538 25.107552,38.5602151 25.107552,39.0215054 C25.107552,40.3215054 25.5652567,41.4537634 25.8149138,42.8376344 C25.8565233,43.0053763 25.8565233,43.2569892 25.8981328,43.5505376 C25.9397423,44.3473118 25.8149138,45.0602151 25.27399,45.7311828 C24.6082378,46.5698925 24.6498473,46.6537634 25.5652567,47.1569892 C25.6484757,47.1989247 25.8149138,47.2827957 25.9397423,47.2827957 C26.0645709,47.2827957 26.1477899,47.2408602 26.2726185,47.1569892 C26.8135422,46.4021505 27.2296374,45.6473118 27.1880279,44.5989247 C27.1880279,44.1376344 27.1464184,43.5924731 27.1880279,43.1731183 C27.3128564,41.9569892 27.3960755,40.6989247 27.437685,40.6150538 C27.520904,40.3215054 27.6873421,38.6860215 27.6041231,38.1408602 C27.3128564,37.7215054 27.520904,37.3021505 27.6041231,36.8408602 C27.6873421,36.4215054 28.1034373,32.4795699 28.1450468,32.144086 C28.2282658,31.5569892 28.3530944,30.927957 28.3530944,30.3408602 C28.3530944,30.1311828 28.2282658,29.7537634 28.4363134,29.711828 C28.644361,29.7537634 28.5195325,30.1311828 28.5195325,30.3408602 C28.5195325,30.927957 28.644361,31.5569892 28.7275801,32.144086 C28.7691896,32.4376344 29.1852848,36.4215054 29.2685038,36.8408602 C29.3933324,37.3021505 29.5597704,37.7634409 29.5181609,38.2247312 C29.4349419,38.7698925 29.60138,40.4053763 29.684599,40.6989247 C29.7262085,40.7827957 29.8094275,42.0408602 29.9342561,43.2569892 C29.9758656,43.6763441 29.9342561,44.2215054 29.9342561,44.6827957 C29.8926466,45.6892473 30.3087418,46.4860215 30.8496655,47.2408602 C30.9744941,47.3247312 31.0577131,47.3666667 31.1825417,47.3666667 C31.3073702,47.3666667 31.4321988,47.2408602 31.5570273,47.2408602 C32.4308272,46.7376344 32.4724367,46.6537634 31.8482939,45.8150538 C31.3073702,45.144086 31.2241512,44.4311828 31.2241512,43.6344086 C31.2241512,43.3827957 31.2657607,43.1311828 31.3073702,42.9215054 C31.5570273,41.5376344 32.0563415,40.4053763 32.014732,39.1053763 C32.014732,38.6021505 32.014732,38.0569892 31.8899035,37.6376344 C31.8482939,37.511828 31.5154178,35.2053763 31.6402464,35.0376344 C31.7234654,34.911828 31.9731225,31.5989247 31.9731225,31.2215054 C31.9731225,30.5505376 32.0563415,29.8376344 32.014732,29.1666667 C32.014732,28.6215054 31.8482939,28.0763441 31.8066844,27.5311828 C31.7234654,26.9021505 31.5570273,26.2731183 31.4738083,25.644086 C31.4321988,25.3086022 31.3489797,25.0569892 31.3489797,24.7215054 C31.3489797,24.4698925 31.2241512,21.7021505 31.4738083,20.4860215 C31.5986368,20.7795699 31.5570273,21.3247312 31.6402464,21.6602151 C31.6818559,21.9537634 31.7650749,22.2892473 31.7650749,22.5827957 C31.7234654,23.211828 31.8066844,23.7989247 32.014732,24.427957 C32.2643891,25.0989247 32.4724367,25.7698925 32.6388748,26.4827957 C32.8053129,27.0698925 33.05497,27.6989247 33.05497,28.2860215 C33.0965795,28.9150538 33.3462366,29.4182796 33.2630176,30.0473118 C33.2630176,30.1311828 33.2630176,30.8021505 33.5126747,30.5505376 C33.6375032,30.4247312 33.5958937,30.0473118 33.6375032,29.8795699 C33.7623318,29.4602151 33.7623318,30.0473118 33.7623318,30.1731183 C33.8039413,30.4247312 33.8455508,30.7182796 33.9287699,30.9698925 C33.9703794,31.0956989 34.1368175,31.1376344 34.2200365,31.011828 C34.261646,30.8860215 34.261646,30.8021505 34.2200365,30.6763441 C34.178427,30.3827957 34.178427,30.0892473 34.1368175,29.7956989 C34.2200365,29.8795699 34.4280841,30.844086 34.5113031,31.011828 C34.5945222,31.1795699 34.8025698,31.0537634 34.8025698,30.8860215 C34.7609602,30.6344086 34.6777412,30.0053763 34.6361317,29.7537634 C34.6777412,29.7537634 34.8441793,30.6763441 34.9273983,30.7602151 C35.0938364,30.9698925 35.1770554,30.5505376 35.1770554,30.4666667 C35.1354459,29.9215054 34.9273983,29.3763441 34.8857888,28.8311828 C35.2186649,28.8731183 35.2186649,29.5021505 35.6763696,29.544086 C35.9676363,29.4602151 35.468322,28.9150538 35.385103,28.7892473 Z" id="Shape"></path>
            </g>
        </g>
    </g>
</svg>