<?xml version="1.0" encoding="UTF-8"?>
<svg width="71px" height="40px" viewBox="0 0 71 40" version="1.1" xmlns="http://www.w3.org/2000/svg" xmlns:xlink="http://www.w3.org/1999/xlink">
    <!-- Generator: Sketch 50 (54983) - http://www.bohemiancoding.com/sketch -->
    <title>eye (1)</title>
    <desc>Created with Sketch.</desc>
    <defs></defs>
    <g id="desktop" stroke="none" stroke-width="1" fill="none" fill-rule="evenodd">
        <g id="Poliklinika/1.1" transform="translate(-245.000000, -895.000000)" fill="#FFFFFF" fill-rule="nonzero" stroke="#159EE3" stroke-width="1.6">
            <g id="Group-19" transform="translate(180.000000, 865.000000)">
                <g id="eye-(1)" transform="translate(66.000000, 31.000000)">
                    <path d="M34.5,38 C26.740856,38 18.390114,34.9292674 10.3506244,29.1195171 C4.34067505,24.7765788 0.631246041,20.4739201 0.476244231,20.2925826 C-0.158748077,19.5506468 -0.158748077,18.4493532 0.476244231,17.7072595 C0.631246041,17.5262379 4.34051896,13.2232633 10.3506244,8.8803249 C18.3902701,3.07104852 26.7410121,0 34.5,0 C42.259144,0 50.6100421,3.07089056 58.6493756,8.8803249 C64.6593249,13.2232633 68.368754,17.5260799 68.5237558,17.7072595 C69.1587481,18.4491952 69.1587481,19.5504888 68.5237558,20.2925826 C68.368754,20.4736041 64.659481,24.7765788 58.6493756,29.1195171 C50.6100421,34.9291094 42.2593001,38 34.5,38 Z M4.62632793,19.000158 C6.1263958,20.5480031 8.95748122,23.2698031 12.6954755,25.9615909 C17.820057,29.6516827 25.7627681,34.0510126 34.5,34.0510126 C43.2372319,34.0510126 51.1800991,29.6516827 56.3045245,25.9615909 C60.0420505,23.270277 62.873292,20.548161 64.3736721,19.000158 C62.8737603,17.4523129 60.0425188,14.7305128 56.3045245,12.038725 C51.1800991,8.34847528 43.2372319,3.94930332 34.5,3.94930332 C25.7627681,3.94930332 17.820057,8.34847528 12.6954755,12.038725 C8.95794951,14.7300389 6.12670799,17.451839 4.62632793,19.000158 Z" id="Shape"></path>
                    <path d="M34.5000742,30 C28.1588591,30 23,25.065329 23,19 C23,12.934671 28.1588591,8 34.5000742,8 C37.2888793,8 39.9791547,8.96714839 42.0749876,10.7234581 C42.8455667,11.3691226 42.9230253,12.4899871 42.2480081,13.2270581 C41.5729908,13.964129 40.4010219,14.0380774 39.6305912,13.3925548 C38.2114078,12.2032774 36.3892025,11.5483871 34.4999258,11.5483871 C30.20424,11.5483871 26.709553,14.8912516 26.709553,19 C26.709553,23.1087484 30.20424,26.4516129 34.4999258,26.4516129 C38.79576,26.4516129 42.2902986,23.1087484 42.2902986,19 C42.2902986,18.0202194 43.1208266,17.2258065 44.1451493,17.2258065 C45.1694721,17.2258065 46,18.0202194 46,19 C46.0002968,25.065329 40.8412893,30 34.5000742,30 Z" id="Shape"></path>
                    <path d="M35,23 C32.7944,23 31,21.2056 31,19 C31,16.7944 32.7944,15 35,15 C37.20576,15 39,16.7944 39,19 C39,21.2056 37.20576,23 35,23 Z" id="Shape"></path>
                </g>
            </g>
        </g>
    </g>
</svg>