<?xml version="1.0" encoding="UTF-8"?>
<svg width="75px" height="52px" viewBox="0 0 75 52" version="1.1" xmlns="http://www.w3.org/2000/svg" xmlns:xlink="http://www.w3.org/1999/xlink">
    <!-- Generator: Sketch 50 (54983) - http://www.bohemiancoding.com/sketch -->
    <title>Group 4</title>
    <desc>Created with Sketch.</desc>
    <defs></defs>
    <g id="desktop" stroke="none" stroke-width="1" fill="none" fill-rule="evenodd">
        <g id="Poliklinika/1.1" transform="translate(-1122.000000, -565.000000)">
            <g id="Group-20" transform="translate(1060.000000, 541.000000)">
                <g id="Group-4" transform="translate(63.000000, 25.000000)">
                    <path d="M45.0342156,29.3268099 C43.2524265,29.0441109 43.2118104,24.1586731 43.2118104,24.1586731 C43.2118104,24.1586731 48.4474175,18.9903755 49.5885362,12.0405438 C52.6581131,12.0405438 54.5541753,4.65195796 51.4839536,2.05238048 C51.6125712,-0.684126827 20.5941294,-0.684126827 20.7219412,2.05238048 C17.6520419,4.65195796 19.5477817,12.0405438 22.6175198,12.0405438 C23.7584773,18.9903755 28.9942456,24.1586731 28.9942456,24.1586731 C28.9942456,24.1586731 28.9536295,29.0441109 27.1718404,29.3268099 C21.4324004,30.2374254 0,39.6637264 0,50 L36.1031892,50 L72.2063783,50 C72.2063783,39.6637264 50.7738168,30.2374254 45.0342156,29.3268099 Z" id="Shape" stroke="#FFFFFF" stroke-width="2" fill-rule="nonzero"></path>
                    <path d="M30.709903,33.4547749 C28.8809349,32.6772353 27.8648416,32.8716202 27.2551856,34.2323146 C26.6455296,35.5930089 28.0680603,41.813326 31.319559,42.3964807 C33.3517457,42.7852506 35.5871511,41.5901084 35.9935885,39.675092 C36.4000258,37.7600756 32.538871,34.2323146 30.709903,33.4547749 Z" id="Path-2" fill="#FFFFFF"></path>
                    <path d="M42.4215073,33.4547749 C44.2504753,32.6772353 45.2665687,32.8716202 45.8762247,34.2323146 C46.4858807,35.5930089 45.06335,41.813326 41.8118512,42.3964807 C39.7796645,42.7852506 37.5442591,41.5901084 37.1378218,39.675092 C36.7313845,37.7600756 40.5925392,34.2323146 42.4215073,33.4547749 Z" id="Path-2-Copy" fill="#FFFFFF"></path>
                </g>
            </g>
        </g>
    </g>
</svg>