<?xml version="1.0" encoding="UTF-8"?>
<svg width="53px" height="52px" viewBox="0 0 53 52" version="1.1" xmlns="http://www.w3.org/2000/svg" xmlns:xlink="http://www.w3.org/1999/xlink">
    <!-- Generator: sketchtool 51.3 (57544) - http://www.bohemiancoding.com/sketch -->
    <title>CFCE70EB-AC5E-4475-BE70-A9E954E811BB</title>
    <desc>Created with sketchtool.</desc>
    <defs></defs>
    <g id="desktop" stroke="none" stroke-width="1" fill="none" fill-rule="evenodd">
        <g id="Poliklinika/1.1" transform="translate(-230.000000, -769.000000)" fill="#FFFFFF" fill-rule="nonzero" stroke="#159EE3" stroke-width="1.2">
            <g id="Group-17" transform="translate(156.000000, 745.000000)">
                <g id="Group-30" transform="translate(74.000000, 24.000000)">
                    <g id="rehabilitation-(1)" transform="translate(1.000000, 1.000000)">
                        <path d="M40.1084661,21.2546813 C39.4645418,18.7849602 38.4898406,16.4085657 37.2111554,14.1916335 C36.7521912,13.3962151 35.7353586,13.1233068 34.9398406,13.5820717 C34.1443227,14.0408367 33.8714143,15.0578685 34.3301793,15.8533865 C35.4601594,17.8123506 36.3214143,19.9118526 36.8901394,22.0936255 C37.122012,22.9832669 38.0310757,23.514741 38.9187251,23.2832669 C39.8074701,23.0515936 40.3401394,22.1434263 40.1084661,21.2546813 Z" id="Shape"></path>
                        <path d="M49.3330677,46.6178287 L47.6702191,46.6178287 L47.6702191,31.6516932 C47.6702191,28.9008964 45.4322709,26.6629482 42.6814741,26.6629482 L34.2996016,26.6629482 C33.8214143,20.577988 30.7451195,14.8668327 25.8624502,11.1399402 C23.8869522,9.63197211 21.1615538,9.73645418 19.4003984,11.3047809 C19.0938247,11.4508964 18.8196215,11.6997012 18.6288845,12.0629482 L18.6285857,12.0628486 L18.6136454,12.0929283 C18.612749,12.0947211 18.6119522,12.0963147 18.6110558,12.098008 L15.3010956,18.7194223 L9.34581673,24.6748008 C8.76653386,25.2540837 8.34900398,25.9373506 8.09432271,26.6629482 L5.73834661,26.6629482 L6.55348606,19.3268924 L7.57121514,19.835757 C8.39282869,20.2466135 9.39163347,19.9133466 9.80229084,19.0921315 C10.2130478,18.2706175 9.87998008,17.2719124 9.05866534,16.8610558 L2.40707171,13.535259 C1.58565737,13.1246016 0.58685259,13.4574701 0.175996016,14.2788845 C-0.234760956,15.1003984 0.0983067729,16.0991036 0.919621514,16.5099602 L3.43306773,17.7666335 C3.38605578,17.8924303 3.35189243,18.0251992 3.33635458,18.164741 L0.377788845,44.7915339 C0.0725099602,47.538745 2.22649402,49.9435259 4.98904382,49.9435259 L49.3330677,49.9435259 C50.2513944,49.9435259 50.9960159,49.199004 50.9960159,48.2805777 C50.9960159,47.362251 50.251494,46.6178287 49.3330677,46.6178287 Z M11.6974104,27.026494 L17.8436255,20.8802789 C17.9701195,20.7538845 18.0751992,20.6078685 18.1552789,20.448008 L21.2322709,14.2924303 C21.2342629,14.2885458 21.2361554,14.284761 21.2381474,14.2808765 C21.7431275,13.2739044 23.0180279,13.1526892 23.8446215,13.7837649 C27.9078685,16.885259 30.4937251,21.610259 30.9631474,26.6630478 L27.6221116,26.6630478 C27.3446215,24.1766932 26.4468127,21.8016932 24.9826693,19.7154382 C24.261255,18.6875498 22.698506,18.798506 22.1342629,19.9270916 L20.8907371,22.4141434 C20.8099602,22.5756972 20.7042829,22.7223108 20.5766932,22.85 L16.2768924,27.1498008 C16.2766932,27.15 16.2765936,27.1500996 16.2762948,27.1503984 L13.9251992,29.501494 C13.262251,30.1643426 12.1442231,30.1704183 11.4848606,29.4053785 C10.9315737,28.7639442 11.0270916,27.6968127 11.6974104,27.026494 Z M24.2455179,26.5468127 C24.2130478,26.5853586 24.1810757,26.6243028 24.1488048,26.6629482 L21.4667331,26.6629482 L22.9281873,25.201494 C23.2060757,24.9237052 23.449004,24.6157371 23.6536853,24.2823705 C23.9263944,25.0165339 24.123506,25.7766932 24.2455179,26.5468127 Z M4.98904382,46.6179283 L4.98904382,46.6178287 C4.20537849,46.6178287 3.59651394,45.9393426 3.68326693,45.1588645 L5.3688247,29.988745 L8.06055777,29.988745 C8.25398406,30.5599602 8.55448207,31.1 8.96553785,31.5767928 C10.8604582,33.7750996 14.2192231,33.910757 16.2766932,31.8531873 L18.1410359,29.9777888 L21.7668327,29.9777888 C18.8739044,34.7286853 17.7380478,39.6214143 17.7380478,44.9549801 C17.7380478,45.5296813 17.8368526,46.0906375 18.0229084,46.6179283 L4.98904382,46.6179283 Z M24.3895418,44.8315737 C24.3895418,45.6866534 23.8231076,46.4401394 23.0721116,46.5842629 C22.3768924,46.7175299 21.8946215,46.4246016 21.6688247,46.2379482 C21.2843625,45.9202191 21.063745,45.45249 21.063745,44.9548805 C21.063745,40.3511952 21.9783865,36.0875498 24.5433267,31.825498 C24.7348606,33.6594622 25.1061753,35.4539841 25.648008,37.1889442 C24.6412351,39.9603586 24.3895418,42.3405378 24.3895418,44.8315737 Z M27.4051793,46.6177291 C27.6058765,46.0592629 27.7154382,45.4568725 27.7154382,44.8315737 C27.7154382,44.2552789 27.7027888,43.4425299 27.8356574,42.298008 C28.6783865,43.8179283 29.6689243,45.263745 30.8001992,46.6178287 L27.4051793,46.6178287 L27.4051793,46.6177291 Z M37.2055777,46.1304781 C36.5552789,46.7806773 35.5047809,46.7807769 34.8543825,46.1304781 C30.5094622,41.7854582 28.0079681,36.088745 27.7406375,29.988745 L31.0561753,29.988745 C31.2419323,34.8979084 33.3719124,39.6667331 37.24751,43.8227092 C37.8605578,44.4800797 37.8421315,45.4938247 37.2055777,46.1304781 Z M44.3444223,46.6178287 L40.7385458,46.6178287 C41.3425299,44.9195219 40.9947211,42.9646414 39.6795817,41.5543825 C37.3614542,39.0687251 34.6197211,35.0827689 34.3850598,29.988745 L42.6814741,29.988745 C43.5984064,29.988745 44.3444223,30.734761 44.3444223,31.6516932 L44.3444223,46.6178287 Z" id="Shape"></path>
                        <path d="M14.4239044,0.0567729084 C14.4200199,0.0567729084 14.4161355,0.0564741036 14.412251,0.0564741036 C14.4111554,0.0564741036 14.4100598,0.0565737052 14.4088645,0.0565737052 C10.8087649,0.0605577689 7.96992032,2.82450199 7.77221116,6.32848606 C7.54103586,10.4072709 10.9997012,13.7346614 15.0888446,13.325498 C18.3134462,12.9963147 20.9018924,10.4179283 21.0560757,7.01215139 C21.2284861,3.20697211 18.1903386,0.0611553785 14.4239044,0.0567729084 Z M17.7067729,7.15747012 C17.5030876,8.65886454 16.3288845,9.76523904 14.948506,9.99003984 C12.7091633,10.3273904 10.8378486,8.48456175 11.1176295,6.25866534 C11.3383466,4.6312749 12.736255,3.38496016 14.4018924,3.38496016 C16.3827689,3.38515936 17.9661355,5.0939243 17.7067729,7.15747012 Z" id="Shape"></path>
                    </g>
                </g>
            </g>
        </g>
    </g>
</svg>