<?xml version="1.0" encoding="UTF-8"?>
<svg width="59px" height="50px" viewBox="0 0 59 50" version="1.1" xmlns="http://www.w3.org/2000/svg" xmlns:xlink="http://www.w3.org/1999/xlink">
    <!-- Generator: Sketch 50 (54983) - http://www.bohemiancoding.com/sketch -->
    <title>Shape</title>
    <desc>Created with Sketch.</desc>
    <defs></defs>
    <g id="desktop" stroke="none" stroke-width="1" fill="none" fill-rule="evenodd">
        <g id="Poliklinika/1.1" transform="translate(-471.000000, -566.000000)" fill="#FFFFFF" fill-rule="nonzero">
            <g id="Group-11" transform="translate(400.000000, 541.000000)">
                <path d="M129.355263,44.4736842 C129.355263,41.5789474 127.644737,38.9473684 125.013158,37.7631579 C124.355263,33.6842105 121,30.5263158 116.921053,30.1973684 C115.802632,27.8947368 113.434211,26.3815789 110.802632,26.3815789 C110.802632,26.3815789 110.802632,26.3815789 110.802632,26.3815789 C110.802632,26.3815789 110.802632,26.3815789 110.802632,26.3815789 C110.473684,26.3815789 110.144737,26.4473684 109.815789,26.4473684 C109.815789,26.4473684 109.75,26.4473684 109.75,26.4473684 C109.421053,26.5131579 109.026316,26.5789474 108.697368,26.7105263 C107.381579,25.6578947 105.736842,25 104.026316,25 C102.644737,25 101.263158,25.3947368 100.144737,26.1842105 C98.9605263,25.6578947 97.6447368,25.3947368 96.2631579,25.3947368 C93.5657895,25.3947368 91,26.5131579 89.2236842,28.5526316 C88.6315789,28.4210526 88.1052632,28.3552632 87.5131579,28.3552632 C85.1447368,28.3552632 82.9736842,29.5394737 81.7236842,31.5789474 C81.6578947,31.5789474 81.5263158,31.5789474 81.4605263,31.5789474 C81.3289474,31.5789474 81.1973684,31.5789474 81.1315789,31.5789474 C81,31.5789474 80.8684211,31.6447368 80.7368421,31.6447368 C80.6052632,31.6447368 80.5394737,31.7105263 80.4078947,31.7105263 C80.2763158,31.7105263 80.1447368,31.7763158 80.0131579,31.8421053 C79.8815789,31.8421053 79.8157895,31.9078947 79.6842105,31.9078947 C79.5526316,31.9736842 79.4210526,31.9736842 79.3552632,32.0394737 C79.2236842,32.1052632 79.0921053,32.1052632 79.0263158,32.1710526 C78.9605263,32.2368421 78.8289474,32.2368421 78.7631579,32.3026316 C78.6315789,32.3684211 78.5,32.4342105 78.3684211,32.5 C78.3684211,32.5 78.3684211,32.5 78.3684211,32.5 C76.0657895,33.75 74.4868421,36.1842105 74.2894737,38.9473684 C74.2894737,38.9473684 74.2894737,39.0131579 74.2894737,39.0131579 C72.1842105,40.9868421 71,43.8157895 71,46.7105263 C71,52.5657895 75.8026316,57.3684211 81.6578947,57.3684211 C82.25,57.3684211 82.9078947,57.3026316 83.5,57.2368421 C84.2894737,57.5 85.1447368,57.6315789 86,57.6973684 C87.7105263,61.9078947 91.1315789,64.1447368 95.8026316,64.1447368 C100.276316,64.1447368 105.671053,68.6842105 105.671053,74.0131579 L105.671053,75 L113.171053,75 L112.315789,68.8815789 C117.513158,69.4078947 122.447368,66.0526316 123.763158,60.8552632 C123.960526,59.9342105 124.092105,59.0131579 124.092105,58.1578947 C127.184211,57.0394737 129.355263,54.0789474 129.355263,50.7236842 C129.355263,49.6052632 129.157895,48.5526316 128.697368,47.5657895 C129.092105,46.5789474 129.355263,45.5263158 129.355263,44.4736842 Z M126.526316,48.0263158 C126.986842,48.8815789 127.184211,49.7368421 127.184211,50.7236842 C127.184211,52.9605263 125.868421,55 123.828947,55.9210526 C122.973684,52.0394737 119.947368,48.8815789 116.065789,47.8947368 C115.473684,47.7631579 114.881579,48.0921053 114.75,48.6842105 C114.618421,49.2763158 114.947368,49.8684211 115.539474,50 C119.026316,50.8552632 121.592105,53.8157895 121.921053,57.3684211 C122.052632,58.3552632 121.921053,59.3421053 121.723684,60.3289474 C120.539474,64.9342105 115.934211,67.6973684 111.328947,66.5131579 L109.815789,66.1184211 L110.736842,72.8289474 L107.710526,72.8289474 C107.052632,66.6447368 100.868421,61.8421053 95.7368421,61.8421053 C92.1842105,61.8421053 89.6842105,60.3947368 88.2368421,57.5 C88.2368421,57.4342105 88.2368421,57.3684211 88.1710526,57.3026316 C87.0526316,55 88.0394737,52.1710526 90.4078947,51.0526316 C90.9342105,50.7894737 91.1973684,50.1315789 90.9342105,49.6052632 C90.6710526,49.0789474 90.0131579,48.8157895 89.4868421,49.0789474 C86.9868421,50.2631579 85.6052632,52.7631579 85.6052632,55.3289474 C85.0131579,55.2631579 84.4210526,55.1315789 83.8947368,54.9342105 L83.6315789,54.8026316 L83.3684211,54.8684211 C82.8421053,55 82.25,55.0657895 81.6578947,55.0657895 C76.9868421,55.0657895 73.1052632,51.25 73.1052632,46.5131579 C73.1052632,44.8026316 73.6315789,43.0921053 74.6184211,41.7105263 C75.4078947,44.2105263 77.5131579,46.1842105 80.0789474,46.8421053 C79.8815789,47.1710526 79.75,47.5 79.6842105,47.8289474 C79.4210526,49.0131579 79.5526316,50.1973684 80.2105263,51.25 C80.4078947,51.5789474 80.7368421,51.7763158 81.1315789,51.7763158 C81.3289474,51.7763158 81.5263158,51.7105263 81.6578947,51.6447368 C82.1842105,51.3157895 82.3157895,50.6578947 82.0526316,50.1973684 C81.7236842,49.6710526 81.6578947,49.0131579 81.7894737,48.4210526 C81.9210526,47.8289474 82.3157895,47.3026316 82.8421053,46.9736842 C83.3684211,46.6447368 83.5,45.9868421 83.2368421,45.5263158 C82.9736842,45.1315789 82.5131579,44.9342105 82.0526316,45.0657895 C78.9605263,45 76.3947368,42.4342105 76.3947368,39.3421053 C76.3947368,36.1842105 78.9605263,33.6184211 82.1184211,33.6184211 C82.1842105,33.6184211 82.1842105,33.6184211 82.25,33.6184211 L83.1052632,33.6842105 L83.4342105,33.0263158 C84.2236842,31.3815789 85.8684211,30.3947368 87.6447368,30.3947368 C88.2368421,30.3947368 88.7631579,30.5263158 89.3552632,30.7236842 L90.0789474,30.9868421 L90.5394737,30.3289474 C91.9210526,28.4868421 94.0921053,27.4342105 96.3947368,27.4342105 C97.5789474,27.4342105 98.8289474,27.7631579 99.8815789,28.2894737 L100.539474,28.6184211 L101.065789,28.1578947 C101.921053,27.4342105 102.973684,27.0394737 104.092105,27.0394737 C105.013158,27.0394737 105.934211,27.3026316 106.657895,27.8289474 C105.078947,29.0789474 104.026316,30.9868421 104.026316,33.1578947 C104.026316,33.75 104.486842,34.2105263 105.078947,34.2105263 C105.671053,34.2105263 106.131579,33.75 106.131579,33.1578947 C106.131579,31.3815789 107.118421,29.8684211 108.5,29.0789474 L108.828947,28.9473684 C109.486842,28.6842105 110.144737,28.4868421 110.802632,28.4868421 C112.776316,28.4868421 114.486842,29.7368421 115.210526,31.5789474 L115.473684,32.3026316 L116.197368,32.3026316 C119.75,32.3026316 122.710526,35.1315789 122.973684,38.6184211 L123.039474,39.3421053 L123.697368,39.5394737 C125.802632,40.2631579 127.25,42.2368421 127.25,44.4736842 C127.25,45.3289474 127.052632,46.25 126.592105,46.9736842 L126.328947,47.5 L126.526316,48.0263158 Z M103.894737,53.4868421 C103.894737,51.5131579 102.907895,49.6710526 101.263158,48.5526316 C101.263158,48.5526316 101.263158,48.5526316 101.263158,48.5526316 C98.4342105,47.2368421 96.4605263,44.5394737 96.0657895,41.4473684 C96,40.9868421 96.3289474,40.5263158 96.7894737,40.4605263 C97.25,40.3947368 97.7105263,40.7236842 97.7763158,41.1842105 C98.1710526,44.0131579 100.078947,46.3815789 102.776316,47.3026316 C104.684211,47.9605263 106.723684,47.8289474 108.565789,46.9736842 C110.407895,46.1184211 111.723684,44.5394737 112.381579,42.6315789 C112.513158,42.1710526 113.039474,41.9736842 113.5,42.1052632 C113.960526,42.2368421 114.157895,42.7631579 114.026316,43.2236842 C113.236842,45.5921053 111.526316,47.4342105 109.289474,48.4868421 C108.039474,49.0789474 106.657895,49.4078947 105.276316,49.4078947 C105.013158,49.4078947 104.75,49.4078947 104.421053,49.3421053 C105.144737,50.5263158 105.605263,51.9078947 105.605263,53.4210526 C105.605263,53.8815789 105.210526,54.2763158 104.75,54.2763158 C104.289474,54.2763158 103.894737,53.9473684 103.894737,53.4868421 Z M120.144737,43.6184211 C120.144737,44.0789474 119.75,44.4736842 119.289474,44.4736842 C118.828947,44.4736842 118.434211,44.0789474 118.434211,43.6184211 C118.434211,39.7368421 115.276316,36.5789474 111.394737,36.5789474 C110.934211,36.5789474 110.539474,36.1842105 110.539474,35.7236842 C110.539474,35.2631579 110.934211,34.8684211 111.394737,34.8684211 C116.197368,34.8684211 120.144737,38.8157895 120.144737,43.6184211 Z M97.5131579,34.8026316 C97.5131579,34.3421053 97.9078947,33.9473684 98.3684211,33.9473684 C102.118421,33.9473684 105.210526,36.9736842 105.210526,40.7894737 C105.210526,41.25 104.815789,41.6447368 104.355263,41.6447368 C103.894737,41.6447368 103.5,41.25 103.5,40.7894737 C103.5,37.9605263 101.197368,35.6578947 98.3684211,35.6578947 C97.9078947,35.6578947 97.5131579,35.2631579 97.5131579,34.8026316 Z M95.4736842,54.3421053 C95.3421053,54.6052632 95.0131579,54.7368421 94.75,54.7368421 C94.6184211,54.7368421 94.4210526,54.6710526 94.2894737,54.6052632 C93.8947368,54.3421053 93.7631579,53.8157895 94.0263158,53.4210526 C95.4736842,51.1184211 94.75,48.0921053 92.4473684,46.6447368 C92.0526316,46.3815789 91.9210526,45.8552632 92.1842105,45.4605263 C92.4473684,45.0657895 92.9736842,44.9342105 93.3684211,45.1973684 C96.4605263,47.1710526 97.3815789,51.25 95.4736842,54.3421053 Z M94.6842105,39.2105263 C93.3684211,39.2105263 92.1842105,38.6184211 91.2631579,37.7631579 C89.75,39.9342105 87.25,41.1184211 84.75,41.1184211 C83.4342105,41.1184211 82.0526316,40.7894737 80.8026316,40.0657895 C80.4078947,39.8026316 80.2763158,39.2763158 80.4736842,38.8815789 C80.7368421,38.4868421 81.2631579,38.3552632 81.6578947,38.5526316 C84.6184211,40.2631579 88.4342105,39.2763158 90.2105263,36.25 C89.8815789,35.5263158 89.6842105,34.7368421 89.6842105,33.9473684 C89.6842105,33.4868421 90.0789474,33.0921053 90.5394737,33.0921053 C91,33.0921053 91.3947368,33.4868421 91.3947368,33.9473684 C91.3289474,35.7894737 92.8421053,37.3684211 94.6842105,37.4342105 C95.1447368,37.4342105 95.5394737,37.8289474 95.5394737,38.2894737 C95.5394737,38.8815789 95.1447368,39.2105263 94.6842105,39.2105263 C94.6842105,39.2105263 94.6842105,39.2105263 94.6842105,39.2105263 Z M114.75,55.9210526 C115.144737,56.1842105 115.210526,56.7105263 114.947368,57.1052632 C113.302632,59.4736842 110.671053,60.7894737 107.973684,60.7894737 C106.328947,60.7894737 104.684211,60.3289474 103.236842,59.3421053 C102.842105,59.0789474 102.776316,58.5526316 103.039474,58.1578947 C103.302632,57.7631579 103.828947,57.6973684 104.223684,57.9605263 C105.736842,58.9473684 107.513158,59.3421053 109.289474,59.0131579 C111.065789,58.6842105 112.578947,57.6973684 113.631579,56.1842105 C113.828947,55.7894737 114.355263,55.6578947 114.75,55.9210526 Z" id="Shape"></path>
            </g>
        </g>
    </g>
</svg>