<?xml version="1.0" encoding="UTF-8"?>
<svg width="42px" height="42px" viewBox="0 0 42 42" version="1.1" xmlns="http://www.w3.org/2000/svg" xmlns:xlink="http://www.w3.org/1999/xlink">
    <!-- Generator: Sketch 50 (54983) - http://www.bohemiancoding.com/sketch -->
    <title>Group</title>
    <desc>Created with Sketch.</desc>
    <defs></defs>
    <g id="desktop" stroke="none" stroke-width="1" fill="none" fill-rule="evenodd">
        <g id="Poliklinika/1.1" transform="translate(-1144.000000, -406.000000)" fill="#FFFFFF" fill-rule="nonzero">
            <g id="Group-7" transform="translate(1060.000000, 379.000000)">
                <g id="Group" transform="translate(103.052038, 50.052038) rotate(-315.000000) translate(-103.052038, -50.052038) translate(85.552038, 25.052038)">
                    <path d="M29.2075301,17.0560241 C29.2075301,10.3451807 23.748494,4.88614458 17.0376506,4.88614458 C16.3656627,4.88614458 15.8207831,5.4310241 15.8207831,6.10301205 C15.8207831,6.775 16.3656627,7.31987952 17.0376506,7.31987952 C22.4060241,7.32018072 26.7737952,11.6879518 26.7737952,17.0560241 C26.7737952,17.728012 27.3186747,18.2728916 27.9906627,18.2728916 C28.6626506,18.2728916 29.2075301,17.728012 29.2075301,17.0560241 Z" id="Shape"></path>
                    <path d="M22.5816265,42.6129518 L18.2548193,42.6129518 L18.2548193,34.0322289 C27.0816265,33.4039157 34.0756024,26.0400602 34.0756024,17.0560241 C34.0756024,7.66114458 26.4325301,0.0180722892 17.0376506,0.0180722892 C7.64277108,0.0180722892 0,7.66144578 0,17.0560241 C0,26.0400602 6.99427711,33.4039157 15.8207831,34.0322289 L15.8207831,42.6129518 L11.5614458,42.6129518 C10.8894578,42.6129518 10.3445783,43.1578313 10.3445783,43.8298193 C10.3445783,44.5018072 10.8894578,45.0466867 11.5614458,45.0466867 L15.8207831,45.0466867 L15.8207831,48.6975904 C15.8207831,49.3695783 16.3656627,49.9144578 17.0376506,49.9144578 C17.7096386,49.9144578 18.2545181,49.3695783 18.2545181,48.6975904 L18.2545181,45.0466867 L22.5810241,45.0466867 C23.253012,45.0466867 23.7978916,44.5018072 23.7978916,43.8298193 C23.7978916,43.1578313 23.2536145,42.6129518 22.5816265,42.6129518 Z M17.0379518,31.6599398 C8.98554217,31.6599398 2.43403614,25.1084337 2.43403614,17.0560241 C2.43403614,9.00361446 8.98554217,2.45210843 17.0379518,2.45210843 C25.0903614,2.45210843 31.6418675,9.00361446 31.6418675,17.0560241 C31.6418675,25.1084337 25.0903614,31.6599398 17.0379518,31.6599398 Z" id="Shape"></path>
                </g>
            </g>
        </g>
    </g>
</svg>