<?xml version="1.0" encoding="UTF-8"?>
<svg width="65px" height="50px" viewBox="0 0 65 50" version="1.1" xmlns="http://www.w3.org/2000/svg" xmlns:xlink="http://www.w3.org/1999/xlink">
    <!-- Generator: Sketch 50 (54983) - http://www.bohemiancoding.com/sketch -->
    <title>Group 8</title>
    <desc>Created with Sketch.</desc>
    <defs></defs>
    <g id="desktop" stroke="none" stroke-width="1" fill="none" fill-rule="evenodd">
        <g id="Group-8" transform="translate(1.000000, 0.000000)">
            <path d="M43.9655172,35.7758621 L5.68965517,35.7758621 C2.75862069,35.7758621 0.344827586,33.362069 0.344827586,30.4310345 L0.344827586,5.94827586 C0.344827586,3.01724138 2.75862069,0.603448276 5.68965517,0.603448276 L43.8793103,0.603448276 C46.8103448,0.603448276 49.2241379,3.01724138 49.2241379,5.94827586 L49.2241379,30.4310345 C49.2241379,33.362069 46.8965517,35.7758621 43.9655172,35.7758621 Z M5.68965517,1.46551724 C3.18965517,1.46551724 1.20689655,3.44827586 1.20689655,5.94827586 L1.20689655,30.4310345 C1.20689655,32.9310345 3.18965517,34.9137931 5.68965517,34.9137931 L43.9655172,34.9137931 C46.3793103,34.9137931 48.362069,32.9310345 48.362069,30.4310345 L48.362069,5.94827586 C48.362069,3.44827586 46.3793103,1.46551724 43.8793103,1.46551724 L5.68965517,1.46551724 Z" id="Shape" stroke="#FFFFFF" fill="#FFFFFF" fill-rule="nonzero"></path>
            <path d="M19.3965517,35.2586207 L30.2586207,35.2586207 L30.2586207,38.9655172 C30.2586207,39.6551724 29.7413793,40.1724138 29.0517241,40.1724138 L20.6034483,40.1724138 C19.9137931,40.1724138 19.3965517,39.6551724 19.3965517,38.9655172 L19.3965517,35.2586207 Z" id="Shape" fill="#FFFFFF" fill-rule="nonzero"></path>
            <path d="M37.3275862,41.0344828 L12.3275862,41.0344828 C11.0344828,41.0344828 9.9137931,42.0689655 9.9137931,43.4482759 L9.9137931,46.9827586 C9.9137931,48.2758621 10.9482759,49.3965517 12.3275862,49.3965517 L37.3275862,49.3965517 C38.7068966,49.3965517 39.7413793,48.2758621 39.7413793,46.9827586 L39.7413793,43.4482759 C39.7413793,42.1551724 38.7068966,41.0344828 37.3275862,41.0344828 Z M24.8275862,44.7413793 L13.0172414,44.7413793 C12.6724138,44.7413793 12.3275862,44.4827586 12.3275862,44.0517241 C12.3275862,43.6206897 12.5862069,43.362069 13.0172414,43.362069 L24.8275862,43.362069 C25.1724138,43.362069 25.5172414,43.6206897 25.5172414,44.0517241 C25.5172414,44.4827586 25.1724138,44.7413793 24.8275862,44.7413793 Z M33.1896552,44.7413793 L32.6724138,44.7413793 C32.3275862,44.7413793 31.9827586,44.4827586 31.9827586,44.0517241 C31.9827586,43.6206897 32.2413793,43.362069 32.6724138,43.362069 L33.1896552,43.362069 C33.5344828,43.362069 33.8793103,43.6206897 33.8793103,44.0517241 C33.8793103,44.4827586 33.5344828,44.7413793 33.1896552,44.7413793 Z M36.637931,44.7413793 L36.1206897,44.7413793 C35.7758621,44.7413793 35.4310345,44.4827586 35.4310345,44.0517241 C35.4310345,43.6206897 35.6896552,43.362069 36.1206897,43.362069 L36.637931,43.362069 C36.9827586,43.362069 37.3275862,43.6206897 37.3275862,44.0517241 C37.3275862,44.4827586 36.9827586,44.7413793 36.637931,44.7413793 Z" id="Shape" fill="#FFFFFF" fill-rule="nonzero"></path>
            <path d="M55.3448276,45.6896552 L39.8275862,45.6896552 C39.5689655,45.6896552 39.3103448,45.5172414 39.3103448,45.2586207 C39.3103448,45 39.4827586,44.8275862 39.8275862,44.8275862 L55.3448276,44.8275862 C56.5517241,44.8275862 57.5862069,43.9655172 57.5862069,42.8448276 L57.5862069,27.5862069 C57.5862069,27.3275862 57.7586207,27.1551724 58.1034483,27.1551724 C58.362069,27.1551724 58.6206897,27.3275862 58.6206897,27.5862069 L58.6206897,42.7586207 C58.5344828,44.3965517 57.0689655,45.6896552 55.3448276,45.6896552 Z" id="Shape" stroke="#FFFFFF" stroke-width="0.5" fill="#FFFFFF" fill-rule="nonzero"></path>
            <path d="M58.2758621,29.6551724 L57.8448276,29.6551724 C56.7241379,29.6551724 55.7758621,28.7068966 55.7758621,27.5862069 L55.7758621,21.8103448 C55.7758621,20.6896552 56.7241379,19.7413793 57.8448276,19.7413793 L58.2758621,19.7413793 C59.3965517,19.7413793 60.3448276,20.6896552 60.3448276,21.8103448 L60.3448276,27.5862069 C60.3448276,28.7068966 59.3965517,29.6551724 58.2758621,29.6551724 Z" id="Shape" fill="#FFFFFF" fill-rule="nonzero"></path>
            <g id="Group" transform="translate(53.448276, 15.517241)" fill="#FFFFFF" fill-rule="nonzero">
                <path d="M8.53448276,2.67241379 C8.70689655,2.67241379 8.87931034,2.5 8.79310345,2.4137931 C8.44827586,1.12068966 7.15517241,0.172413793 5.68965517,0.172413793 L3.44827586,0.172413793 C1.98275862,0.172413793 0.689655172,1.12068966 0.344827586,2.4137931 C0.344827586,2.5862069 0.431034483,2.67241379 0.603448276,2.67241379 L8.53448276,2.67241379 Z" id="Shape"></path>
                <path d="M0.603448276,3.53448276 C0.431034483,3.53448276 0.25862069,3.70689655 0.344827586,3.79310345 C0.689655172,5.0862069 1.98275862,6.03448276 3.44827586,6.03448276 L5.68965517,6.03448276 C7.15517241,6.03448276 8.44827586,5.0862069 8.79310345,3.79310345 C8.79310345,3.62068966 8.70689655,3.53448276 8.53448276,3.53448276 L0.603448276,3.53448276 Z" id="Shape"></path>
            </g>
            <path d="M60.3448276,13.7931034 C60.2586207,13.7931034 60.1724138,13.7931034 60.0862069,13.7068966 C58.9655172,12.6724138 57.1551724,12.6724138 56.0344828,13.7068966 C55.862069,13.8793103 55.6034483,13.8793103 55.4310345,13.7068966 C55.2586207,13.5344828 55.2586207,13.2758621 55.4310345,13.1034483 C56.8965517,11.8103448 59.2241379,11.8103448 60.6034483,13.1034483 C60.7758621,13.2758621 60.7758621,13.5344828 60.6034483,13.7068966 C60.6034483,13.7931034 60.4310345,13.7931034 60.3448276,13.7931034 Z" id="Shape" fill="#FFFFFF" fill-rule="nonzero"></path>
            <path d="M54.137931,12.4137931 C54.0517241,12.4137931 53.8793103,12.3275862 53.7931034,12.2413793 C53.6206897,12.0689655 53.6206897,11.8103448 53.7931034,11.637931 C56.1206897,9.56896552 59.8275862,9.56896552 62.0689655,11.637931 C62.2413793,11.8103448 62.2413793,12.0689655 62.0689655,12.2413793 C61.8965517,12.4137931 61.637931,12.4137931 61.4655172,12.2413793 C59.4827586,10.4310345 56.2931034,10.4310345 54.3103448,12.2413793 C54.3965517,12.4137931 54.3103448,12.4137931 54.137931,12.4137931 Z" id="Shape" fill="#FFFFFF" fill-rule="nonzero"></path>
            <path d="M63.4482759,11.0344828 C63.362069,11.0344828 63.2758621,11.0344828 63.1896552,10.9482759 C60.3448276,8.36206897 55.7758621,8.36206897 52.9310345,10.9482759 C52.7586207,11.1206897 52.5,11.1206897 52.3275862,10.9482759 C52.1551724,10.7758621 52.1551724,10.5172414 52.3275862,10.3448276 C55.4310345,7.5 60.6034483,7.5 63.7068966,10.3448276 C63.8793103,10.5172414 63.8793103,10.7758621 63.7068966,10.9482759 C63.7068966,10.9482759 63.5344828,11.0344828 63.4482759,11.0344828 Z" id="Shape" fill="#FFFFFF" fill-rule="nonzero"></path>
            <path d="M10.5172414,19.4827586 L18.7068966,9.74137931 C22.0689655,13.7931034 27.5862069,13.7931034 30.9482759,9.74137931 L39.137931,19.4827586 C31.2068966,28.8793103 18.362069,28.8793103 10.5172414,19.4827586 Z" id="Path" stroke="#FFFFFF" stroke-width="2"></path>
        </g>
    </g>
</svg>