<?xml version="1.0" encoding="UTF-8"?>
<svg width="50px" height="50px" viewBox="0 0 50 50" version="1.1" xmlns="http://www.w3.org/2000/svg" xmlns:xlink="http://www.w3.org/1999/xlink">
    <!-- Generator: Sketch 50 (54983) - http://www.bohemiancoding.com/sketch -->
    <title>pelvis</title>
    <desc>Created with Sketch.</desc>
    <defs></defs>
    <g id="desktop" stroke="none" stroke-width="1" fill="none" fill-rule="evenodd">
        <g id="Poliklinika/1.1" transform="translate(-1133.000000, -242.000000)" fill="#FFFFFF" fill-rule="nonzero">
            <g id="Group-28" transform="translate(1060.000000, 217.000000)">
                <g id="pelvis" transform="translate(73.000000, 25.000000)">
                    <path d="M41.9354839,9.67741935 C38.0983871,9.67741935 34.8467742,12.3556452 34.0556452,16.0282258 C33.9467742,16.0733871 33.8475806,16.1403226 33.7427419,16.1951613 C33.4282258,15.225 32.5258065,14.516129 31.4516129,14.516129 C31.0185484,14.516129 30.6177419,14.6395161 30.2653226,14.8395161 C30.0975806,14.575 29.8806452,14.3451613 29.6266129,14.1637097 C29.9725806,13.8072581 30.275,13.408871 30.5314516,12.9806452 C30.9709677,13.4290323 31.5814516,13.7096774 32.2580645,13.7096774 C33.5919355,13.7096774 34.6774194,12.6241935 34.6774194,11.2903226 C34.6774194,9.95645161 33.5919355,8.87096774 32.2580645,8.87096774 C31.9741935,8.87096774 31.7048387,8.92903226 31.4516129,9.01935484 L31.4516129,7.10967742 C31.7048387,7.2 31.9741935,7.25806452 32.2580645,7.25806452 C33.5919355,7.25806452 34.6774194,6.17258065 34.6774194,4.83870968 C34.6774194,3.50483871 33.5919355,2.41935484 32.2580645,2.41935484 C31.9741935,2.41935484 31.7048387,2.47741935 31.4516129,2.56774194 L31.4516129,0 L18.5483871,0 L18.5483871,2.56774194 C18.2951613,2.47741935 18.0258065,2.41935484 17.7419355,2.41935484 C16.4080645,2.41935484 15.3225806,3.50483871 15.3225806,4.83870968 C15.3225806,6.17258065 16.4080645,7.25806452 17.7419355,7.25806452 C18.0258065,7.25806452 18.2951613,7.2 18.5483871,7.10967742 L18.5483871,9.02016129 C18.2951613,8.92903226 18.0258065,8.87096774 17.7419355,8.87096774 C16.4080645,8.87096774 15.3225806,9.95645161 15.3225806,11.2903226 C15.3225806,12.6241935 16.4080645,13.7096774 17.7419355,13.7096774 C18.4185484,13.7096774 19.0290323,13.4290323 19.4685484,12.9806452 C19.7258065,13.4096774 20.0274194,13.8072581 20.3733871,14.1637097 C20.1185484,14.3459677 19.9024194,14.575 19.7346774,14.8395161 C19.3822581,14.6395161 18.9814516,14.516129 18.5483871,14.516129 C17.4741935,14.516129 16.5717742,15.225 16.2572581,16.1959677 C16.1524194,16.1403226 16.0540323,16.0741935 15.9443548,16.0290323 C15.1532258,12.3556452 11.9016129,9.67741935 8.06451613,9.67741935 C3.61774194,9.67741935 0,13.2951613 0,17.7419355 L0,18.2903226 C0,23.8725806 2.1733871,29.1217742 6.12177419,33.0685484 C7.37419355,34.3217742 8.06451613,35.9879032 8.06451613,37.7596774 C8.06451613,38.783871 7.82177419,39.8096774 7.36370968,40.7274194 L7.06048387,41.333871 C6.66209677,42.1314516 6.4516129,43.0233871 6.4516129,43.9129032 C6.4516129,45.4532258 7.0516129,46.9016129 8.14112903,47.991129 C9.43629032,49.2862903 11.158871,50 12.991129,50 L13.7096774,50 C16.0056452,50 18.1629032,49.1064516 19.7862903,47.4830645 C21.1846774,46.0846774 22.3233871,44.4887097 23.2048387,42.7362903 C23.6483871,43.2306452 24.2846774,43.5483871 25,43.5483871 C25.7153226,43.5483871 26.3516129,43.2306452 26.7951613,42.7362903 C27.6766129,44.4887097 28.8153226,46.0846774 30.2137097,47.4830645 C31.8362903,49.1064516 33.9943548,50 36.2903226,50 L37.008871,50 C38.841129,50 40.5637097,49.2862903 41.8596774,47.991129 C42.9483871,46.9016129 43.5483871,45.4532258 43.5483871,43.9129032 C43.5483871,43.0225806 43.3379032,42.1314516 42.9395161,41.333871 L42.6354839,40.7266129 C42.1774194,39.8104839 41.9354839,38.7846774 41.9354839,37.7596774 C41.9354839,35.9879032 42.625,34.3209677 43.8782258,33.0685484 C47.8266129,29.1209677 50,23.8725806 50,18.2903226 L50,17.7419355 C50,13.2951613 46.3822581,9.67741935 41.9354839,9.67741935 Z M32.2580645,4.03225806 C32.7032258,4.03225806 33.0645161,4.39354839 33.0645161,4.83870968 C33.0645161,5.28387097 32.7032258,5.64516129 32.2580645,5.64516129 C31.8129032,5.64516129 31.4516129,5.28387097 31.4516129,4.83870968 C31.4516129,4.39354839 31.8129032,4.03225806 32.2580645,4.03225806 Z M32.2580645,10.483871 C32.7032258,10.483871 33.0645161,10.8451613 33.0645161,11.2903226 C33.0645161,11.7354839 32.7032258,12.0967742 32.2580645,12.0967742 C31.8129032,12.0967742 31.4516129,11.7354839 31.4516129,11.2903226 C31.4516129,10.8451613 31.8129032,10.483871 32.2580645,10.483871 Z M17.7419355,12.0967742 C17.2967742,12.0967742 16.9354839,11.7354839 16.9354839,11.2903226 C16.9354839,10.8451613 17.2967742,10.483871 17.7419355,10.483871 C18.1870968,10.483871 18.5483871,10.8451613 18.5483871,11.2903226 C18.5483871,11.7354839 18.1870968,12.0967742 17.7419355,12.0967742 Z M17.7419355,5.64516129 C17.2967742,5.64516129 16.9354839,5.28387097 16.9354839,4.83870968 C16.9354839,4.39354839 17.2967742,4.03225806 17.7419355,4.03225806 C18.1870968,4.03225806 18.5483871,4.39354839 18.5483871,4.83870968 C18.5483871,5.28387097 18.1870968,5.64516129 17.7419355,5.64516129 Z M31.4516129,16.1290323 C31.8967742,16.1290323 32.2580645,16.4903226 32.2580645,16.9354839 C32.2580645,17.3806452 31.8967742,17.7419355 31.4516129,17.7419355 C31.0064516,17.7419355 30.6451613,17.3806452 30.6451613,16.9354839 C30.6451613,16.4903226 31.0064516,16.1290323 31.4516129,16.1290323 Z M33.9258065,18.0209677 C34.358871,17.5879032 34.9596774,17.3387097 35.5733871,17.3387097 C36.8580645,17.3387097 37.9032258,18.383871 37.9032258,19.6685484 L37.9032258,19.8322581 C37.9032258,20.3758065 37.7112903,20.9056452 37.3629032,21.3241935 L35.8556452,23.1322581 C34.5758065,24.6685484 33.8709677,26.6153226 33.8709677,28.6153226 C33.8709677,29.291129 33.7112903,29.9677419 33.408871,30.5717742 C32.8475806,31.6951613 31.833871,32.5169355 30.6225806,32.8403226 C30.5459677,32.0274194 30.0725806,31.3362903 29.3919355,30.9580645 C30.1741935,29.9887097 30.6451613,28.758871 30.6451613,27.4193548 C30.6451613,26.5104839 30.1354839,25.7258065 29.3919355,25.3129032 C30.1741935,24.3435484 30.6451613,23.1137097 30.6451613,21.7741935 C30.6451613,21.6274194 30.6266129,21.4846774 30.6016129,21.3451613 L33.9258065,18.0209677 Z M38.7096774,25 C38.7096774,26.3072581 37.3185484,27.3685484 35.5895161,27.4112903 C35.7991935,26.2233871 36.3153226,25.1 37.0951613,24.1653226 L37.7870968,23.3346774 C38.3677419,23.7854839 38.7096774,24.3709677 38.7096774,25 Z M29.958871,18.8241935 C30.1266129,18.9572581 30.3056452,19.0758065 30.5048387,19.1612903 L29.7532258,19.9129032 C29.6403226,19.8201613 29.5201613,19.7387097 29.3919355,19.6669355 C29.6048387,19.4040323 29.7951613,19.1225806 29.958871,18.8241935 Z M20.1612903,5.64516129 L26.6129032,5.64516129 L26.6129032,4.03225806 L20.1612903,4.03225806 L20.1612903,1.61290323 L29.8387097,1.61290323 L29.8387097,4.03225806 L28.2258065,4.03225806 L28.2258065,5.64516129 L29.8387097,5.64516129 L29.8387097,8.06451613 L20.1612903,8.06451613 L20.1612903,5.64516129 Z M20.1612903,9.67741935 L29.8387097,9.67741935 C29.8387097,12.3459677 27.6685484,14.516129 25,14.516129 C22.3314516,14.516129 20.1612903,12.3459677 20.1612903,9.67741935 Z M25,25.8064516 C22.7766129,25.8064516 20.9677419,23.9975806 20.9677419,21.7741935 C20.9677419,21.3290323 21.3290323,20.9677419 21.7741935,20.9677419 L22.1072581,20.9677419 C22.9548387,21.4766129 23.9419355,21.7741935 25,21.7741935 C26.0580645,21.7741935 27.0451613,21.4766129 27.8919355,20.9677419 L28.2258065,20.9677419 C28.6709677,20.9677419 29.0322581,21.3290323 29.0322581,21.7741935 C29.0322581,23.9975806 27.2233871,25.8064516 25,25.8064516 Z M29.0322581,27.4193548 C29.0322581,29.6427419 27.2233871,31.4516129 25,31.4516129 C22.7766129,31.4516129 20.9677419,29.6427419 20.9677419,27.4193548 C20.9677419,26.9741935 21.3290323,26.6129032 21.7741935,26.6129032 L22.1072581,26.6129032 C22.9548387,27.1217742 23.9419355,27.4193548 25,27.4193548 C26.0580645,27.4193548 27.0451613,27.1217742 27.8919355,26.6129032 L28.2258065,26.6129032 C28.6709677,26.6129032 29.0322581,26.9741935 29.0322581,27.4193548 Z M25,20.1612903 C22.7766129,20.1612903 20.9677419,18.3524194 20.9677419,16.1290323 C20.9677419,15.683871 21.3290323,15.3225806 21.7741935,15.3225806 L21.7741935,15.2556452 C22.7241935,15.8080645 23.8241935,16.1290323 25,16.1290323 C26.1758065,16.1290323 27.2758065,15.8080645 28.2258065,15.2556452 L28.2258065,15.3225806 C28.6709677,15.3225806 29.0322581,15.683871 29.0322581,16.1290323 C29.0322581,18.3524194 27.2233871,20.1612903 25,20.1612903 Z M20.041129,18.8241935 C20.2048387,19.1233871 20.3959677,19.4048387 20.6080645,19.6677419 C20.4798387,19.7387097 20.3596774,19.8209677 20.2467742,19.9137097 L19.4951613,19.1612903 C19.6943548,19.0758065 19.8733871,18.9572581 20.041129,18.8241935 Z M18.5483871,16.1290323 C18.9935484,16.1290323 19.3548387,16.4903226 19.3548387,16.9354839 C19.3548387,17.3806452 18.9935484,17.7419355 18.5483871,17.7419355 C18.1032258,17.7419355 17.7419355,17.3806452 17.7419355,16.9354839 C17.7419355,16.4903226 18.1032258,16.1290323 18.5483871,16.1290323 Z M16.0741935,18.0201613 L19.3983871,21.3443548 C19.3725806,21.4846774 19.3548387,21.6274194 19.3548387,21.7741935 C19.3548387,23.1137097 19.8258065,24.3435484 20.6080645,25.3129032 C19.8645161,25.7258065 19.3548387,26.5104839 19.3548387,27.4193548 C19.3548387,28.758871 19.8258065,29.9887097 20.6080645,30.9580645 C19.9274194,31.3362903 19.4540323,32.0274194 19.3774194,32.8403226 C18.1669355,32.5169355 17.1524194,31.6959677 16.591129,30.5717742 C16.2887097,29.9677419 16.1290323,29.291129 16.1290323,28.6153226 C16.1290323,26.6153226 15.4241935,24.6685484 14.1443548,23.1314516 L12.6370968,21.3241935 C12.2887097,20.9048387 12.0967742,20.375 12.0967742,19.8314516 L12.0967742,19.6677419 C12.0967742,18.3830645 13.1419355,17.3379032 14.4266129,17.3379032 C15.0403226,17.3379032 15.641129,17.5870968 16.0741935,18.0201613 Z M14.4104839,27.4112903 C12.6814516,27.3685484 11.2903226,26.3072581 11.2903226,25 C11.2903226,24.3709677 11.6322581,23.7854839 12.2129032,23.3346774 L12.9048387,24.1653226 C13.6846774,25.1008065 14.2008065,26.2233871 14.4104839,27.4112903 Z M22.5806452,40.1677419 L22.3685484,40.6975806 C21.5177419,42.8241935 20.2653226,44.7233871 18.6459677,46.3427419 C17.3274194,47.6612903 15.5741935,48.3870968 13.7096774,48.3870968 L12.991129,48.3870968 C11.5895161,48.3870968 10.2717742,47.841129 9.28064516,46.8508065 C8.49677419,46.066129 8.06451613,45.0225806 8.06451613,43.9129032 C8.06451613,43.2717742 8.21612903,42.6290323 8.50322581,42.0540323 L8.80645161,41.4475806 C9.3766129,40.3080645 9.67741935,39.0322581 9.67741935,37.7596774 C9.67741935,35.5564516 8.81935484,33.4854839 7.26209677,31.9282258 C3.61854839,28.2846774 1.61290323,23.441129 1.61290323,18.2903226 L1.61290323,17.7419355 C1.61290323,14.1846774 4.50725806,11.2903226 8.06451613,11.2903226 C10.9129032,11.2903226 13.3564516,13.1354839 14.2,15.7483871 C12.1330645,15.8685484 10.483871,17.5717742 10.483871,19.6685484 L10.483871,19.8322581 C10.483871,20.6330645 10.7427419,21.408871 11.1951613,22.066129 C10.2370968,22.8209677 9.67741935,23.8822581 9.67741935,25 C9.67741935,27.2233871 11.8475806,29.0322581 14.516129,29.0322581 C14.5241935,29.0322581 14.5322581,29.0306452 14.5403226,29.0306452 C14.5959677,29.8153226 14.7967742,30.5903226 15.1483871,31.2935484 C15.9314516,32.858871 17.3540323,34 19.0524194,34.425 L19.5620968,34.5524194 C19.9935484,36.1201613 21.0854839,37.4516129 22.5806452,38.1612903 L22.5806452,40.1677419 Z M26.3435484,36.8620968 L25.8064516,37.0516129 L25.8064516,41.1290323 C25.8064516,41.5741935 25.4451613,41.9354839 25,41.9354839 C24.5548387,41.9354839 24.1935484,41.5741935 24.1935484,41.1290323 L24.1935484,37.0516129 L23.6564516,36.8620968 C22.0483871,36.2927419 20.9677419,34.766129 20.9677419,33.0645161 C20.9677419,32.6193548 21.3290323,32.2580645 21.7741935,32.2580645 L22.1072581,32.2580645 C22.9548387,32.7669355 23.9419355,33.0645161 25,33.0645161 C26.0580645,33.0645161 27.0451613,32.7669355 27.8919355,32.2580645 L28.2258065,32.2580645 C28.6709677,32.2580645 29.0322581,32.6193548 29.0322581,33.0645161 C29.0322581,34.766129 27.9516129,36.2927419 26.3435484,36.8620968 Z M48.3870968,18.2903226 C48.3870968,23.4419355 46.3814516,28.2846774 42.7379032,31.9282258 C41.1798387,33.4854839 40.3225806,35.5564516 40.3225806,37.7596774 C40.3225806,39.033871 40.6233871,40.308871 41.1927419,41.4475806 L41.4967742,42.0548387 C41.7830645,42.6290323 41.9354839,43.2717742 41.9354839,43.9129032 C41.9354839,45.0225806 41.5032258,46.066129 40.7185484,46.8508065 C39.7282258,47.841129 38.4104839,48.3870968 37.008871,48.3870968 L36.2903226,48.3870968 C34.425,48.3870968 32.6725806,47.6612903 31.3540323,46.3427419 C29.7346774,44.7233871 28.4822581,42.8241935 27.6314516,40.6975806 L27.4193548,40.1669355 L27.4193548,38.1604839 C28.9145161,37.4508065 30.0064516,36.1193548 30.4379032,34.5516129 L30.9475806,34.4241935 C32.6451613,34 34.0685484,32.858871 34.8516129,31.2927419 C35.2032258,30.5895161 35.4048387,29.8145161 35.4596774,29.0298387 C35.4677419,29.0306452 35.4758065,29.0322581 35.483871,29.0322581 C38.1524194,29.0322581 40.3225806,27.2233871 40.3225806,25 C40.3225806,23.8822581 39.7629032,22.8209677 38.8040323,22.0653226 C39.2572581,21.408871 39.516129,20.6330645 39.516129,19.8322581 L39.516129,19.6685484 C39.516129,17.5725806 37.866129,15.8685484 35.8,15.7491935 C36.6435484,13.1354839 39.0870968,11.2903226 41.9354839,11.2903226 C45.4927419,11.2903226 48.3870968,14.1846774 48.3870968,17.7419355 L48.3870968,18.2903226 Z" id="Shape"></path>
                </g>
            </g>
        </g>
    </g>
</svg>