<?xml version="1.0" encoding="UTF-8"?>
<svg width="42px" height="41px" viewBox="0 0 42 41" version="1.1" xmlns="http://www.w3.org/2000/svg" xmlns:xlink="http://www.w3.org/1999/xlink">
    <!-- Generator: Sketch 50 (54983) - http://www.bohemiancoding.com/sketch -->
    <title>Group 2</title>
    <desc>Created with Sketch.</desc>
    <defs></defs>
    <g id="desktop" stroke="none" stroke-width="1" fill="none" fill-rule="evenodd">
        <g id="Poliklinika/1.1" transform="translate(-919.000000, -411.000000)" fill="#FFFFFF" fill-rule="nonzero">
            <g id="Group-6" transform="translate(840.000000, 379.000000)">
                <g id="Group-2" transform="translate(100.000000, 52.500000) rotate(-360.000000) translate(-100.000000, -52.500000) translate(79.000000, 32.000000)">
                    <path d="M16.9096364,12 C10.342299,12 5,17.342299 5,23.9096364 C5,24.5672544 5.53322771,25.1004821 6.19084573,25.1004821 C6.84846376,25.1004821 7.38169147,24.5672544 7.38169147,23.9096364 C7.38169147,18.6560613 11.6560613,14.3819862 16.9093416,14.3819862 C17.5669597,14.3819862 18.1001874,13.8487585 18.1001874,13.1911405 C18.1001874,12.5335225 17.5672544,12 16.9096364,12 Z" id="Shape"></path>
                    <path d="M41.5917611,0.736025197 C41.4709079,0.444798567 41.2389288,0.21281946 40.9479969,0.0919663042 C40.8023836,0.0318344899 40.6479274,0 40.4928816,0 L28.5832452,0 C27.9256272,0 27.3923995,0.533227706 27.3923995,1.19084573 C27.3923995,1.84846376 27.9256272,2.38169147 28.5832452,2.38169147 L37.6177556,2.38169147 L28.3365279,11.6629191 C28.2884814,11.7109656 28.2663742,11.7722765 28.2283496,11.8259235 C25.2285385,8.93488017 21.1593243,7.14566393 16.6736088,7.14566393 C7.47963131,7.14566393 0,14.6252952 0,23.8192728 C0,33.0132503 7.47963131,40.4928816 16.6736088,40.4928816 C25.8675864,40.4928816 33.3472177,33.0132503 33.3472177,23.8192728 C33.3472177,19.9316331 31.9989681,16.3590959 29.7602371,13.5202258 C29.8504348,13.4686421 29.9438749,13.4241328 30.0208083,13.3471994 L39.3017411,4.06626656 L39.3017411,13.1007769 C39.3017411,13.7583949 39.8349688,14.2916226 40.4925869,14.2916226 C41.1502049,14.2916226 41.6834326,13.7583949 41.6834326,13.1007769 L41.6834326,1.1911405 C41.6834326,1.03579998 41.6518929,0.881343748 41.5917611,0.736025197 Z M30.9649367,23.8192728 C30.9649367,31.6994881 24.5535294,38.1108954 16.6733141,38.1108954 C8.79309878,38.1108954 2.38169147,31.6994881 2.38169147,23.8192728 C2.38169147,15.9390575 8.79309878,9.52765016 16.6733141,9.52765016 C24.5535294,9.52765016 30.9649367,15.9390575 30.9649367,23.8192728 Z" id="Shape"></path>
                </g>
            </g>
        </g>
    </g>
</svg>