<?xml version="1.0" encoding="UTF-8"?>
<svg width="72px" height="50px" viewBox="0 0 72 50" version="1.1" xmlns="http://www.w3.org/2000/svg" xmlns:xlink="http://www.w3.org/1999/xlink">
    <!-- Generator: Sketch 50 (54983) - http://www.bohemiancoding.com/sketch -->
    <title>Group 13</title>
    <desc>Created with Sketch.</desc>
    <defs></defs>
    <g id="desktop" stroke="none" stroke-width="1" fill="none" fill-rule="evenodd">
        <g id="Poliklinika/1.1" transform="translate(-684.000000, -890.000000)" fill-rule="nonzero">
            <g id="Group-14" transform="translate(620.000000, 865.000000)">
                <g id="Group-13" transform="translate(65.000000, 25.000000)">
                    <path d="M30.5149786,30.0894961 C32.716588,32.0319891 35.8443305,32.5406782 38.5525437,31.3967079 C41.2244825,30.1596478 42.8875319,27.4451066 42.769101,24.5141589 C42.5067188,22.4562906 41.7045434,20.5034898 40.4432702,18.8521993 C39.1858168,17.2098902 38.0990785,15.4447699 37.1997645,13.5839782 C36.6751888,12.413378 36.5180177,11.1123603 36.7488381,9.85133723 C37.2234975,7.7093998 39.1221349,6.24469259 40.9495735,4.96110508 C42.777012,3.67751758 44.6598275,2.16556174 45,0 C42.7216351,2.66167225 38.9401822,3.29165385 36.5827074,5.82732978 C33.9562589,8.66224697 33.7347512,13.0406191 31.6146061,16.2456504 C30.3330258,18.1828439 28.8141159,20.0334148 28.2366136,22.3328476 C27.7269275,24.3952267 28.0477599,26.5742463 29.1305554,28.4042953 C29.5053067,29.0314108 29.9719127,29.5993909 30.5149786,30.0894961 Z" id="Shape" fill="#FFFFFF"></path>
                    <path d="M70,24.5080501 C68.9437058,23.8917282 68.0619526,23.0008826 67.4422957,21.9239714 C67.1697844,21.5110551 66.8729033,21.115853 66.5533375,20.7406082 C66.159002,20.276225 65.5919306,20.0069353 64.9937617,20 C64.2368017,20.0449732 63.5338996,20.4194952 63.0598877,21.0304114 C62.8181535,21.3282648 62.5842171,21.6583184 62.3502807,21.9883721 C61.4457268,23.2763864 60.3150343,24.8783542 58.209607,24.8783542 C56.1041797,24.8783542 55.0904554,23.3729875 54.217093,22.157424 C53.9116241,21.7122325 53.5698742,21.2947936 53.1955708,20.9096601 C52.7025705,20.3964313 52.0320223,20.1067927 51.3318777,20.1046512 C50.7449221,20.150092 50.2013504,20.4408447 49.8268871,20.9096601 C49.5617592,21.2155635 49.3122271,21.5617174 49.0470992,21.9078712 C48.1971304,23.0670841 47.1678104,24.4677996 45.5068621,24.7898032 C45.5966211,26.2109984 45.4246317,27.6368789 45,28.9919499 C45.8499688,28.9355993 46.5049906,28.186941 47.448534,26.8667263 C47.7370555,26.4722719 48.025577,26.0617174 48.3296943,25.7316637 C49.0531823,24.8390741 50.0979446,24.2896223 51.2227074,24.2101968 C52.4591828,24.1879526 53.6527691,24.6779297 54.536806,25.5706619 C54.982616,26.0426923 55.3870843,26.554528 55.7454772,27.1001789 C56.6188397,28.283542 57.2192764,29 58.147224,29 C59.0751716,29 59.7691828,28.1949911 60.6659389,26.9633274 C60.9310667,26.5849732 61.1961946,26.2146691 61.4457268,25.8765653 C62.2924397,24.8202168 63.534139,24.18514 64.8611978,24.1296959 C66.0511939,24.1019075 67.1924818,24.6173705 67.9803493,25.5384615 C68.3561477,25.9771697 68.7051278,26.4396024 69.0252651,26.9230769 C69.317602,27.3581169 69.638043,27.7722957 69.9844042,28.1627907 L70,24.5080501 Z" id="Shape" fill="#FFFFFF"></path>
                    <path d="M1.41574036,19.0078329 C2.18368307,18.0352363 3.32362089,17.425038 4.56183006,17.3237598 C5.87341668,17.2651567 7.15023029,17.7533472 8.08545052,18.6710183 C8.55511561,19.1511871 8.97659289,19.6758684 9.3438864,20.2375979 C10.1304088,21.3655352 10.6573788,22 11.6562623,22 C12.6551458,22 13.4180726,21.154047 14.3933604,19.8537859 C14.5978562,19.5874674 14.7944868,19.3211488 14.9989826,19.0704961 C15.7720975,18.0836712 16.9304735,17.4712583 18.1843984,17.386423 C19.5256243,17.3386621 20.8249175,17.8562433 21.7630755,18.8120104 C22.204302,19.2676477 22.6019061,19.7632656 22.9507243,20.2924282 C23.674325,21.3263708 24.1619689,21.9138381 25.0350088,21.9765013 C25.1266691,21.5569499 25.2448835,21.1435921 25.3889439,20.7389034 L27.8192981,14.0417755 C28.1551091,13.1175526 28.0175932,12.0883385 27.4507883,11.2837272 C26.8839833,10.4791158 25.9590124,10.0000705 24.972087,10 L1.0067487,10 C0.452519243,10.0042624 0.00427995509,10.4506594 0,11.002611 L0,20.8877285 C0.212361055,20.6292428 0.432587333,20.3394256 0.676409285,20.002611 C0.920231236,19.6657963 1.15618796,19.3211488 1.41574036,19.0078329 Z" id="Shape" stroke="#FFFFFF" stroke-width="2"></path>
                    <path d="M1.43784787,26.8974317 C2.19262321,25.8889494 3.31301533,25.2562368 4.52999382,25.1512218 C5.8190916,25.0904565 7.0740126,25.5966596 7.99319728,26.5481897 C8.45536975,27.0455549 8.86966608,27.5896553 9.23005566,28.172571 C10.0030921,29.3421256 10.5210266,30 11.5027829,30 C12.4845393,30 13.2575758,29.1228341 14.1774892,27.74211 C14.3784787,27.4659652 14.5717378,27.1898203 14.7649969,26.9299193 C15.5254997,25.9074905 16.663645,25.2726873 17.8957947,25.1837094 C19.2304748,25.1309664 20.5234811,25.6773184 21.4517625,26.6862621 C21.8850425,27.1561401 22.2758182,27.6673113 22.6190476,28.2131806 C23.3534323,29.3096379 23.8172542,29.9431467 24.7217069,29.9837562 L25,29.9350247 C24.6040463,28.7691583 24.3950622,27.5423156 24.3815708,26.3045325 C24.3815708,26.1258506 24.3815708,25.9552906 24.4202226,25.7766086 C22.6654298,25.5898048 21.7532468,24.2578121 21.0188621,23.1613547 C20.7432486,22.7184452 20.43019,22.3025446 20.0834879,21.918703 C19.5588995,21.3210241 18.8163825,20.9871068 18.0426716,21.0009276 C17.3675927,21.0495691 16.7464044,21.4055607 16.3419913,21.9755564 C16.1641929,22.2110916 15.9863946,22.4628708 15.8008658,22.7146499 C14.8345702,24.0791301 13.6286333,25.7766086 11.525974,25.7766086 C9.42331478,25.7766086 8.43382808,24.2740559 7.66079159,23.0720137 C7.36130094,22.6201493 7.02226717,22.1986845 6.64811379,21.8131182 C6.12521394,21.2743319 5.41675637,20.9812843 4.68460111,21.0009276 C4.00966944,21.0523933 3.38663482,21.4003291 2.96846011,21.9593125 C2.74427953,22.2435793 2.53555968,22.5603336 2.31910946,22.8689661 C1.73355414,23.8567684 0.94018222,24.6903244 0,25.305538 L0,28.8466893 C0.208719852,28.5786664 0.425170068,28.2781558 0.664811379,27.9289138 C0.90445269,27.5796719 1.18274583,27.222308 1.43784787,26.8974317 Z" id="Shape" fill="#FFFFFF"></path>
                    <circle id="Oval" fill="#FFFFFF" cx="64.5" cy="32.5" r="2.5"></circle>
                    <circle id="Oval" fill="#FFFFFF" cx="2.5" cy="44.5" r="2.5"></circle>
                    <circle id="Oval" fill="#FFFFFF" cx="31" cy="41" r="2"></circle>
                    <circle id="Oval" fill="#FFFFFF" cx="64" cy="41" r="2"></circle>
                    <circle id="Oval" fill="#FFFFFF" cx="3" cy="32" r="2"></circle>
                    <circle id="Oval" fill="#FFFFFF" cx="42.5" cy="42.5" r="2.5"></circle>
                    <circle id="Oval" fill="#FFFFFF" cx="47.5" cy="47.5" r="2.5"></circle>
                    <circle id="Oval" fill="#FFFFFF" cx="49" cy="34" r="2"></circle>
                    <circle id="Oval" fill="#FFFFFF" cx="21.5" cy="45.5" r="2.5"></circle>
                    <circle id="Oval" fill="#FFFFFF" cx="55" cy="40" r="2"></circle>
                    <path d="M44.3687944,11.8797724 C43.9864826,12.4319383 43.895024,13.1416891 44.1243874,13.7764569 L46.4896171,20.3946752 C46.8141575,20.0402232 47.11696,19.6655509 47.3962884,19.2728065 C47.7037683,18.8531146 48.0112481,18.4657067 48.3344962,18.0702278 C49.2439535,16.966645 50.5536803,16.2904281 51.9611817,16.1977563 L52.2292411,16.1977563 C53.6530852,16.2310915 55.0136469,16.8066349 56.0451449,17.8119558 C56.5455273,18.328692 56.9993858,18.8905551 57.4012099,19.4907234 C58.1896198,20.5560951 58.5917089,21 59.0332184,21 C59.474728,21 59.9162375,20.5803081 60.7598361,19.3858004 C61.0436636,18.9822505 61.3353753,18.5787006 61.6349711,18.2235767 C62.6798567,16.9422582 64.2077626,16.1763352 65.8371958,16.1170463 C67.320967,16.0925002 68.7420622,16.7285998 69.7319406,17.8603818 L70,18.1670797 L70,11 L46.0244552,11.0000336 C45.3647006,10.9961722 44.7454214,11.3252275 44.3687944,11.8797724 Z" id="Shape" stroke="#FFFFFF" stroke-width="2"></path>
                    <circle id="Oval" fill="#FFFFFF" cx="9.5" cy="36.5" r="2.5"></circle>
                    <circle id="Oval" fill="#FFFFFF" cx="14" cy="41" r="2"></circle>
                </g>
            </g>
        </g>
    </g>
</svg>