<?xml version="1.0" encoding="UTF-8"?>
<svg width="60px" height="51px" viewBox="0 0 60 51" version="1.1" xmlns="http://www.w3.org/2000/svg" xmlns:xlink="http://www.w3.org/1999/xlink">
    <!-- Generator: Sketch 50 (54983) - http://www.bohemiancoding.com/sketch -->
    <title>noun_1395753_cc</title>
    <desc>Created with Sketch.</desc>
    <defs></defs>
    <g id="desktop" stroke="none" stroke-width="1" fill="none" fill-rule="evenodd">
        <g id="Poliklinika/1.1" transform="translate(-687.000000, -403.000000)" fill="#FFFFFF" fill-rule="nonzero" stroke="#FFFFFF" stroke-width="0.4">
            <g id="Group-9" transform="translate(620.000000, 379.000000)">
                <g id="noun_1395753_cc" transform="translate(68.000000, 25.000000)">
                    <path d="M26.1845527,0.00708091842 C26.7382062,-0.057975928 27.226724,0.332365151 27.2918597,0.885348346 C27.3569954,1.40580312 26.9661811,1.89372947 26.4125277,1.95878631 C20.7457215,2.60935478 15.6977045,5.37427075 12.082673,9.40779523 C8.53277713,13.4087913 6.35073107,18.7109243 6.35073107,24.4684552 C6.35073107,30.7464409 8.89102349,36.4063865 12.9945728,40.5049678 C17.0981221,44.6035492 22.7974961,47.1407662 29.0505236,47.1407662 C35.3035512,47.1407662 40.9703573,44.6035492 45.0739066,40.5049678 C49.2100238,36.4063865 51.7503162,30.7464409 51.7503162,24.4684552 C51.7503162,20.0771181 50.5127379,15.8809515 48.3632597,12.3353533 C46.1812136,8.82228361 43.0872677,5.99231079 39.3419648,4.26830436 C37.6158686,3.4876222 35.9549082,3.25992324 34.456787,3.42256536 C32.5678516,3.58520747 30.8743233,4.33336121 29.6041771,5.17910021 C27.9432167,6.2850666 26.7382062,7.87895934 26.2171206,9.37526681 C25.9565777,10.1234205 25.8588742,10.8715743 25.9891456,11.4896143 C26.0868492,12.0425975 26.347392,12.4979954 26.8033419,12.8558081 C27.3895632,13.2786776 28.3014631,13.538905 29.5716093,13.538905 C30.3858056,13.5063766 30.9720269,13.2461492 31.395409,12.8558081 C31.7862232,12.4979954 32.0141981,11.9775407 32.1444696,11.4570859 C32.274741,10.8715743 32.274741,10.2860627 32.1444696,9.76560789 C32.0141981,9.21262469 31.7862232,8.78975519 31.4931125,8.59458465 C31.0371626,8.33435727 30.8743233,7.71631722 31.167434,7.2609193 C31.4605447,6.80552137 32.046766,6.64287926 32.5027159,6.90310664 C33.2843444,7.39103299 33.8379978,8.26930042 34.0659728,9.31020996 C34.2613799,10.1234205 34.2613799,11.0342164 34.0659728,11.8799554 C33.8705657,12.7907512 33.4146158,13.6364903 32.7306909,14.2870587 C31.9816303,15.002684 30.939459,15.458082 29.6041771,15.4906104 C27.8455131,15.5231388 26.5427991,15.1002693 25.6308992,14.4171724 C24.7515672,13.7666039 24.2304816,12.8558081 24.0676424,11.8148986 C23.8722352,10.8715743 24.0025066,9.79813631 24.360753,8.75722677 C25.01211,6.8380498 26.5102312,4.91887283 28.4968702,3.55267905 C30.0275592,2.54429793 32.0141981,1.6660305 34.2939478,1.47085996 C36.1177475,1.30821785 38.1043864,1.53591681 40.1887289,2.51176951 C44.2922782,4.36588963 47.6793348,7.48861826 50.0242201,11.3269722 C51.3920699,13.538905 52.4016733,16.0110651 53.0204624,18.6458674 C54.3231765,18.8085095 55.4956192,19.4265496 56.3749512,20.304817 C57.4171224,21.378255 58.1010473,22.842034 58.1010473,24.4684552 C58.1010473,26.1274048 57.4171224,27.5911838 56.3749512,28.6646218 C55.4630513,29.5428892 54.3231765,30.1609293 53.0204624,30.3235714 C51.9131555,34.7799654 49.6334059,38.748433 46.4743243,41.90369 C42.0125286,46.360084 35.8572046,49.125 29.0505236,49.125 C22.2438427,49.125 16.0559509,46.360084 11.5941552,41.90369 C8.46764142,38.748433 6.18789181,34.7799654 5.08058485,30.3235714 C3.77787079,30.1609293 2.60542813,29.5428892 1.72609614,28.6646218 C0.651357032,27.5911838 0,26.1274048 0,24.4684552 C0,22.842034 0.651357032,21.378255 1.72609614,20.304817 C2.60542813,19.4265496 3.77787079,18.8085095 5.08058485,18.613339 C6.0576204,14.6448714 7.97912365,11.0667448 10.6171196,8.1066583 C14.5252618,3.71532117 20.0292287,0.72270623 26.1845527,0.00708091842 Z M21.8530284,37.9352224 C21.3645107,37.7400519 21.1039679,37.1545403 21.3319428,36.6666139 C21.5273499,36.1461591 22.1135713,35.9184602 22.602089,36.1461591 C23.058039,36.3088012 23.5465567,36.4714434 24.0350745,36.6015571 C24.1979138,36.6666139 24.3281852,36.6991423 24.4910244,36.7316707 C24.7189994,35.8859317 25.1423815,35.137778 25.7286028,34.5522664 C26.5753669,33.7065274 27.7478096,33.1860726 29.0505236,33.1860726 C30.3532377,33.1860726 31.4931125,33.7065274 32.3398767,34.5522664 C32.9586658,35.137778 33.3820479,35.8859317 33.577455,36.7316707 C33.7402943,36.6991423 33.9031335,36.6666139 34.0659728,36.6015571 C34.5544906,36.4714434 35.0430083,36.3088012 35.4989583,36.1461591 C35.987476,35.9184602 36.5736974,36.1461591 36.7691045,36.6666139 C36.9970794,37.1545403 36.7365366,37.7400519 36.2480189,37.9352224 C35.6943654,38.1629214 35.1407119,38.3580919 34.5870584,38.520734 C34.2613799,38.5857909 33.9682692,38.6833761 33.6425907,38.7159046 C33.4797515,39.6592288 33.0238015,40.5049678 32.3724445,41.1555363 L32.3398767,41.1880647 C31.4931125,42.0338037 30.3532377,42.5542585 29.0505236,42.5542585 C27.7478096,42.5542585 26.5753669,42.0338037 25.7286028,41.1880647 L25.7286028,41.1555363 C25.0772458,40.5049678 24.6212958,39.6592288 24.4258887,38.7159046 C24.1327781,38.6833761 23.8070995,38.5857909 23.5139889,38.520734 C22.9603354,38.3580919 22.4066819,38.1629214 21.8530284,37.9352224 Z M26.347392,37.8051087 C26.347392,37.8376371 26.347392,37.8701656 26.347392,37.902694 C26.347392,38.6508477 26.6405026,39.3014162 27.1290204,39.7893425 C27.6175382,40.2772689 28.3014631,40.5700247 29.0505236,40.5700247 C29.7995842,40.5700247 30.4835091,40.2772689 30.9720269,39.7893425 C31.4605447,39.3014162 31.7536553,38.6183193 31.7536553,37.8701656 C31.7536553,37.1220118 31.4605447,36.4389149 30.9720269,35.9509886 C30.4835091,35.4630622 29.7995842,35.1703064 29.0505236,35.1703064 C28.3014631,35.1703064 27.6175382,35.4630622 27.1290204,35.9509886 C26.6405026,36.4389149 26.347392,37.0894834 26.347392,37.8051087 Z M42.7615892,21.0854992 C43.1198356,21.5083687 43.0872677,22.1264087 42.6964535,22.4842214 C42.2730714,22.842034 41.6542822,22.8095056 41.2960359,22.4191645 C41.1657645,22.2565224 41.0029252,22.1264087 40.8400859,21.996295 C40.0910253,21.378255 39.1465577,21.0854992 38.20209,21.0854992 C37.2901901,21.0854992 36.4108581,21.378255 35.7269332,21.996295 C35.6292297,22.0938803 35.4989583,22.223994 35.4012547,22.3541077 C35.0430083,22.7769772 34.4242192,22.842034 34.0008371,22.5167498 C33.577455,22.1914656 33.5123193,21.5734255 33.8379978,21.150556 C34.0334049,20.9228571 34.2288121,20.7276865 34.4242192,20.532516 C35.4663904,19.5891917 36.8016723,19.1337938 38.20209,19.1337938 C39.5699397,19.1012654 40.9377895,19.5566633 42.0776643,20.4349307 C42.3056393,20.6301012 42.5336142,20.8578002 42.7615892,21.0854992 Z M16.8050114,22.4191645 C16.4467651,22.8095056 15.8279759,22.842034 15.4045938,22.4842214 C15.0137796,22.1264087 14.9812117,21.5083687 15.3394581,21.0854992 C15.5674331,20.8578002 15.795408,20.6301012 16.023383,20.4349307 C17.1632578,19.5566633 18.5311076,19.1012654 19.8989573,19.1337938 C21.2668071,19.1337938 22.6346569,19.5891917 23.6768281,20.532516 C23.8722352,20.7276865 24.0676424,20.9228571 24.2304816,21.150556 C24.588728,21.5734255 24.5235923,22.1914656 24.0676424,22.5167498 C23.6442603,22.842034 23.0254711,22.7769772 22.6997926,22.3541077 C22.602089,22.223994 22.4718176,22.0938803 22.3415462,21.996295 C21.6901892,21.378255 20.8108572,21.0854992 19.8989573,21.0854992 C18.9544896,21.0854992 18.0100219,21.378255 17.2609614,21.996295 C17.0981221,22.1264087 16.9352828,22.2565224 16.8050114,22.4191645 Z M53.4438445,20.7276865 C53.6066838,21.9637666 53.7043873,23.1998467 53.7043873,24.4684552 C53.7043873,25.7370637 53.6066838,27.0056722 53.4112767,28.2092239 C53.997498,28.0140533 54.5511515,27.6887691 54.9745335,27.2658996 C55.6910263,26.5502743 56.1144083,25.5744216 56.1144083,24.4684552 C56.1144083,23.3950172 55.6910263,22.4191645 54.9745335,21.7035392 C54.5511515,21.2806697 54.0300658,20.9553855 53.4438445,20.7276865 Z M4.65720278,28.2092239 C4.49436352,27.0056722 4.39665997,25.7370637 4.39665997,24.4684552 C4.39665997,23.1998467 4.49436352,21.9637666 4.65720278,20.7276865 C4.07098145,20.9228571 3.54989583,21.2806697 3.12651376,21.7035392 C2.41002102,22.4191645 1.98663895,23.3950172 1.98663895,24.4684552 C1.98663895,25.5744216 2.41002102,26.5502743 3.12651376,27.2658996 C3.54989583,27.6887691 4.07098145,28.0140533 4.65720278,28.2092239 Z" id="Shape"></path>
                </g>
            </g>
        </g>
    </g>
</svg>