<?xml version="1.0" encoding="UTF-8"?>
<svg width="55px" height="52px" viewBox="0 0 55 52" version="1.1" xmlns="http://www.w3.org/2000/svg" xmlns:xlink="http://www.w3.org/1999/xlink">
    <!-- Generator: Sketch 50 (54983) - http://www.bohemiancoding.com/sketch -->
    <title>Group 21</title>
    <desc>Created with Sketch.</desc>
    <defs></defs>
    <g id="desktop" stroke="none" stroke-width="1" fill="none" fill-rule="evenodd">
        <g id="Poliklinika/1.1" transform="translate(-1132.000000, -889.000000)" fill="#FFFFFF" fill-rule="nonzero">
            <g id="Group-24" transform="translate(1060.000000, 865.000000)">
                <g id="Group-21" transform="translate(72.000000, 25.000000)">
                    <path d="M44.8815005,37.8512476 C43.3296705,37.5673757 41.689484,37.7084676 40.1382914,38.2594481 C37.799538,39.0901678 36.0347254,40.7006769 35.3002366,42.5752677 L33.3362307,42.4649086 C33.321746,42.4640937 33.3073193,42.4635699 33.2928346,42.4631042 C32.0277432,42.4237568 30.1306565,41.2508424 29.1458146,39.3559376 C28.371464,37.866032 27.8811288,35.4234063 29.9388795,32.2456355 L45.7764795,8.37472441 C45.7850544,8.36168621 45.7935714,8.34853159 45.8018567,8.33531877 C47.2630705,5.99921052 47.8972095,4.28457051 47.3081468,1.39608486 C47.1154427,0.451339049 46.1967668,-0.157789463 45.2564797,0.0359209706 C44.3161347,0.229514992 43.7099222,1.15231704 43.9025683,2.09706285 C44.2404089,3.75343839 44.0477627,4.57216764 42.8707961,6.4574102 L27.0410757,30.316389 C27.0377152,30.321453 27.0344127,30.3265169 27.0311102,30.3315809 C23.8928029,35.1702673 25.0782865,39.0753253 26.0642293,40.9723837 C27.5405652,43.8129656 30.4564458,45.8578097 33.162067,45.9529769 L40.3915993,46.3592566 C40.4246823,46.3611192 40.4574756,46.3620505 40.4902689,46.3620505 C40.5583469,46.3620505 40.6254978,46.3576269 40.6917218,46.3498272 C40.9905116,46.3805019 41.2971232,46.4613504 41.4692011,46.6493566 C41.7003765,46.9017972 41.8056511,47.4472481 41.7505514,48.1082383 C41.670596,49.0693983 42.381272,49.9135637 43.3378399,49.9938883 C43.3872036,49.9979628 43.435988,50 43.4845406,50 C44.3789403,50 45.1388642,49.3106633 45.2147059,48.3991532 C45.3552652,46.7092509 44.9447696,45.2865153 44.0275421,44.2848437 C43.4243423,43.6261235 42.2974927,42.8408046 40.3542868,42.8408046 C40.2957108,42.8408046 40.2379459,42.8438896 40.1809922,42.8494774 L39.2667196,42.7980812 C39.7819684,42.2858079 40.4914856,41.8380272 41.2970652,41.5518852 C42.091173,41.2697595 44.8497501,40.525767 47.0039108,42.7951709 C47.6663818,43.4931222 48.7666376,43.5193732 49.4613805,42.8538428 C50.1561234,42.188196 50.1821958,41.0829756 49.5197247,40.3850825 C48.2531849,39.050995 46.6493839,38.1746998 44.8815005,37.8512476 Z" id="Shape" stroke="#159EE3"></path>
                    <path d="M54.2163903,34.3843432 C53.6797253,33.1007783 52.7625029,32.0342479 51.6349259,31.2490386 C51.0731509,30.8567046 50.4768498,30.5363546 49.8748042,30.2652568 C48.6673374,29.7248654 47.4413935,29.3682527 46.2432245,29.0592686 L46.2211941,29.0531948 C46.0902554,29.0202998 45.9534538,29.0020182 45.8128027,29.0001539 C44.8244554,28.9872245 44.0127658,29.7904749 44.0001516,30.794162 C43.987419,31.7977289 44.7783811,32.6220273 45.7668469,32.6348365 C46.8990432,32.6496302 48.0026355,32.7054975 49.0392483,32.8958313 C50.0743806,33.0871873 50.9765015,33.5155434 51.8458728,34.0182289 C53.9143015,35.214535 54.7187069,39.4503475 54.6628019,40 C55.2684007,38.593996 55.0213879,35.8755012 54.2163903,34.3843432 Z" id="Shape"></path>
                    <circle id="Oval" cx="19.5" cy="41.5" r="1.5"></circle>
                    <circle id="Oval" cx="12.5" cy="39.5" r="1.5"></circle>
                    <circle id="Oval" cx="17.5" cy="33.5" r="1.5"></circle>
                    <circle id="Oval" cx="10.5" cy="46.5" r="1.5"></circle>
                    <circle id="Oval" cx="24.5" cy="46.5" r="1.5"></circle>
                    <circle id="Oval" cx="31.5" cy="48.5" r="1.5"></circle>
                    <circle id="Oval" cx="1.5" cy="23.5" r="1.5"></circle>
                    <circle id="Oval" cx="17.5" cy="22.5" r="1.5"></circle>
                    <circle id="Oval" cx="8.5" cy="30.5" r="1.5"></circle>
                    <circle id="Oval" cx="2.5" cy="39.5" r="1.5"></circle>
                    <circle id="Oval" cx="9.5" cy="15.5" r="1.5"></circle>
                    <circle id="Oval" cx="18.5" cy="47.5" r="1.5"></circle>
                </g>
            </g>
        </g>
    </g>
</svg>