<?xml version="1.0" encoding="UTF-8"?>
<svg width="66px" height="51px" viewBox="0 0 66 51" version="1.1" xmlns="http://www.w3.org/2000/svg" xmlns:xlink="http://www.w3.org/1999/xlink">
    <!-- Generator: Sketch 50 (54983) - http://www.bohemiancoding.com/sketch -->
    <title>cardiogram</title>
    <desc>Created with Sketch.</desc>
    <defs></defs>
    <g id="desktop" stroke="none" stroke-width="1" fill="none" fill-rule="evenodd">
        <g id="Poliklinika/1.1" transform="translate(-242.000000, -565.000000)" fill="#FFFFFF" fill-rule="nonzero" stroke="#159EE3" stroke-width="0.4">
            <g id="Group-10" transform="translate(180.000000, 541.000000)">
                <g id="cardiogram" transform="translate(63.000000, 25.000000)">
                    <path d="M51.85,22.9521097 L42.0229492,22.9521097 L39.6316563,15.7735232 C39.4444492,15.2118143 38.9008633,14.7689873 38.3213125,14.8508439 C37.7282617,14.864346 37.2143125,15.2594937 37.0532617,15.8293249 L33.1140039,29.6159283 L28.8686758,10.5077004 C28.7390547,9.92985232 28.2494687,9.50316456 27.6582109,9.45548523 C27.0705391,9.41592827 26.5160898,9.74799578 26.2974531,10.2989451 L21.2349531,22.9522152 L1.35,22.9522152 C0.603914063,22.9522152 0,23.5562236 0,24.3024262 C0,25.0486287 0.603914063,25.6526371 1.35,25.6526371 L22.15,25.6526371 C22.7007578,25.653481 23.1994141,25.317827 23.4027578,24.8037975 L27.1809648,15.360443 L31.6314297,35.3975738 C31.7654805,36.0015823 32.2929297,36.4362869 32.9103438,36.4552743 C33.5510664,36.4552743 34.0811523,36.057384 34.2468438,35.4767932 L38.4498789,20.7694093 L39.7683437,24.7300633 C39.9528086,25.2809072 40.4693945,25.6527426 41.0498945,25.6527426 L51.8498945,25.6527426 C52.5959805,25.6527426 53.1998945,25.0487342 53.1998945,24.3025316 C53.2,23.5560127 52.5960859,22.9521097 51.85,22.9521097 Z" id="Shape"></path>
                    <path d="M59.2551719,4.78628692 C56.0917422,1.62236287 51.9454492,0.0408227848 47.8,0.0408227848 C43.9209648,0.0408227848 40.0734648,1.48196203 37,4.25168776 C33.9255859,1.48196203 30.0790352,0.0408227848 26.2,0.0408227848 C22.053707,0.0408227848 17.9082578,1.62236287 14.7448281,4.78639241 C10.5499141,8.98280591 9.19896484,14.8931435 10.5679492,20.2543249 L13.3759492,20.2543249 C11.9359844,15.6159283 12.9880352,10.3626582 16.653707,6.6964135 C19.2034141,4.14630802 22.593707,2.74208861 26.2,2.74208861 C29.4912578,2.74208861 32.570207,3.96181435 35.027207,6.10590717 L37,7.95031646 L38.9737422,6.10506329 C41.4307422,3.96181435 44.5096914,2.74124473 47.8,2.74124473 C51.406293,2.74124473 54.7957422,4.14546414 57.346293,6.69556962 C62.6103438,11.9595992 62.6095,20.5262658 57.346293,25.7902954 L37,46.1396624 L19.218707,28.3555907 L15.4,28.3555907 L37,49.9589662 L59.2551719,27.7003165 C65.581293,21.3723629 65.581293,11.114346 59.2551719,4.78628692 Z" id="Shape"></path>
                </g>
            </g>
        </g>
    </g>
</svg>