<?xml version="1.0" encoding="UTF-8"?>
<svg width="40px" height="50px" viewBox="0 0 40 50" version="1.1" xmlns="http://www.w3.org/2000/svg" xmlns:xlink="http://www.w3.org/1999/xlink">
    <!-- Generator: Sketch 50 (54983) - http://www.bohemiancoding.com/sketch -->
    <title>Group</title>
    <desc>Created with Sketch.</desc>
    <defs></defs>
    <g id="desktop" stroke="none" stroke-width="1" fill="none" fill-rule="evenodd">
        <g id="Poliklinika/1.1" transform="translate(-480.000000, -890.000000)" fill="#FFFFFF" fill-rule="nonzero">
            <g id="Group-18" transform="translate(400.000000, 865.000000)">
                <g id="Group" transform="translate(80.000000, 25.000000)">
                    <path d="M34.678,1.46 C31.388,-0.421 26.951,-0.107 22.575,2.306 C21.75,2.762 20.883,3.03 20,3.104 C19.117,3.03 18.251,2.762 17.425,2.307 C13.049,-0.107 8.612,-0.422 5.323,1.46 C-2.827,6.124 0.078,18.287 3.08,24.738 C3.85,26.392 4.047,27.998 3.699,29.789 C3.405,31.308 3.255,32.873 3.255,34.441 C3.255,39.608 4.861,44.529 7.778,48.298 C8.686,49.472 10.194,49.998 11.645,49.644 C13.113,49.286 14.186,48.144 14.445,46.664 L16.618,34.223 C16.843,32.936 17.922,32.037 19.243,32.037 L20.755,32.037 C22.077,32.037 23.156,32.935 23.381,34.223 L25.555,46.664 C25.814,48.144 26.886,49.287 28.355,49.644 C28.66,49.718 28.97,49.756 29.277,49.756 C30.431,49.756 31.505,49.225 32.222,48.298 C35.138,44.529 36.745,39.609 36.745,34.441 C36.745,32.87 36.595,31.304 36.301,29.789 C35.952,27.998 36.15,26.393 36.919,24.738 C39.922,18.287 42.828,6.125 34.678,1.46 Z M30.641,47.074 C30.207,47.635 29.526,47.873 28.83,47.701 C28.135,47.532 27.647,47.015 27.526,46.32 L25.352,33.879 C24.963,31.652 23.031,30.037 20.755,30.037 L19.243,30.037 C16.969,30.037 15.035,31.652 14.647,33.879 L12.474,46.32 C12.353,47.015 11.865,47.532 11.17,47.701 C10.474,47.873 9.793,47.635 9.359,47.074 C6.712,43.654 5.254,39.168 5.254,34.441 C5.254,33 5.391,31.562 5.662,30.17 C6.088,27.975 5.837,25.922 4.893,23.895 C2.179,18.063 -0.575,7.14 6.316,3.197 C8.998,1.662 12.709,1.988 16.46,4.058 C17.564,4.666 18.731,5.018 19.929,5.104 C19.976,5.107 20.025,5.107 20.072,5.104 C21.271,5.018 22.438,4.666 23.542,4.057 C27.293,1.99 31.003,1.662 33.686,3.197 C40.576,7.14 37.822,18.063 35.109,23.895 C34.959,24.217 34.833,24.541 34.718,24.864 C33.471,27.384 31.888,29.596 30.129,31.261 C29.728,31.641 29.71,32.274 30.091,32.674 C30.287,32.883 30.552,32.987 30.817,32.987 C31.064,32.987 31.311,32.897 31.505,32.714 C32.476,31.795 33.396,30.729 34.242,29.548 C34.271,29.755 34.3,29.962 34.34,30.171 C34.611,31.562 34.748,32.999 34.748,34.442 C34.746,39.168 33.287,43.654 30.641,47.074 Z" id="Shape"></path>
                    <path d="M24.274,6.988 C21.825,8.701 18.121,8.688 15.682,6.959 C15.231,6.639 14.608,6.746 14.288,7.195 C13.968,7.646 14.074,8.27 14.525,8.59 C16.087,9.697 18.031,10.309 20,10.309 C21.945,10.309 23.87,9.711 25.421,8.627 C25.873,8.311 25.984,7.688 25.668,7.234 C25.352,6.782 24.729,6.674 24.274,6.988 Z" id="Shape"></path>
                </g>
            </g>
        </g>
    </g>
</svg>