<?xml version="1.0" encoding="UTF-8"?>
<svg width="24px" height="24px" viewBox="0 0 24 24" version="1.1" xmlns="http://www.w3.org/2000/svg" xmlns:xlink="http://www.w3.org/1999/xlink">
    <!-- Generator: Sketch 49.3 (51167) - http://www.bohemiancoding.com/sketch -->
    <title>Combined Shape</title>
    <desc>Created with Sketch.</desc>
    <defs></defs>
    <g id="desktop" stroke="none" stroke-width="1" fill="none" fill-rule="evenodd">
        <g id="Home-Page" transform="translate(-1211.000000, -46.000000)" fill="#FFFFFF" fill-rule="nonzero">
            <g id="910" transform="translate(1211.000000, 43.000000)">
                <path d="M18.502435,18.7625735 C19.4697216,19.7247698 20.4370083,20.6869661 21.3992307,21.6542265 C22.2044589,22.4644971 22.1993945,23.4570785 21.389102,24.2774775 C20.8421546,24.8294743 20.2597568,25.3561501 19.7431954,25.9334679 C18.9886105,26.7791878 18.0466454,27.0526541 16.9628792,26.9918838 C15.3878731,26.9057926 13.9394753,26.3841809 12.5417207,25.7055793 C9.43728755,24.1964504 6.78357959,22.1049395 4.56033952,19.4614319 C2.91443287,17.5066541 1.55719292,15.3746297 0.66587116,12.9742032 C0.230338937,11.8145035 -0.0785850811,10.6244186 0.0176371541,9.36343508 C0.0784090921,8.58861386 0.367075798,7.92520485 0.939344881,7.38333642 C1.55719292,6.79589027 2.13959066,6.18312316 2.74731004,5.58554863 C3.53734523,4.80566322 4.52995355,4.80566322 5.32505307,5.58048444 C5.81629291,6.06158258 6.29740408,6.5528091 6.78357959,7.03897143 C7.25456211,7.51500538 7.72554462,7.98091095 8.19652714,8.4569449 C9.02707696,9.29253641 9.02707696,10.2648611 8.20159147,11.0953884 C7.60906508,11.6929629 7.02160301,12.2905375 6.41894796,12.8729194 C6.26195378,13.0299093 6.2467608,13.1565141 6.32779005,13.3489534 C6.72787198,14.3010213 7.30014106,15.1467412 7.94331074,15.9367549 C9.23977875,17.5269109 10.7033696,18.9398202 12.4505628,20.0387496 C12.8253231,20.2717024 13.240598,20.4438849 13.6305513,20.6565809 C13.8280601,20.7679931 13.9647969,20.7325438 14.1268554,20.5654255 C14.7193818,19.9577226 15.3220369,19.360148 15.9246919,18.7625735 C16.7147271,17.9776239 17.7073354,17.9776239 18.502435,18.7625735 Z M17.2222987,15 C17.0055058,13.7102672 16.4129387,12.5386779 15.5072264,11.6132208 C14.5485203,10.6336146 13.3344804,10.0182841 12,9.82630098 L12.2505162,8 C13.9752237,8.24613221 15.5409498,9.04360056 16.7790778,10.3087201 C17.9497591,11.5098453 18.7205781,13.021097 19,14.6898734 L17.2222987,15 Z M20.1345669,6.69197584 C22.1732548,8.61389129 23.510513,11.0340811 24,13.7010354 L22.137931,14 C21.7190917,11.6984469 20.5634987,9.60569456 18.8023549,7.94952545 C16.9453322,6.20793788 14.5937763,5.10224331 12,4.76056946 L12.2624054,3 C15.2649285,3.39387403 17.9848612,4.67040552 20.1345669,6.69197584 Z" id="Combined-Shape"></path>
            </g>
        </g>
    </g>
</svg>