<svg width="24" height="24" xmlns="http://www.w3.org/2000/svg">
 <!-- Generator: Sketch 49.3 (51167) - http://www.bohemiancoding.com/sketch -->
 <title>Combined Shape</title>
 <desc>Created with Sketch.</desc>

 <g>
  <title>background</title>
  <rect fill="none" id="canvas_background" height="402" width="582" y="-1" x="-1"/>
 </g>
 <g>
  <title>Layer 1</title>
  <g fill-rule="evenodd" fill="none" id="desktop">
   <g fill-rule="nonzero" fill="#FFFFFF" id="Home-Page">
    <g id="910">
     <path fill="#159ee3" id="Combined-Shape" d="m18.50243,15.76257c0.96729,0.9622 1.93458,1.9244 2.8968,2.89166c0.80523,0.81027 0.80016,1.80285 -0.01013,2.62325c-0.54695,0.55199 -1.12934,1.07867 -1.6459,1.65599c-0.75459,0.84572 -1.69655,1.11918 -2.78032,1.05841c-1.57501,-0.08609 -3.0234,-0.6077 -4.42116,-1.2863c-3.10443,-1.50913 -5.75814,-3.60064 -7.98138,-6.24415c-1.64591,-1.95478 -3.00315,-4.0868 -3.89447,-6.48723c-0.43553,-1.1597 -0.74446,-2.34978 -0.64823,-3.61076c0.06077,-0.77483 0.34944,-1.43824 0.9217,-1.9801c0.61785,-0.58745 1.20025,-1.20022 1.80797,-1.79779c0.79004,-0.77989 1.78264,-0.77989 2.57774,-0.00507c0.49124,0.4811 0.97235,0.97233 1.45853,1.45849c0.47098,0.47604 0.94196,0.94194 1.41295,1.41797c0.83055,0.8356 0.83055,1.80792 0.00506,2.63845c-0.59252,0.59757 -1.17999,1.19515 -1.78264,1.77753c-0.157,0.15699 -0.17219,0.28359 -0.09116,0.47603c0.40008,0.95207 0.97235,1.79779 1.61552,2.5878c1.29647,1.59016 2.76006,3.00307 4.50725,4.102c0.37476,0.23295 0.79004,0.40513 1.17999,0.61783c0.19751,0.11141 0.33425,0.07596 0.49631,-0.09115c0.59252,-0.60771 1.19518,-1.20528 1.79783,-1.80286c0.79004,-0.78495 1.78265,-0.78495 2.57774,0zm-1.28013,-3.76257c-0.21679,-1.28973 -0.80936,-2.46132 -1.71507,-3.38678c-0.95871,-0.97961 -2.17275,-1.59494 -3.50723,-1.78692l0.25052,-1.8263c1.7247,0.24613 3.29043,1.0436 4.52856,2.30872c1.17068,1.20113 1.9415,2.71238 2.22092,4.38115l-1.7777,0.31013zm2.91227,-8.30802c2.03868,1.92191 3.37594,4.3421 3.86543,7.00906l-1.86207,0.29896c-0.41884,-2.30155 -1.57443,-4.39431 -3.33558,-6.05047c-1.85702,-1.74159 -4.20857,-2.84729 -6.80235,-3.18896l0.26241,-1.76057c3.00252,0.39387 5.72245,1.67041 7.87216,3.69198z"/>
    </g>
   </g>
  </g>
 </g>
</svg>