<?xml version="1.0" encoding="UTF-8"?>
<svg width="16px" height="16px" viewBox="0 0 16 16" version="1.1" xmlns="http://www.w3.org/2000/svg" xmlns:xlink="http://www.w3.org/1999/xlink">
    <!-- Generator: sketchtool 49.3 (51167) - http://www.bohemiancoding.com/sketch -->
    <title>83E7BD7F-945D-4502-AAA5-9FC5225138AC</title>
    <desc>Created with sketchtool.</desc>
    <defs></defs>
    <g id="Symbols" stroke="none" stroke-width="1" fill="none" fill-rule="evenodd">
        <g id="search/dis" transform="translate(-850.000000, -21.000000)">
            <g>
                <rect id="Rectangle" stroke="#C2C2C2" fill="#FFFFFF" x="0" y="0" width="896" height="58" rx="5"></rect>
                <path d="M865.821429,35.8928571 C865.940477,36.0238102 866,36.1785705 866,36.3571429 C866,36.5357152 865.940477,36.6904755 865.821429,36.8214286 C865.690476,36.9404768 865.535715,37 865.357143,37 C865.178571,37 865.029763,36.9404768 864.910714,36.8214286 L861.232143,33.1428571 C859.958327,34.1904814 858.500008,34.7142857 856.857143,34.7142857 C854.964276,34.7142857 853.348221,34.0446496 852.008929,32.7053571 C850.669636,31.3660647 850,29.7500095 850,27.8571429 C850,25.9642763 850.669636,24.348221 852.008929,23.0089286 C853.348221,21.6696362 854.964276,21 856.857143,21 C858.750009,21 860.366065,21.6696362 861.705357,23.0089286 C863.04465,24.348221 863.714286,25.9642763 863.714286,27.8571429 C863.714286,29.5000082 863.190481,30.958327 862.142857,32.2321429 L865.821429,35.8928571 Z M859.017857,33 C859.684527,32.7142843 860.276783,32.3125026 860.794643,31.7946429 C861.312503,31.2767831 861.714284,30.6845271 862,30.0178571 C862.285716,29.3392823 862.428571,28.6190514 862.428571,27.8571429 C862.428571,27.0952343 862.285716,26.3750034 862,25.6964286 C861.714284,25.0297586 861.312503,24.4375026 860.794643,23.9196429 C860.276783,23.4017831 859.684527,23.0000014 859.017857,22.7142857 C858.339282,22.42857 857.619051,22.2857143 856.857143,22.2857143 C856.095234,22.2857143 855.375003,22.42857 854.696429,22.7142857 C854.029759,23.0000014 853.437503,23.4017831 852.919643,23.9196429 C852.401783,24.4375026 852.005954,25.0297586 851.732143,25.6964286 C851.434522,26.3750034 851.285714,27.0952343 851.285714,27.8571429 C851.285714,28.6190514 851.434522,29.3392823 851.732143,30.0178571 C852.005954,30.6845271 852.401783,31.2767831 852.919643,31.7946429 C853.437503,32.3125026 854.029759,32.7142843 854.696429,33 C855.375003,33.2857157 856.095234,33.4285714 856.857143,33.4285714 C857.619051,33.4285714 858.339282,33.2857157 859.017857,33 Z" id="search---anticon" fill="#C2C2C2"></path>
            </g>
        </g>
    </g>
</svg>