<?xml version="1.0" encoding="UTF-8"?>
<svg width="47px" height="50px" viewBox="0 0 47 50" version="1.1" xmlns="http://www.w3.org/2000/svg" xmlns:xlink="http://www.w3.org/1999/xlink">
    <!-- Generator: Sketch 50 (54983) - http://www.bohemiancoding.com/sketch -->
    <title>two-capsules copy</title>
    <desc>Created with Sketch.</desc>
    <defs></defs>
    <g id="desktop" stroke="none" stroke-width="1" fill="none" fill-rule="evenodd">
        <g id="Poliklinika/1.1" transform="translate(-477.000000, -1052.000000)" fill="#FFFFFF" fill-rule="nonzero">
            <g id="24" transform="translate(400.000000, 1027.000000)">
                <g id="two-capsules-copy" transform="translate(77.000000, 25.000000)">
                    <path d="M10.99048,0 C5.04498,0 0.20774,4.85471698 0.20774,10.8216981 L0.20774,38.2603774 C0.20774,44.2273585 5.04498,49.0820755 10.99048,49.0820755 C16.93598,49.0820755 21.77322,44.2273585 21.77322,38.2603774 L21.77322,10.8216981 C21.77322,4.85471698 16.93598,0 10.99048,0 Z M10.99048,47.195283 C6.0818,47.195283 2.08774,43.1867925 2.08774,38.2603774 L2.08774,25.4839623 L19.8922802,25.4839623 L19.89228,38.2603774 C19.89322,43.1867925 15.89916,47.195283 10.99048,47.195283 Z M19.89322,23.5971698 L2.08774,23.5971698 L2.08774,10.8216981 C2.08774,5.89528302 6.0818,1.88679245 10.99048,1.88679245 C15.89916,1.88679245 19.89322,5.89528302 19.89322,10.8216981 L19.89322,23.5971698 Z M36.0349,0 C30.0894,0 25.25216,4.85471698 25.25216,10.8216981 L25.25216,38.2603774 C25.25216,44.2273585 30.0894,49.0820755 36.0349,49.0820755 C41.9804,49.0820755 46.81764,44.2273585 46.81764,38.2603774 L46.81764,10.8216981 C46.8167,4.85471698 41.9804,0 36.0349,0 Z M36.0349,1.88679245 C40.94358,1.88679245 44.93764,5.89528302 44.93764,10.8216981 L44.93764,23.5971698 L27.13216,23.5971698 L27.13216,10.8216981 C27.13216,5.89528302 31.12622,1.88679245 36.0349,1.88679245 Z M36.0349,47.195283 C31.12622,47.195283 27.13216,43.1867925 27.13216,38.2603774 L27.13216,25.4839623 L44.9367,25.4839623 L44.9367,38.2603774 C44.9367,43.1867925 40.94264,47.195283 36.0349,47.195283 Z M41.5292,21.2518868 L41.5292,14.0188679 C41.5292,13.4981132 41.94938,13.0754717 42.4692,13.0754717 C42.98902,13.0754717 43.4092,13.4981132 43.4092,14.0188679 L43.4092,21.2518868 C43.4092,21.7726415 42.98902,22.195283 42.4692,22.195283 C41.94938,22.195283 41.5292,21.7726415 41.5292,21.2518868 Z M5.41722,27.6150943 L5.41722,34.8481132 C5.41722,35.3688679 4.99704,35.7915094 4.47722,35.7915094 C3.9574,35.7915094 3.53722,35.3688679 3.53722,34.8481132 L3.53722,27.6150943 C3.53722,27.0943396 3.9574,26.6716981 4.47722,26.6716981 C4.99704,26.6716981 5.41722,27.0943396 5.41722,27.6150943 Z" id="Shape"></path>
                </g>
            </g>
        </g>
    </g>
</svg>