<?xml version="1.0" encoding="UTF-8"?>
<svg width="61px" height="50px" viewBox="0 0 61 50" version="1.1" xmlns="http://www.w3.org/2000/svg" xmlns:xlink="http://www.w3.org/1999/xlink">
    <!-- Generator: Sketch 51.3 (57544) - http://www.bohemiancoding.com/sketch -->
    <title>Group</title>
    <desc>Created with Sketch.</desc>
    <defs></defs>
    <g id="desktop" stroke="none" stroke-width="1" fill="none" fill-rule="evenodd">
        <g id="Poliklinika/1.1" transform="translate(-910.000000, -1055.000000)" fill="#FFFFFF" fill-rule="nonzero">
            <g id="Group-24-Copy" transform="translate(840.000000, 1030.000000)">
                <g id="Group" transform="translate(70.000000, 25.000000)">
                    <path d="M51.6630435,39.384058 C49.8652174,37.0362319 45.8797101,37.1282609 42.7594203,39.5884058 C39.6376812,42.05 38.565942,45.9485507 40.3637681,48.2963768 C42.1608696,50.6456522 46.1485507,50.5536232 49.2695652,48.0942029 C52.3898551,45.6318841 53.4615942,41.7333333 51.6630435,39.384058 Z M51.3695652,42.4282609 C51.2536232,42.8623188 50.8101449,43.1173913 50.3782609,43.0036232 C49.9456522,42.8898551 49.6884058,42.4449275 49.8028986,42.0137681 C49.8246377,41.9304348 49.8297101,41.8768116 49.8297101,41.8442029 C49.8246377,41.7623188 49.8173913,41.7601449 49.7855072,41.7086957 C49.7275362,41.6304348 49.5652174,41.5210145 49.1449275,41.5152174 C48.3463768,41.5014493 46.9231884,42.0326087 45.6210145,43.057971 C44.0471014,44.2427536 43.1601449,45.8144928 43.2065217,46.4550725 C43.207971,46.6289855 43.2456522,46.7021739 43.2862319,46.7586957 C43.3528986,46.8130435 43.3014493,46.834058 43.5557971,46.8528986 C43.5666667,46.8528986 43.5746377,46.8528986 43.5847826,46.8528986 C44.0318841,46.8528986 44.3934783,47.2144928 44.3934783,47.6615942 C44.3934783,48.107971 44.0318841,48.4717391 43.5847826,48.4717391 C43.5746377,48.4717391 43.5666667,48.4717391 43.5557971,48.4717391 C43.5398551,48.4724638 43.5217391,48.4724638 43.5050725,48.4724638 C42.8181159,48.4724638 42.2565217,48.1028986 42.0072464,47.7514493 C41.707971,47.3710145 41.5855072,46.9 41.5869565,46.4550725 C41.634058,44.8586957 42.8362319,43.2072464 44.6275362,41.7804348 C46.1586957,40.6014493 47.7644928,39.9115942 49.1449275,39.8963768 C49.8485507,39.8927536 50.5833333,40.1057971 51.0615942,40.7137681 C51.2630435,40.9644928 51.4543478,41.3688406 51.4492754,41.8442029 C51.4492754,42.0362319 51.4217391,42.2326087 51.3695652,42.4282609 Z" id="Shape"></path>
                    <path d="M59.4036232,16.807971 C57.323913,13.1652174 51.4565217,12.5586957 45.9434783,15.2681159 C45.7963768,13.9282609 45.3731884,12.5224638 44.6449275,11.173913 C42.4355072,7.08768116 38.3398551,5.09782609 35.4934783,6.73115942 C32.6492754,8.36376812 32.1318841,13.0014493 34.3391304,17.0876812 C35.5086957,19.2528986 37.2094203,20.8086957 38.9724638,21.5673913 C37.5362319,24.0963768 37.2289855,26.7557971 38.4217391,28.8449275 C40.6326087,32.715942 47.1217391,33.1601449 52.9152174,29.8362319 C58.7094203,26.5137681 61.6152174,20.6797101 59.4036232,16.807971 Z M37.3210145,15.423913 C36.3811594,13.7355072 35.8746377,12.0413043 35.8688406,10.6304348 C35.8688406,9.5826087 36.1565217,8.54057971 37.0934783,8.00362319 C37.3297101,7.86811594 37.6586957,7.75362319 38.0391304,7.75362319 C38.3456522,7.75362319 38.6775362,7.82898551 39.0094203,7.98188406 C39.4130435,8.17028986 39.5876812,8.64782609 39.3992754,9.04927536 C39.2094203,9.45217391 38.7311594,9.62463768 38.3282609,9.4384058 C38.1775362,9.36666667 38.0927536,9.35797101 38.0391304,9.35797101 C37.9724638,9.35942029 37.9405797,9.37028986 37.8775362,9.40362319 C37.7224638,9.4673913 37.4789855,9.82971014 37.4789855,10.6297101 C37.4746377,11.6471014 37.8905797,13.1543478 38.7282609,14.6442029 C39.6594203,16.3898551 40.9949275,17.5978261 41.8710145,18.0137681 C41.8514493,18.0318841 41.8333333,18.0507246 41.8137681,18.0688406 C41.415942,18.4311594 41.0471014,18.8065217 40.7021739,19.1905797 C40.7007246,19.1913043 40.7,19.1927536 40.6985507,19.1942029 C39.4572464,18.4652174 38.3014493,17.1137681 37.3210145,15.423913 Z M52.0057971,28.2434783 C47.0898551,31.0637681 41.7188406,30.923913 40.0108696,27.9326087 C38.3028986,24.9413043 40.9036232,20.2289855 45.8188406,17.4094203 C50.7355072,14.5891304 56.1057971,14.7289855 57.8137681,17.7202899 C59.5217391,20.7115942 56.9217391,25.4224638 52.0057971,28.2434783 Z M53.8746377,18.7550725 C52.1804348,18.7652174 49.9768116,19.5297101 47.7326087,20.876087 C46.2478261,21.7717391 44.9978261,22.7898551 44.0905797,23.7963768 C43.1978261,24.8144928 42.5884058,25.7847826 42.5630435,26.8492754 C42.5630435,27.1942029 42.6485507,27.5528986 42.8376812,27.8630435 C43.0898551,28.3333333 43.7543478,28.7768116 44.5818841,28.7768116 C44.6072464,28.7768116 44.6333333,28.7768116 44.6601449,28.7753623 C45.1065217,28.7775362 45.4710145,28.4152174 45.4731884,27.9695652 C45.4731884,27.5217391 45.1123188,27.157971 44.6652174,27.1565217 C44.1985507,27.1253623 44.2826087,27.0695652 44.2246377,27.0268116 C44.2028986,26.9869565 44.1847826,26.9449275 44.1833333,26.8492754 C44.157971,26.5398551 44.5130435,25.7282609 45.2971014,24.8797101 C46.0681159,24.0188406 47.2072464,23.0833333 48.5695652,22.2608696 C50.6144928,21.0173913 52.6826087,20.3623188 53.8746377,20.373913 C54.5413043,20.3717391 54.7905797,20.5637681 54.8123188,20.6326087 C54.8297101,20.6673913 54.834058,20.673913 54.8376812,20.7268116 C54.8362319,20.7717391 54.823913,20.8826087 54.7195652,21.0862319 C54.5152174,21.484058 54.6695652,21.9717391 55.0666667,22.1789855 C55.4644928,22.384058 55.9536232,22.2282609 56.1601449,21.8304348 C56.3528986,21.4565217 56.4572464,21.0847826 56.4557971,20.7275362 C56.4586957,20.3586957 56.3405797,20.0289855 56.1971014,19.7956522 C55.6833333,18.9797101 54.7746377,18.7550725 53.8746377,18.7550725 Z" id="Shape"></path>
                    <path d="M14.6173913,1.72173913 C11.1021739,-0.697826087 5.6,1.43550725 2.32898551,6.48695652 C-0.942753623,11.5398551 -0.743478261,17.5956522 2.77391304,20.0166667 C6.28985507,22.4362319 11.7905797,20.3036232 15.0630435,15.2514493 C18.3333333,10.2 18.1347826,4.14275362 14.6173913,1.72173913 Z M13.6978261,14.2891304 C11.0289855,18.3753623 6.62753623,20.1565217 3.86594203,18.2673913 C1.10289855,16.3782609 1.02536232,11.5355072 3.69347826,7.44927536 C6.36086957,3.36376812 10.7637681,1.5826087 13.5246377,3.47173913 C16.2884058,5.36014493 16.3644928,10.2036232 13.6978261,14.2891304 Z M12.8985507,5.5673913 C12.5384058,5.32101449 12.1144928,5.21594203 11.7115942,5.2173913 C9.90652174,5.28405797 8.06231884,6.85942029 6.51884058,9.13913043 C5.36594203,10.9 4.72028986,12.7014493 4.71014493,14.192029 C4.70869565,15.0717391 4.95942029,15.9623188 5.71449275,16.4855072 C5.96014493,16.6565217 6.33043478,16.8123188 6.76231884,16.8123188 L6.76956522,16.8123188 C7.02463768,16.8123188 7.29782609,16.7615942 7.57318841,16.657971 C7.98115942,16.5057971 8.18985507,16.0471014 8.04130435,15.6333333 C7.89057971,15.2173913 7.43913043,15.0072464 7.03115942,15.1594203 L7.03043478,15.157971 C6.90507246,15.2043478 6.82608696,15.2152174 6.77028986,15.2152174 C6.68405797,15.2123188 6.65217391,15.1963768 6.59275362,15.157971 C6.45942029,15.0789855 6.28623188,14.807971 6.28550725,14.192029 C6.27463768,13.1913043 6.80144928,11.5710145 7.82898551,10.026087 C9.13550725,7.96884058 10.9782609,6.74855072 11.7123188,6.81449275 C11.8702899,6.81594203 11.9550725,6.84782609 12.0268116,6.8942029 C12.1086957,6.97826087 12.1594203,6.95144928 12.1956522,7.30652174 C12.2101449,7.74710145 12.576087,8.09130435 13.0101449,8.07463768 C13.4449275,8.05797101 13.7847826,7.68623188 13.7681159,7.24637681 C13.7586957,6.44492754 13.3152174,5.82318841 12.8985507,5.5673913 Z" id="Shape"></path>
                    <path d="M25.7253623,19.9275362 C23.1673913,19.9275362 20.8818841,21.734058 19.3536232,24.5710145 C16.5985507,24.2108696 13.2681159,24.8847826 10.1275362,26.6855072 C4.33333333,30.0086957 1.42753623,35.8427536 3.63913043,39.7144928 C5.85,43.5855072 12.3391304,44.0297101 18.1326087,40.7057971 C18.3695652,40.5695652 18.5942029,40.4231884 18.8210145,40.2789855 C20.3195652,43.7398551 22.8521739,46.0144928 25.7253623,46.0144928 C30.3268116,46.0144928 34.057971,40.1746377 34.057971,32.9710145 C34.057971,25.7666667 30.3268116,19.9275362 25.7253623,19.9275362 Z M8.05507246,38.7326087 C8.30724638,39.2028986 8.97173913,39.6463768 9.79927536,39.6463768 C9.82463768,39.6463768 9.85072464,39.6463768 9.87753623,39.6449275 C10.323913,39.6471014 10.6884058,39.2847826 10.6905797,38.8391304 C10.6905797,38.3913043 10.3297101,38.0275362 9.8826087,38.026087 C9.41594203,37.9949275 9.5,37.9391304 9.44202899,37.8963768 C9.42028986,37.8565217 9.40217391,37.8144928 9.40072464,37.7188406 C9.37536232,37.4094203 9.73043478,36.5978261 10.5144928,35.7492754 C11.2855072,34.8884058 12.4246377,33.9528986 13.7869565,33.1304348 C15.0731884,32.3485507 16.3666667,31.8007246 17.4471014,31.5043478 C17.4123188,31.9862319 17.3913043,32.473913 17.3913043,32.9710145 C17.3913043,34.9514493 17.6811594,36.8217391 18.1862319,38.5028986 C17.873913,38.7123188 17.5594203,38.9202899 17.223913,39.1130435 C12.307971,41.9333333 6.93695652,41.7934783 5.22898551,38.8021739 C3.52101449,35.8101449 6.12173913,31.0985507 11.0369565,28.2789855 C13.6297101,26.7913043 16.3362319,26.1478261 18.576087,26.2927536 C18.1652174,27.3688406 17.8514493,28.5427536 17.6514493,29.7905797 C16.2311594,30.0826087 14.6028986,30.7550725 12.9514493,31.7456522 C11.4666667,32.6413043 10.2166667,33.6594203 9.30942029,34.665942 C8.41666667,35.684058 7.80724638,36.6543478 7.78188406,37.7188406 C7.78043478,38.0630435 7.86594203,38.4217391 8.05507246,38.7326087 Z M25.7246377,44.2028986 C22.1210145,44.2028986 19.2021739,39.1746377 19.2021739,32.9710145 C19.2021739,26.7673913 22.1217391,21.7391304 25.7246377,21.7391304 C29.326087,21.7391304 32.2456522,26.7673913 32.2456522,32.9710145 C32.2456522,39.1746377 29.326087,44.2028986 25.7246377,44.2028986 Z M26.2442029,25.8405797 C26.5108696,25.5347826 26.6818841,25.4884058 26.7615942,25.4905797 C26.8456522,25.5195652 26.8869565,25.4188406 27.1992754,25.8956522 C27.4224638,26.2826087 27.9166667,26.4144928 28.3043478,26.192029 C28.6913043,25.9688406 28.826087,25.473913 28.6007246,25.0862319 C28.1536232,24.2471014 27.3601449,23.842029 26.7615942,23.8717391 C25.276087,23.9601449 24.5210145,25.2463768 23.9398551,26.7797101 C23.3710145,28.3666667 23.0413043,30.4637681 23.0391304,32.7811594 C23.0413043,35.0963768 23.3710145,37.1927536 23.9398551,38.7804348 C24.5210145,40.3130435 25.2731884,41.6021739 26.7615942,41.6891304 C26.7811594,41.6898551 26.8021739,41.6905797 26.8224638,41.6905797 C27.4123188,41.6905797 28.1681159,41.2862319 28.6007246,40.473913 C28.8231884,40.0862319 28.6913043,39.5898551 28.3043478,39.3681159 C27.9166667,39.1449275 27.4217391,39.2775362 27.1992754,39.6637681 C26.8869565,40.1405797 26.8463768,40.0405797 26.7615942,40.0688406 C26.6818841,40.0710145 26.5108696,40.0246377 26.2442029,39.7188406 C25.4282609,38.8123188 24.6355072,36.0057971 24.6594203,32.7818841 C24.657971,30.623913 24.9789855,28.6724638 25.4637681,27.3282609 C25.7043478,26.6550725 25.9891304,26.1384058 26.2442029,25.8405797 Z" id="Shape"></path>
                </g>
            </g>
        </g>
    </g>
</svg>